<svg id="Layer_1" data-name="Layer 1" xmlns="http://www.w3.org/2000/svg" width="100" height="75" viewBox="0 0 100 75">
  <g id="Group_75778" data-name="Group 75778">
    <g id="Group_75728" data-name="Group 75728" transform="translate(0 0)" opacity="0.3">
      <path id="Path_40410" data-name="Path 40410" d="M97.772,117.844a17.928,17.928,0,0,0,.468-8.278c-.419-3.091-1.181-6.13-1.215-9.266-.061-5.728,2.3-11.049,2.856-16.732.693-7.087-1.667-14.542-6.02-19-4.6-4.707-10.872-5.9-16.725-5.167s-11.475,3.2-17.164,5.113S48.305,67.793,42.542,66.3c-8.484-2.2-16.2-10.46-24.753-8.754-6.784,1.353-11.92,8.845-14.7,16.9a61.636,61.636,0,0,0,1.826,43.4H97.772Z" transform="translate(-0.001 -45.801)" fill="#9a6da2" opacity="0.6"/>
      <path id="Path_40411" data-name="Path 40411" d="M366.653,11.619c5.185-.729,10.706-1.193,15.349,1.852,1.45.952,3.087,2.26,4.576,1.41,1.545-.882,1.836-3.616,1.306-5.669-1.145-4.419-4.767-7-8.29-8.175A20.147,20.147,0,0,0,367.316.864a10.1,10.1,0,0,0-5.279,3.32c-1.043,1.344-2.425,4.72-1.458,6.641.99,1.971,4.487,1.016,6.078.791Z" transform="translate(-290.431 0.01)" fill="#9a6da2" opacity="0.6"/>
    </g>
    <path id="Path_40412" data-name="Path 40412" d="M179.183,84.312l-.337-1.922c-.394.307-.791.611-1.185.918-11.918,9.3-23.606,18.9-34.67,29.211-5.4,5.034-10.684,10.214-15.68,15.656a115.129,115.129,0,0,1-11.04,11.052h69.867a2.194,2.194,0,0,0,2.24-2.509l-9.2-52.405Z" transform="translate(-95.458 -67.308)" fill="#d6a5de"/>
    <path id="Path_40413" data-name="Path 40413" d="M179.189,84.322l-.335-1.922c-.394.307-.791.611-1.185.918l-.348.271,8.957,51.028a2.195,2.195,0,0,1-2.24,2.511H118.682c-.783.723-1.581,1.428-2.4,2.109h69.867a2.195,2.195,0,0,0,2.24-2.511Z" transform="translate(-95.466 -67.316)" fill="#9a6da2"/>
    <path id="Path_40414" data-name="Path 40414" d="M124.033,136.946H54.74l6.432-57.821,68.384-3.445h1.072a1.71,1.71,0,0,1,1.659,1.92l-6.195,57.441A2.1,2.1,0,0,1,124.033,136.946Z" transform="translate(-43.744 -61.946)" fill="#9a6da2"/>
    <path id="Path_40415" data-name="Path 40415" d="M116.887,150.651H45.74L52.172,92.83h71.147Z" transform="translate(-36.552 -75.651)" fill="#9a6da2"/>
    <path id="Path_40416" data-name="Path 40416" d="M127.071,147.8H58.1L64.209,92.83H133.18Z" transform="translate(-46.43 -75.651)" fill="#e3bee9"/>
    <path id="Path_40417" data-name="Path 40417" d="M157.378,75.68H89.933a1.886,1.886,0,0,0-1.874,1.671l-.629,5.476h71.308l.574-5a1.958,1.958,0,0,0-1.93-2.147Z" transform="translate(-72.411 -60.798)" fill="#9a6da2"/>
    <path id="Path_40418" data-name="Path 40418" d="M118.678,147.8H47.37L53.685,92.83h71.306Z" transform="translate(-37.855 -75.651)" fill="#fff"/>
    <path id="Path_40419" data-name="Path 40419" d="M144.144,75.68H80.707A3.667,3.667,0,0,0,77.114,79l-.424,3.829h68.785l.552-4.978a1.954,1.954,0,0,0-1.881-2.171Z" transform="translate(-61.285 -60.798)" fill="#9a6da2"/>
    <g id="Group_75729" data-name="Group 75729" transform="translate(30.526 17.135)">
      <circle id="Ellipse_543" data-name="Ellipse 543" cx="1.004" cy="1.004" r="1.004" fill="#fff"/>
      <circle id="Ellipse_544" data-name="Ellipse 544" cx="1.004" cy="1.004" r="1.004" transform="translate(12.253)" fill="#fff"/>
      <circle id="Ellipse_545" data-name="Ellipse 545" cx="1.004" cy="1.004" r="1.004" transform="translate(24.506)" fill="#fff"/>
      <circle id="Ellipse_546" data-name="Ellipse 546" cx="1.004" cy="1.004" r="1.004" transform="translate(36.76)" fill="#fff"/>
    </g>
    <g id="Group_75731" data-name="Group 75731" transform="translate(12.4 25.057)">
      <g id="Group_75730" data-name="Group 75730" transform="translate(6.518)">
        <path id="Path_40420" data-name="Path 40420" d="M94.18,133.237l.127-.225a.7.7,0,0,0,.412.135c.177,0,.255-.058.265-.139.028-.241-.743-.076-.687-.556.024-.219.223-.4.591-.4a.8.8,0,0,1,.436.115l-.119.227a.667.667,0,0,0-.345-.1c-.177,0-.253.066-.263.147-.028.239.743.074.689.548-.024.215-.225.4-.595.4a.84.84,0,0,1-.508-.149Z" transform="translate(-94.18 -132.05)" fill="#9a6da2"/>
        <path id="Path_40421" data-name="Path 40421" d="M100.715,132.883l.082-.723h.3l-.082.713c-.028.245.066.348.247.348s.3-.1.327-.348l.082-.713h.3l-.082.723a.612.612,0,0,1-.653.591A.471.471,0,0,1,100.715,132.883Z" transform="translate(-99.397 -132.138)" fill="#9a6da2"/>
        <path id="Path_40422" data-name="Path 40422" d="M109.034,132.16l-.149,1.292h-.245l-.554-.783-.09.783h-.3l.149-1.292h.247l.552.783.09-.783Z" transform="translate(-104.984 -132.138)" fill="#9a6da2"/>
      </g>
      <path id="Path_40423" data-name="Path 40423" d="M89.858,150.2h-8.2l.826-7.175h8.2Z" transform="translate(-77.657 -140.816)" fill="#e3bee9"/>
      <path id="Path_40424" data-name="Path 40424" d="M84.876,193.565h-8.2l.824-7.175h8.2Z" transform="translate(-73.677 -175.475)" fill="#d6a5de"/>
      <path id="Path_40425" data-name="Path 40425" d="M79.9,236.935H71.7l.824-7.175h8.2Z" transform="translate(-69.697 -210.133)" fill="#d6a5de"/>
      <path id="Path_40426" data-name="Path 40426" d="M74.908,280.315h-8.2l.826-7.175h8.2Z" transform="translate(-65.71 -244.799)" fill="#d6a5de"/>
      <path id="Path_40427" data-name="Path 40427" d="M69.926,323.685h-8.2l.826-7.175h8.2Z" transform="translate(-61.73 -279.457)" fill="#d6a5de"/>
    </g>
    <g id="Group_75733" data-name="Group 75733" transform="translate(21.445 25.057)">
      <g id="Group_75732" data-name="Group 75732" transform="translate(6.259)">
        <path id="Path_40428" data-name="Path 40428" d="M142.217,133.452l.086-.775-.454.639h-.135l-.307-.623-.086.759h-.281l.149-1.292h.247l.392.8.568-.8h.245l-.145,1.292h-.281Z" transform="translate(-141.04 -132.138)" fill="#9a6da2"/>
        <path id="Path_40429" data-name="Path 40429" d="M149.773,132.719a.769.769,0,0,1,.783-.669.586.586,0,0,1,.631.669.769.769,0,0,1-.783.669A.588.588,0,0,1,149.773,132.719Zm1.111,0a.347.347,0,0,0-.358-.414.453.453,0,0,0-.452.414.347.347,0,0,0,.358.414A.453.453,0,0,0,150.883,132.719Z" transform="translate(-148.015 -132.05)" fill="#9a6da2"/>
        <path id="Path_40430" data-name="Path 40430" d="M158.9,132.16l-.149,1.292h-.245l-.554-.783-.09.783h-.3l.149-1.292h.247l.552.783.09-.783Z" transform="translate(-154.25 -132.138)" fill="#9a6da2"/>
      </g>
      <path id="Path_40431" data-name="Path 40431" d="M138.016,150.2h-8.2l.824-7.175h8.2Z" transform="translate(-125.815 -140.816)" fill="#e3bee9"/>
      <path id="Path_40432" data-name="Path 40432" d="M133.028,193.565h-8.2l.826-7.175h8.2Z" transform="translate(-121.827 -175.475)" fill="#d6a5de"/>
      <path id="Path_40433" data-name="Path 40433" d="M128.046,236.935h-8.2l.824-7.175h8.2Z" transform="translate(-117.847 -210.133)" fill="#d6a5de"/>
      <path id="Path_40434" data-name="Path 40434" d="M123.066,280.315h-8.2l.824-7.175h8.2Z" transform="translate(-113.868 -244.799)" fill="#d6a5de"/>
      <path id="Path_40435" data-name="Path 40435" d="M118.078,323.685h-8.2l.826-7.175h8.2Z" transform="translate(-109.88 -279.457)" fill="#d6a5de"/>
    </g>
    <g id="Group_75735" data-name="Group 75735" transform="translate(30.842 25.079)">
      <g id="Group_75734" data-name="Group 75734" transform="translate(6.735)">
        <path id="Path_40436" data-name="Path 40436" d="M191.974,132.4h-.414l.028-.243h1.125l-.028.243h-.414l-.121,1.049h-.3l.121-1.049Z" transform="translate(-191.56 -132.16)" fill="#9a6da2"/>
        <path id="Path_40437" data-name="Path 40437" d="M197.5,132.883l.082-.723h.3l-.082.713c-.028.245.066.348.247.348s.3-.1.327-.348l.082-.713h.3l-.082.723a.612.612,0,0,1-.653.591A.471.471,0,0,1,197.5,132.883Z" transform="translate(-196.298 -132.16)" fill="#9a6da2"/>
        <path id="Path_40438" data-name="Path 40438" d="M205.518,133.213l-.028.239h-1l.149-1.292h.976l-.028.239h-.679l-.032.281h.6l-.026.233h-.6l-.034.3Z" transform="translate(-201.893 -132.16)" fill="#9a6da2"/>
      </g>
      <path id="Path_40439" data-name="Path 40439" d="M186.166,150.2h-8.2l.824-7.175h8.2Z" transform="translate(-173.965 -140.839)" fill="#d6a5de"/>
      <path id="Path_40440" data-name="Path 40440" d="M181.178,193.565h-8.2l.826-7.175H182Z" transform="translate(-169.977 -175.497)" fill="#d6a5de"/>
      <path id="Path_40441" data-name="Path 40441" d="M176.2,236.935H168l.824-7.175h8.2Z" transform="translate(-165.997 -210.155)" fill="#d6a5de"/>
      <path id="Path_40442" data-name="Path 40442" d="M171.216,280.315h-8.2l.824-7.175h8.2Z" transform="translate(-162.018 -244.821)" fill="#d6a5de"/>
      <path id="Path_40443" data-name="Path 40443" d="M166.228,323.685h-8.2l.826-7.175h8.2Z" transform="translate(-158.03 -279.479)" fill="#d6a5de"/>
    </g>
    <g id="Group_75737" data-name="Group 75737" transform="translate(40.241 25.079)">
      <g id="Group_75736" data-name="Group 75736" transform="translate(6.259)">
        <path id="Path_40444" data-name="Path 40444" d="M239.415,132.16l-.57,1.292h-.321l-.185-.874-.394.874h-.319l-.275-1.292h.309l.187.908.408-.908h.277l.191.916.406-.916h.285Z" transform="translate(-237.35 -132.16)" fill="#9a6da2"/>
        <path id="Path_40445" data-name="Path 40445" d="M248.748,133.213l-.028.239h-1l.149-1.292h.976l-.028.239h-.679l-.032.281h.6l-.026.233h-.6l-.034.3Z" transform="translate(-245.637 -132.16)" fill="#9a6da2"/>
        <path id="Path_40446" data-name="Path 40446" d="M254.029,132.16h.587c.422,0,.683.255.639.645a.738.738,0,0,1-.787.647h-.587Zm.452,1.047a.44.44,0,0,0,.47-.4.339.339,0,0,0-.378-.4H254.3l-.092.8h.273Z" transform="translate(-250.56 -132.16)" fill="#9a6da2"/>
      </g>
      <path id="Path_40447" data-name="Path 40447" d="M234.316,150.2h-8.2l.824-7.175h8.2Z" transform="translate(-222.117 -140.839)" fill="#d6a5de"/>
      <path id="Path_40448" data-name="Path 40448" d="M229.336,193.565h-8.2l.824-7.175h8.2Z" transform="translate(-218.137 -175.497)" fill="#d6a5de"/>
      <path id="Path_40449" data-name="Path 40449" d="M224.348,236.935h-8.2l.826-7.175h8.2Z" transform="translate(-214.149 -210.155)" fill="#d6a5de"/>
      <path id="Path_40450" data-name="Path 40450" d="M219.366,280.315h-8.2l.824-7.175h8.2Z" transform="translate(-210.17 -244.821)" fill="#d6a5de"/>
      <path id="Path_40451" data-name="Path 40451" d="M214.386,323.685h-8.2l.824-7.175h8.2Z" transform="translate(-206.19 -279.479)" fill="#d6a5de"/>
    </g>
    <g id="Group_75739" data-name="Group 75739" transform="translate(49.638 25.079)">
      <g id="Group_75738" data-name="Group 75738" transform="translate(6.597)">
        <path id="Path_40452" data-name="Path 40452" d="M287.594,132.4h-.414l.028-.243h1.125l-.028.243h-.414l-.121,1.049h-.3l.12-1.049Z" transform="translate(-287.18 -132.16)" fill="#9a6da2"/>
        <path id="Path_40453" data-name="Path 40453" d="M294.314,132.16l-.149,1.292h-.3l.06-.53h-.587l-.06.53h-.3l.149-1.292h.3l-.058.51h.587l.058-.51Z" transform="translate(-291.815 -132.16)" fill="#9a6da2"/>
        <path id="Path_40454" data-name="Path 40454" d="M300.655,132.883l.082-.723h.3l-.082.713c-.028.245.066.348.247.348s.3-.1.327-.348l.082-.713h.3l-.082.723a.612.612,0,0,1-.653.591A.471.471,0,0,1,300.655,132.883Z" transform="translate(-297.943 -132.16)" fill="#9a6da2"/>
      </g>
      <path id="Path_40455" data-name="Path 40455" d="M282.466,150.2h-8.2l.824-7.175h8.2Z" transform="translate(-270.267 -140.839)" fill="#d6a5de"/>
      <path id="Path_40456" data-name="Path 40456" d="M277.486,193.565h-8.2l.824-7.175h8.2Z" transform="translate(-266.287 -175.497)" fill="#d6a5de"/>
      <path id="Path_40457" data-name="Path 40457" d="M272.5,236.935h-8.2l.826-7.175h8.2Z" transform="translate(-262.299 -210.155)" fill="#9a6da2"/>
      <path id="Path_40458" data-name="Path 40458" d="M267.516,280.315h-8.2l.824-7.175h8.2Z" transform="translate(-258.32 -244.821)" fill="#d6a5de"/>
      <path id="Path_40459" data-name="Path 40459" d="M262.536,323.685h-8.2l.824-7.175h8.2Z" transform="translate(-254.34 -279.479)" fill="#e3bee9"/>
    </g>
    <g id="Group_75741" data-name="Group 75741" transform="translate(59.035 25.079)">
      <g id="Group_75740" data-name="Group 75740" transform="translate(7.093)">
        <path id="Path_40460" data-name="Path 40460" d="M338.222,132.4l-.04.341h.6l-.028.239h-.6l-.054.47h-.3l.149-1.292h.976l-.028.239h-.677Z" transform="translate(-337.8 -132.16)" fill="#9a6da2"/>
        <path id="Path_40461" data-name="Path 40461" d="M344.5,133.452l-.207-.36h-.275l-.042.36h-.3l.149-1.292h.558c.346,0,.54.179.506.468a.486.486,0,0,1-.313.408l.243.416H344.5Zm-.161-1.049H344.1l-.052.45h.243c.183,0,.285-.084.3-.225S344.526,132.4,344.343,132.4Z" transform="translate(-342.499 -132.16)" fill="#9a6da2"/>
        <path id="Path_40462" data-name="Path 40462" d="M350.579,132.16h.3l-.149,1.292h-.3Z" transform="translate(-347.893 -132.16)" fill="#9a6da2"/>
      </g>
      <path id="Path_40463" data-name="Path 40463" d="M330.616,150.2h-8.2l.826-7.175h8.2Z" transform="translate(-318.417 -140.839)" fill="#d6a5de"/>
      <path id="Path_40464" data-name="Path 40464" d="M325.636,193.565h-8.2l.824-7.175h8.2Z" transform="translate(-314.437 -175.497)" fill="#d6a5de"/>
      <path id="Path_40465" data-name="Path 40465" d="M320.656,236.935h-8.2l.824-7.175h8.2Z" transform="translate(-310.457 -210.155)" fill="#d6a5de"/>
      <path id="Path_40466" data-name="Path 40466" d="M315.666,280.315h-8.2l.826-7.175h8.2Z" transform="translate(-306.47 -244.821)" fill="#d6a5de"/>
      <path id="Path_40467" data-name="Path 40467" d="M310.686,323.685h-8.2l.824-7.175h8.2Z" transform="translate(-302.49 -279.479)" fill="#e3bee9"/>
    </g>
    <g id="Group_75743" data-name="Group 75743" transform="translate(68.433 25.057)">
      <path id="Path_40468" data-name="Path 40468" d="M378.768,150.2h-8.2l.826-7.175h8.2Z" transform="translate(-366.567 -140.816)" fill="#d6a5de"/>
      <path id="Path_40469" data-name="Path 40469" d="M373.786,193.565h-8.2l.824-7.175h8.2Z" transform="translate(-362.587 -175.475)" fill="#d6a5de"/>
      <path id="Path_40470" data-name="Path 40470" d="M368.806,236.935h-8.2l.824-7.175h8.2Z" transform="translate(-358.607 -210.133)" fill="#d6a5de"/>
      <path id="Path_40471" data-name="Path 40471" d="M363.818,280.315h-8.2l.826-7.175h8.2Z" transform="translate(-354.62 -244.799)" fill="#d6a5de"/>
      <path id="Path_40472" data-name="Path 40472" d="M358.836,323.685h-8.2l.824-7.175h8.2Z" transform="translate(-350.64 -279.457)" fill="#e3bee9"/>
      <g id="Group_75742" data-name="Group 75742" transform="translate(6.745)">
        <path id="Path_40473" data-name="Path 40473" d="M384.22,133.237l.127-.225a.7.7,0,0,0,.41.135c.177,0,.255-.058.265-.139.028-.241-.743-.076-.687-.556.026-.219.223-.4.591-.4a.8.8,0,0,1,.436.115l-.118.227a.667.667,0,0,0-.346-.1c-.177,0-.253.066-.263.147-.028.239.743.074.689.548-.024.215-.225.4-.595.4a.84.84,0,0,1-.508-.149Z" transform="translate(-384.22 -132.05)" fill="#9a6da2"/>
        <path id="Path_40474" data-name="Path 40474" d="M390.715,133.174h-.6l-.147.277h-.307l.723-1.292h.3l.43,1.292h-.313l-.082-.277Zm-.068-.227-.149-.494-.261.494Z" transform="translate(-388.567 -132.138)" fill="#9a6da2"/>
        <path id="Path_40475" data-name="Path 40475" d="M397.514,132.4H397.1l.028-.243h1.125l-.028.243h-.414l-.121,1.049h-.3l.121-1.049Z" transform="translate(-394.513 -132.138)" fill="#9a6da2"/>
      </g>
    </g>
    <g id="Group_75748" data-name="Group 75748" transform="translate(15.797 33.364)">
      <g id="Group_75744" data-name="Group 75744" transform="translate(49.214 26.013)">
        <circle id="Ellipse_547" data-name="Ellipse 547" cx="0.49" cy="0.49" r="0.49" fill="#ff4f59"/>
        <circle id="Ellipse_548" data-name="Ellipse 548" cx="0.49" cy="0.49" r="0.49" transform="translate(1.332)" fill="#ffd000"/>
      </g>
      <g id="Group_75745" data-name="Group 75745" transform="translate(0 26.013)">
        <circle id="Ellipse_549" data-name="Ellipse 549" cx="0.49" cy="0.49" r="0.49" fill="#ff4f59"/>
        <circle id="Ellipse_550" data-name="Ellipse 550" cx="0.49" cy="0.49" r="0.49" transform="translate(1.332)" fill="#ffd000"/>
      </g>
      <g id="Group_75746" data-name="Group 75746" transform="translate(10.56 17.209)">
        <circle id="Ellipse_551" data-name="Ellipse 551" cx="0.49" cy="0.49" r="0.49" fill="#ff4f59"/>
        <circle id="Ellipse_552" data-name="Ellipse 552" cx="0.49" cy="0.49" r="0.49" transform="translate(1.33)" fill="#ffd000"/>
      </g>
      <g id="Group_75747" data-name="Group 75747" transform="translate(31.583)">
        <circle id="Ellipse_553" data-name="Ellipse 553" cx="0.49" cy="0.49" r="0.49" fill="#ff4f59"/>
        <circle id="Ellipse_554" data-name="Ellipse 554" cx="0.49" cy="0.49" r="0.49" transform="translate(1.332)" fill="#ffd000"/>
      </g>
    </g>
    <g id="Group_75749" data-name="Group 75749" transform="translate(21.944 37.222)">
      <path id="Path_40476" data-name="Path 40476" d="M113.394,190.157a.645.645,0,0,1-.683.546c-.452,0-.7-.283-.639-.812a.913.913,0,0,1,.938-.882.821.821,0,0,1,.444.112l-.173.279a.532.532,0,0,0-.814.394.611.611,0,0,1,.422-.145.457.457,0,0,1,.506.51Zm-.37.018c.018-.151-.082-.245-.251-.245a.291.291,0,0,0-.311.245c-.016.141.076.243.259.243a.28.28,0,0,0,.3-.243Z" transform="translate(-112.063 -189.01)" fill="#01124a"/>
    </g>
    <g id="Group_75750" data-name="Group 75750" transform="translate(31.369 37.247)">
      <path id="Path_40477" data-name="Path 40477" d="M161.57,189.13l-.028.245-.769,1.394h-.412l.741-1.33h-.544l-.03.267h-.337l.066-.577Z" transform="translate(-160.19 -189.13)" fill="#01124a"/>
    </g>
    <g id="Group_75751" data-name="Group 75751" transform="translate(40.735 37.22)">
      <path id="Path_40478" data-name="Path 40478" d="M209.408,190.191c-.036.309-.333.5-.751.5s-.667-.195-.631-.5a.48.48,0,0,1,.293-.386.332.332,0,0,1-.151-.337c.034-.287.311-.468.683-.468s.615.181.581.468a.437.437,0,0,1-.231.337A.364.364,0,0,1,209.408,190.191Zm-.384-.012c.016-.145-.092-.235-.283-.235s-.315.088-.331.235.09.237.277.237.319-.092.335-.237Zm-.482-.7c-.014.125.076.2.229.2s.267-.076.281-.2-.08-.207-.235-.207a.247.247,0,0,0-.277.207Z" transform="translate(-208.023 -189)" fill="#01124a"/>
    </g>
    <g id="Group_75752" data-name="Group 75752" transform="translate(50.136 37.216)">
      <path id="Path_40479" data-name="Path 40479" d="M257.41,189.8a.91.91,0,0,1-.938.882.814.814,0,0,1-.442-.112l.173-.279a.492.492,0,0,0,.3.082.5.5,0,0,0,.516-.478.618.618,0,0,1-.424.147.457.457,0,0,1-.506-.51.645.645,0,0,1,.683-.546c.454,0,.7.283.639.812Zm-.392-.285c.016-.141-.078-.243-.257-.243a.28.28,0,0,0-.3.243c-.018.151.082.245.251.245a.289.289,0,0,0,.309-.245Z" transform="translate(-256.03 -188.98)" fill="#01124a"/>
    </g>
    <g id="Group_75753" data-name="Group 75753" transform="translate(58.591 37.218)">
      <path id="Path_40480" data-name="Path 40480" d="M300.023,189.122l-.189,1.639h-.38l.153-1.336h-.327l.034-.305h.707Z" transform="translate(-299.28 -189.094)" fill="#01124a"/>
      <path id="Path_40481" data-name="Path 40481" d="M303.894,189.838a.843.843,0,0,1,.8-.848c.4,0,.667.307.6.848a.84.84,0,0,1-.8.848C304.092,190.685,303.831,190.378,303.894,189.838Zm1.022,0c.042-.372-.07-.526-.261-.526s-.335.155-.38.526.07.526.257.526.339-.155.382-.526Z" transform="translate(-302.96 -188.99)" fill="#01124a"/>
    </g>
    <g id="Group_75754" data-name="Group 75754" transform="translate(68.347 37.245)">
      <path id="Path_40482" data-name="Path 40482" d="M349.793,189.122l-.189,1.639h-.38l.153-1.336h-.327l.034-.305h.707Z" transform="translate(-349.05 -189.12)" fill="#01124a"/>
      <path id="Path_40483" data-name="Path 40483" d="M354.363,189.122l-.189,1.639h-.38l.153-1.336h-.327l.034-.305h.707Z" transform="translate(-352.702 -189.12)" fill="#01124a"/>
    </g>
    <g id="Group_75755" data-name="Group 75755" transform="translate(77.254 37.221)">
      <path id="Path_40484" data-name="Path 40484" d="M395.333,189.122l-.189,1.639h-.38l.153-1.336h-.327l.034-.305h.707Z" transform="translate(-394.59 -189.096)" fill="#01124a"/>
      <path id="Path_40485" data-name="Path 40485" d="M399.976,190.356l-.036.309H398.7l.028-.245.7-.6c.161-.139.2-.223.2-.3.014-.129-.066-.2-.239-.2a.448.448,0,0,0-.358.165l-.255-.179a.865.865,0,0,1,.687-.305c.366,0,.587.187.552.484a.746.746,0,0,1-.333.518l-.418.356h.705Z" transform="translate(-397.874 -189)" fill="#01124a"/>
    </g>
    <g id="Group_75756" data-name="Group 75756" transform="translate(19.784 45.919)">
      <path id="Path_40486" data-name="Path 40486" d="M101.793,233.19l-.189,1.639h-.38l.153-1.334h-.327l.034-.305h.707Z" transform="translate(-101.05 -233.186)" fill="#01124a"/>
      <path id="Path_40487" data-name="Path 40487" d="M106.2,234.311c-.032.277-.273.528-.739.528a1.03,1.03,0,0,1-.6-.175l.181-.291a.717.717,0,0,0,.452.147c.189,0,.315-.076.331-.211s-.068-.2-.283-.2h-.173l.028-.251.382-.382h-.7l.034-.305h1.147l-.028.245-.418.422a.408.408,0,0,1,.392.47Z" transform="translate(-104.095 -233.17)" fill="#01124a"/>
    </g>
    <g id="Group_75757" data-name="Group 75757" transform="translate(29.195 45.921)">
      <path id="Path_40488" data-name="Path 40488" d="M149.873,233.19l-.189,1.639h-.38l.153-1.334h-.327l.034-.305h.707Z" transform="translate(-149.13 -233.188)" fill="#01124a"/>
      <path id="Path_40489" data-name="Path 40489" d="M154.939,234.476h-.267l-.04.344h-.37l.04-.344h-.882l.03-.255.892-1.041h.4l-.83.986h.44l.034-.307h.358l-.036.307h.267l-.036.309Z" transform="translate(-152.558 -233.18)" fill="#01124a"/>
    </g>
    <g id="Group_75758" data-name="Group 75758" transform="translate(38.61 45.921)">
      <path id="Path_40490" data-name="Path 40490" d="M197.953,233.19l-.189,1.639h-.38l.153-1.334h-.327l.034-.305h.707Z" transform="translate(-197.21 -233.188)" fill="#01124a"/>
      <path id="Path_40491" data-name="Path 40491" d="M202.488,234.3c-.034.291-.275.542-.743.542a1.034,1.034,0,0,1-.6-.175l.183-.291a.716.716,0,0,0,.45.147c.189,0,.315-.08.331-.213s-.06-.213-.358-.213h-.42l.191-.922h1l-.034.305H201.8l-.062.311h.135c.484,0,.651.217.619.508Z" transform="translate(-200.351 -233.18)" fill="#01124a"/>
    </g>
    <g id="Group_75759" data-name="Group 75759" transform="translate(48.021 45.897)">
      <path id="Path_40492" data-name="Path 40492" d="M246.033,233.19l-.189,1.639h-.38l.153-1.334h-.327l.034-.305h.707Z" transform="translate(-245.29 -233.164)" fill="#01124a"/>
      <path id="Path_40493" data-name="Path 40493" d="M251.214,234.207a.645.645,0,0,1-.683.546c-.452,0-.7-.283-.639-.812a.913.913,0,0,1,.938-.882.821.821,0,0,1,.444.112l-.173.279a.532.532,0,0,0-.814.394.611.611,0,0,1,.422-.145.457.457,0,0,1,.506.51Zm-.37.018c.018-.151-.082-.245-.251-.245a.291.291,0,0,0-.311.245c-.016.141.076.243.259.243a.28.28,0,0,0,.3-.243Z" transform="translate(-248.96 -233.06)" fill="#01124a"/>
    </g>
    <text id="_17" data-name="17" transform="translate(57.446 46.17) rotate(6.55)" fill="#fff" font-size="1" font-family="Montserrat" font-weight="700"><tspan x="0" y="0">17</tspan></text>
    <g id="Group_75760" data-name="Group 75760" transform="translate(66.848 45.895)">
      <path id="Path_40494" data-name="Path 40494" d="M342.193,233.19,342,234.829h-.38l.153-1.334h-.327l.034-.305h.707Z" transform="translate(-341.45 -233.162)" fill="#01124a"/>
      <path id="Path_40495" data-name="Path 40495" d="M347.218,234.241c-.036.309-.333.5-.751.5s-.667-.195-.631-.5a.477.477,0,0,1,.293-.386.332.332,0,0,1-.151-.337c.034-.287.311-.468.683-.468s.615.181.581.468a.437.437,0,0,1-.231.337A.364.364,0,0,1,347.218,234.241Zm-.384-.012c.016-.145-.092-.235-.283-.235s-.315.088-.331.235.09.237.277.237.319-.092.335-.237Zm-.482-.7c-.014.125.076.2.229.2s.267-.076.281-.2-.08-.207-.235-.207a.247.247,0,0,0-.277.207Z" transform="translate(-344.952 -233.05)" fill="#01124a"/>
    </g>
    <g id="Group_75761" data-name="Group 75761" transform="translate(76.261 45.891)">
      <path id="Path_40496" data-name="Path 40496" d="M390.273,233.19l-.189,1.639h-.38l.153-1.334h-.327l.034-.305h.707Z" transform="translate(-389.53 -233.158)" fill="#01124a"/>
      <path id="Path_40497" data-name="Path 40497" d="M395.23,233.846a.91.91,0,0,1-.938.882.814.814,0,0,1-.442-.112l.173-.279a.492.492,0,0,0,.3.082.5.5,0,0,0,.516-.478.618.618,0,0,1-.424.147.457.457,0,0,1-.506-.51.645.645,0,0,1,.683-.546c.454,0,.7.283.639.812Zm-.392-.285c.016-.141-.078-.243-.257-.243a.279.279,0,0,0-.3.243c-.018.151.082.245.251.245a.289.289,0,0,0,.309-.245Z" transform="translate(-392.982 -233.03)" fill="#01124a"/>
    </g>
    <g id="Group_75762" data-name="Group 75762" transform="translate(18.717 54.404)">
      <path id="Path_40498" data-name="Path 40498" d="M96.9,277.634l-.036.309H95.62l.028-.245.7-.6c.161-.139.2-.223.2-.3.014-.129-.066-.2-.239-.2a.448.448,0,0,0-.358.165l-.255-.179a.864.864,0,0,1,.687-.3c.366,0,.587.187.552.484a.753.753,0,0,1-.333.518l-.418.356H96.9Z" transform="translate(-95.62 -276.276)" fill="#01124a"/>
      <path id="Path_40499" data-name="Path 40499" d="M102.984,277.108a.843.843,0,0,1,.8-.848c.4,0,.667.307.6.848a.84.84,0,0,1-.8.848C103.182,277.955,102.921,277.648,102.984,277.108Zm1.022,0c.042-.372-.07-.526-.259-.526s-.335.155-.38.526.07.526.259.526.337-.155.382-.526Z" transform="translate(-101.497 -276.26)" fill="#01124a"/>
    </g>
    <g id="Group_75763" data-name="Group 75763" transform="translate(28.133 54.408)">
      <path id="Path_40500" data-name="Path 40500" d="M144.976,277.634l-.036.309H143.7l.028-.245.7-.6c.161-.139.2-.223.2-.3.014-.129-.066-.2-.239-.2a.448.448,0,0,0-.358.165l-.255-.179a.864.864,0,0,1,.687-.3c.366,0,.587.187.552.484a.746.746,0,0,1-.333.518l-.418.356h.705Z" transform="translate(-143.7 -276.28)" fill="#01124a"/>
      <path id="Path_40501" data-name="Path 40501" d="M151.783,276.4l-.189,1.639h-.38l.153-1.334h-.327l.034-.305h.707Z" transform="translate(-149.566 -276.376)" fill="#01124a"/>
    </g>
    <g id="Group_75764" data-name="Group 75764" transform="translate(37.542 54.408)">
      <path id="Path_40502" data-name="Path 40502" d="M193.056,277.634l-.036.309H191.78l.028-.245.7-.6c.161-.139.2-.223.2-.3.014-.129-.066-.2-.239-.2a.451.451,0,0,0-.358.165l-.255-.179a.864.864,0,0,1,.687-.3c.366,0,.587.187.552.484a.753.753,0,0,1-.333.518l-.418.356h.705Z" transform="translate(-191.78 -276.28)" fill="#01124a"/>
      <path id="Path_40503" data-name="Path 40503" d="M199.936,277.634l-.036.309H198.66l.028-.245.7-.6c.161-.139.2-.223.2-.3.014-.129-.066-.2-.239-.2a.451.451,0,0,0-.358.165l-.255-.179a.864.864,0,0,1,.687-.3c.366,0,.587.187.552.484a.753.753,0,0,1-.333.518l-.418.356h.705Z" transform="translate(-197.278 -276.28)" fill="#01124a"/>
    </g>
    <g id="Group_75765" data-name="Group 75765" transform="translate(46.953 54.408)">
      <path id="Path_40504" data-name="Path 40504" d="M241.136,277.634l-.036.309H239.86l.028-.245.7-.6c.161-.139.2-.223.2-.3.014-.129-.066-.2-.239-.2a.448.448,0,0,0-.358.165l-.255-.179a.864.864,0,0,1,.687-.3c.366,0,.587.187.552.484a.746.746,0,0,1-.333.518l-.418.356h.705Z" transform="translate(-239.86 -276.28)" fill="#01124a"/>
      <path id="Path_40505" data-name="Path 40505" d="M247.784,277.521c-.032.277-.273.528-.739.528a1.03,1.03,0,0,1-.6-.175l.181-.291a.717.717,0,0,0,.452.147c.189,0,.315-.076.331-.211s-.068-.2-.283-.2h-.173l.028-.251.382-.382h-.7l.034-.305h1.147l-.028.245-.418.422a.408.408,0,0,1,.392.47Z" transform="translate(-245.118 -276.36)" fill="#01124a"/>
    </g>
    <g id="Group_75766" data-name="Group 75766" transform="translate(56.362 54.408)">
      <path id="Path_40506" data-name="Path 40506" d="M289.216,277.634l-.036.309H287.94l.028-.245.7-.6c.161-.139.2-.223.2-.3.014-.129-.066-.2-.239-.2a.449.449,0,0,0-.358.165l-.255-.179a.864.864,0,0,1,.687-.3c.366,0,.587.187.552.484a.746.746,0,0,1-.333.518l-.418.356h.705Z" transform="translate(-287.94 -276.28)" fill="#01124a"/>
      <path id="Path_40507" data-name="Path 40507" d="M296.409,277.686h-.267l-.04.344h-.37l.04-.344h-.882l.03-.255.892-1.041h.4l-.83.986h.44l.036-.307h.358l-.036.307h.267l-.036.309Z" transform="translate(-293.494 -276.368)" fill="#01124a"/>
    </g>
    <g id="Group_75767" data-name="Group 75767" transform="translate(65.777 54.408)">
      <path id="Path_40508" data-name="Path 40508" d="M337.3,277.634l-.036.309H336.02l.028-.245.7-.6c.161-.139.2-.223.2-.3.014-.129-.066-.2-.239-.2a.451.451,0,0,0-.358.165l-.255-.179a.864.864,0,0,1,.687-.3c.366,0,.587.187.552.484a.753.753,0,0,1-.333.518l-.418.356h.705Z" transform="translate(-336.02 -276.28)" fill="#01124a"/>
      <path id="Path_40509" data-name="Path 40509" d="M344.078,277.515c-.034.291-.275.542-.743.542a1.035,1.035,0,0,1-.6-.175l.183-.291a.708.708,0,0,0,.45.147c.189,0,.315-.08.331-.213s-.06-.213-.358-.213h-.42l.191-.922h1l-.034.305h-.683l-.062.311h.135c.484,0,.651.217.619.508Z" transform="translate(-341.382 -276.368)" fill="#01124a"/>
    </g>
    <g id="Group_75768" data-name="Group 75768" transform="translate(75.186 54.404)">
      <path id="Path_40510" data-name="Path 40510" d="M385.376,277.634l-.036.309H384.1l.028-.245.7-.6c.161-.139.2-.223.2-.3.014-.129-.066-.2-.239-.2a.451.451,0,0,0-.358.165l-.255-.179a.864.864,0,0,1,.687-.3c.366,0,.587.187.552.484a.753.753,0,0,1-.333.518l-.418.356h.705Z" transform="translate(-384.1 -276.276)" fill="#01124a"/>
      <path id="Path_40511" data-name="Path 40511" d="M392.774,277.409a.645.645,0,0,1-.683.546c-.452,0-.7-.283-.639-.812a.915.915,0,0,1,.938-.884.821.821,0,0,1,.444.112l-.173.279a.532.532,0,0,0-.814.394.611.611,0,0,1,.422-.145.457.457,0,0,1,.506.51Zm-.37.018c.016-.151-.082-.245-.251-.245a.291.291,0,0,0-.311.245c-.016.141.078.243.261.243A.28.28,0,0,0,392.4,277.427Z" transform="translate(-389.968 -276.26)" fill="#01124a"/>
    </g>
    <g id="Group_75769" data-name="Group 75769" transform="translate(17.746 62.707)">
      <path id="Path_40512" data-name="Path 40512" d="M91.936,320.836l-.036.309H90.66l.028-.245.7-.6c.161-.139.2-.223.2-.3.014-.129-.066-.2-.239-.2a.448.448,0,0,0-.358.165l-.255-.179a.865.865,0,0,1,.687-.305c.366,0,.587.187.552.484a.746.746,0,0,1-.333.518l-.418.356h.705Z" transform="translate(-90.66 -319.48)" fill="#01124a"/>
      <path id="Path_40513" data-name="Path 40513" d="M99.42,319.6l-.028.245-.769,1.394h-.412l.741-1.33h-.544l-.03.267H98.04l.066-.577Z" transform="translate(-96.558 -319.576)" fill="#01124a"/>
    </g>
    <g id="Group_75770" data-name="Group 75770" transform="translate(27.158 62.705)">
      <path id="Path_40514" data-name="Path 40514" d="M140.016,320.836l-.036.309H138.74l.028-.245.7-.6c.161-.139.2-.223.2-.3.014-.129-.066-.2-.239-.2a.448.448,0,0,0-.358.165l-.255-.179a.865.865,0,0,1,.687-.305c.366,0,.587.187.552.484a.746.746,0,0,1-.333.518l-.418.356h.705Z" transform="translate(-138.74 -319.478)" fill="#01124a"/>
      <path id="Path_40515" data-name="Path 40515" d="M147.288,320.661c-.036.309-.333.5-.751.5s-.667-.195-.631-.5a.48.48,0,0,1,.293-.386.332.332,0,0,1-.151-.337c.034-.287.311-.468.683-.468s.615.181.581.468a.437.437,0,0,1-.231.337A.364.364,0,0,1,147.288,320.661Zm-.384-.012c.016-.145-.092-.235-.283-.235s-.315.088-.331.235.09.237.277.237.319-.09.335-.237Zm-.482-.7c-.014.125.076.2.229.2s.267-.076.281-.2-.08-.207-.235-.207a.247.247,0,0,0-.277.207Z" transform="translate(-144.464 -319.47)" fill="#01124a"/>
    </g>
    <g id="Group_75771" data-name="Group 75771" transform="translate(36.57 62.703)">
      <path id="Path_40516" data-name="Path 40516" d="M188.1,320.836l-.036.309H186.82l.028-.245.7-.6c.161-.139.2-.223.2-.3.014-.129-.066-.2-.239-.2a.448.448,0,0,0-.358.165l-.255-.179a.865.865,0,0,1,.687-.305c.366,0,.587.187.552.484a.753.753,0,0,1-.333.518l-.418.356h.705Z" transform="translate(-186.82 -319.476)" fill="#01124a"/>
      <path id="Path_40517" data-name="Path 40517" d="M195.29,320.274a.912.912,0,0,1-.938.884.814.814,0,0,1-.442-.112l.173-.279a.492.492,0,0,0,.3.082.5.5,0,0,0,.516-.478.618.618,0,0,1-.424.147.457.457,0,0,1-.506-.51.645.645,0,0,1,.683-.546c.454,0,.7.283.639.812Zm-.392-.285c.016-.141-.078-.243-.257-.243a.279.279,0,0,0-.3.243c-.018.151.082.245.251.245a.289.289,0,0,0,.309-.245Z" transform="translate(-192.486 -319.46)" fill="#01124a"/>
    </g>
    <g id="Group_75772" data-name="Group 75772" transform="translate(45.921 62.703)">
      <path id="Path_40518" data-name="Path 40518" d="M235.944,320.723c-.032.277-.273.528-.739.528a1.017,1.017,0,0,1-.6-.177l.181-.291a.722.722,0,0,0,.452.147c.189,0,.315-.076.331-.211s-.068-.2-.283-.2h-.173l.028-.251.382-.382h-.7l.034-.305H236l-.028.245-.418.422a.408.408,0,0,1,.392.47Z" transform="translate(-234.6 -319.556)" fill="#01124a"/>
      <path id="Path_40519" data-name="Path 40519" d="M242.3,320.308a.843.843,0,0,1,.8-.848c.4,0,.667.307.6.848a.84.84,0,0,1-.8.848C242.5,321.155,242.241,320.848,242.3,320.308Zm1.022,0c.042-.372-.07-.526-.261-.526s-.335.155-.38.526.07.526.257.526.339-.155.382-.526Z" transform="translate(-240.749 -319.46)" fill="#01124a"/>
    </g>
    <g id="Group_75773" data-name="Group 75773" transform="translate(41.717 29.015)">
      <path id="Path_40520" data-name="Path 40520" d="M213.743,147.332l-.189,1.639h-.38l.153-1.336H213l.034-.305h.707Z" transform="translate(-213 -147.33)" fill="#01124a"/>
    </g>
    <g id="Group_75774" data-name="Group 75774" transform="translate(51.036 28.991)">
      <path id="Path_40521" data-name="Path 40521" d="M261.9,148.566l-.036.309H260.62l.028-.245.7-.6c.161-.139.2-.223.2-.3.014-.129-.066-.2-.239-.2a.448.448,0,0,0-.358.165l-.255-.179a.865.865,0,0,1,.687-.305c.366,0,.587.187.552.484a.753.753,0,0,1-.333.518l-.418.356h.705Z" transform="translate(-260.62 -147.21)" fill="#01124a"/>
    </g>
    <g id="Group_75775" data-name="Group 75775" transform="translate(60.391 29.013)">
      <path id="Path_40522" data-name="Path 40522" d="M309.744,148.461c-.032.277-.273.528-.739.528a1.03,1.03,0,0,1-.6-.175l.181-.291a.717.717,0,0,0,.452.147c.189,0,.315-.076.331-.211s-.068-.2-.283-.2h-.173l.028-.251.382-.382h-.7l.034-.305H309.8l-.028.245-.418.422a.408.408,0,0,1,.392.47Z" transform="translate(-308.4 -147.32)" fill="#01124a"/>
    </g>
    <g id="Group_75776" data-name="Group 75776" transform="translate(69.897 29.015)">
      <path id="Path_40523" data-name="Path 40523" d="M358.481,148.626h-.267l-.04.343h-.37l.04-.343h-.884l.03-.255.892-1.041h.4l-.83.986h.44l.034-.307h.358l-.034.307h.267l-.036.309Z" transform="translate(-356.96 -147.33)" fill="#01124a"/>
    </g>
    <g id="Group_75777" data-name="Group 75777" transform="translate(79.247 29.015)">
      <path id="Path_40524" data-name="Path 40524" d="M406.038,148.455c-.034.291-.275.542-.743.542a1.034,1.034,0,0,1-.6-.175l.183-.291a.707.707,0,0,0,.45.147c.189,0,.315-.08.331-.213s-.06-.213-.358-.213h-.42l.191-.922h1l-.034.305h-.683l-.062.311h.135c.484,0,.651.217.619.508Z" transform="translate(-404.69 -147.33)" fill="#01124a"/>
    </g>
    <path id="Path_40525" data-name="Path 40525" d="M274.221,227.187A5.1,5.1,0,0,1,273,230.536a4.3,4.3,0,0,1-1.509,1.1,4.367,4.367,0,0,1-1.842.35,4.537,4.537,0,0,1-1.8-.444,5.194,5.194,0,0,1-1.48-1.069,5.066,5.066,0,0,1-1.426-3.282,4.572,4.572,0,0,1,1.294-3.415,4.714,4.714,0,0,1,3.415-1.452,4.681,4.681,0,0,1,1.85.4,4.3,4.3,0,0,1,1.5,1.113,5.077,5.077,0,0,1,1.221,3.355Zm-.06,0a3.967,3.967,0,0,0-.392-1.707,4.283,4.283,0,0,0-1.049-1.366,4.7,4.7,0,0,0-3.073-1.151,4.395,4.395,0,0,0-3.013,1.211,4.533,4.533,0,0,0-1.368,3.013,4.177,4.177,0,0,0,.275,1.7,4.091,4.091,0,0,0,.96,1.444,4.044,4.044,0,0,0,1.468.9,4.6,4.6,0,0,0,1.675.249,4.965,4.965,0,0,0,3.077-1.215,4.269,4.269,0,0,0,1.049-1.368,3.95,3.95,0,0,0,.388-1.709Z" transform="translate(-213.165 -178.643)" fill="#ff4f59"/>
  </g>
</svg>
