<svg id="Component_10_1" data-name="Component 10 – 1" xmlns="http://www.w3.org/2000/svg" xmlns:xlink="http://www.w3.org/1999/xlink" width="430" height="430" viewBox="0 0 430 430">
  <defs>
    <radialGradient id="radial-gradient" cx="0.5" cy="0.5" r="0.5" gradientUnits="objectBoundingBox">
      <stop offset="0" stop-color="#fff"/>
      <stop offset="1" stop-color="#fff"/>
    </radialGradient>
  </defs>
  <rect id="Rectangle_18153" data-name="Rectangle 18153" width="430" height="430" fill="url(#radial-gradient)"/>
  <g id="Directions-pana" transform="translate(45.163 36.467)">
    <g id="freepik--background-complete--inject-53" transform="translate(27.168 35.533)">
      <path id="Path_39210" data-name="Path 39210" d="M427.3,51.973c.363-2.642-3.362-4.815-6.163-5.04a15.74,15.74,0,0,1-3.963-.343c-2.741-.958-3.838-4.5-6.513-5.628-1.982-.845-4.3-.092-6.242.885s-3.877,2.2-6.011,2.319c-1.883.125-3.93-.575-5.582.343-1.229.661-1.869,2.1-3,2.939a7.2,7.2,0,0,1-3.97,1.083,11,11,0,0,0-4.049.661,3.2,3.2,0,0,0-2.021,3.25Z" transform="translate(-150.02 -37.251)" fill="#eaeaea"/>
      <path id="Path_39211" data-name="Path 39211" d="M123.078,53.332c.568-4.135-5.284-7.53-9.644-7.887-2.094-.165-4.26.152-6.242-.535-4.287-1.5-6-7.041-10.186-8.805-3.131-1.321-6.731-.145-9.763,1.381s-6.031,3.448-9.426,3.64c-2.946.192-6.143-.9-8.726.535-1.922,1.077-2.926,3.3-4.7,4.624s-3.963,1.546-6.143,1.665-4.379.139-6.335,1.037-3.58,2.966-3.171,5.08Z" transform="translate(-37.638 -35.533)" fill="#f5f5f5"/>
      <path id="Path_39212" data-name="Path 39212" d="M353.645,89.063c.555-4.036-5.139-7.358-9.419-7.7-2.041-.165-4.155.145-6.09-.528-4.188-1.46-5.866-6.87-9.948-8.587-3.058-1.321-6.572-.139-9.538,1.321s-5.892,3.369-9.2,3.58c-2.873.185-6-.879-8.521.522-1.876,1.05-2.86,3.21-4.624,4.492a10.808,10.808,0,0,1-6,1.625,16.825,16.825,0,0,0-6.189,1.011c-1.916.879-3.494,2.9-3.1,4.961Z" transform="translate(-116.485 -47.801)" fill="#f5f5f5"/>
      <path id="Path_39213" data-name="Path 39213" d="M368.084,417.308c-13.944-6.434-19.638-22-21.738-36.528-.357-2.431-1.077-4.921-.31-7.266s3.184-4.247,5.529-3.62c1.942.522,3.1,2.47,4.406,4.009a14.307,14.307,0,0,0,6.605,4.386c1.678.522,3.666.661,5.033-.443,1.869-1.519,1.6-4.432,1.156-6.83q-1.248-6.7-2.49-13.4a22.658,22.658,0,0,1-.555-7.266,7.529,7.529,0,0,1,3.772-5.866c2.167-1.05,5.225-.238,6.13,2.021a23.213,23.213,0,0,1,.6,2.972,2.578,2.578,0,0,0,1.9,2.107c1,.126,1.843-.74,2.437-1.572a32.461,32.461,0,0,0,4.175-9.67,45.837,45.837,0,0,1,3.739-9.875c1.757-3.045,4.5-5.694,7.926-6.506s7.438.661,8.911,3.871.119,7.008-1.532,10.126a54.4,54.4,0,0,1-9.248,12.63,4.445,4.445,0,0,0-1.506,2.338c-.231,1.691,1.565,3.005,3.243,3.25,1.889.271,3.8-.258,5.707-.377s4.082.343,5.106,1.982c1.427,2.272-.165,5.212-1.876,7.266a46.522,46.522,0,0,1-12.167,10.271,16.129,16.129,0,0,0-4.624,3.356c-1.222,1.493-1.671,3.8-.509,5.337s3.468,1.684,5.251,1.011,3.263-1.982,4.9-2.953c3.072-1.836,7.372-2.378,9.994.092a7.6,7.6,0,0,1,1.982,6.566,17.644,17.644,0,0,1-2.57,6.605,46.955,46.955,0,0,1-17.174,17.372c-7.14,4.023-14.122,6.011-22.221,4.624" transform="translate(-138.461 -133.37)" fill="#eaeaea"/>
      <path id="Path_39214" data-name="Path 39214" d="M382.78,408.333a219.542,219.542,0,0,1,4.373-24.665q.753-3.25,1.48-6.407c.5-2.1.978-4.188,1.579-6.2a110.039,110.039,0,0,1,4.122-11.348c1.486-3.547,3.019-6.856,4.478-9.941s2.893-5.945,4.3-8.468a86.464,86.464,0,0,1,7.557-11.487c.991-1.281,1.8-2.246,2.345-2.9l.661-.733a1.555,1.555,0,0,1,.225-.238,1.979,1.979,0,0,1-.192.271l-.594.76c-.528.661-1.321,1.651-2.279,2.953a91.048,91.048,0,0,0-7.431,11.526c-1.387,2.543-2.787,5.4-4.241,8.481s-2.966,6.4-4.439,9.941a111.987,111.987,0,0,0-4.076,11.308c-.594,1.982-1.077,4.069-1.565,6.176s-.978,4.241-1.473,6.4a223.055,223.055,0,0,0-4.406,24.612" transform="translate(-151.05 -134.117)" fill="#e0e0e0"/>
      <path id="Path_39215" data-name="Path 39215" d="M389.987,380.954a5.147,5.147,0,0,1-.416-.984c-.244-.661-.568-1.572-.951-2.741-.773-2.325-1.717-5.575-2.754-9.162s-2.028-6.817-2.827-9.122c-.4-1.156-.733-2.087-.964-2.728a4.926,4.926,0,0,1-.324-1.017,4.862,4.862,0,0,1,.482.951c.284.621.661,1.539,1.1,2.682.878,2.292,1.922,5.516,2.959,9.109s1.929,6.744,2.642,9.195l.819,2.781A4.84,4.84,0,0,1,389.987,380.954Z" transform="translate(-150.7 -144.047)" fill="#e0e0e0"/>
      <path id="Path_39216" data-name="Path 39216" d="M424.01,377.09a7.153,7.153,0,0,1-1.2.363c-.779.218-1.909.515-3.3.931-2.768.813-6.553,2.068-10.668,3.64s-7.781,3.157-10.4,4.379c-1.321.6-2.365,1.116-3.091,1.466a7.059,7.059,0,0,1-1.149.515,7.073,7.073,0,0,1,1.07-.661c.707-.4,1.737-.964,3.032-1.605,2.589-1.321,6.249-2.933,10.371-4.518a109.72,109.72,0,0,1,10.747-3.514c1.4-.383,2.543-.661,3.336-.8A6.45,6.45,0,0,1,424.01,377.09Z" transform="translate(-154.926 -151.477)" fill="#e0e0e0"/>
      <path id="Path_39217" data-name="Path 39217" d="M371.587,430.9a1.675,1.675,0,0,1-.277-.337l-.733-1.024c-.628-.892-1.5-2.2-2.563-3.831-2.12-3.3-4.908-7.867-7.926-12.986s-5.74-9.75-7.788-13.052l-2.444-3.9c-.264-.429-.482-.779-.661-1.07a1.392,1.392,0,0,1-.2-.39,1.684,1.684,0,0,1,.277.337l.727,1.024c.661.885,1.5,2.2,2.563,3.831,2.12,3.263,4.908,7.867,7.926,12.993s5.747,9.736,7.8,13.046l2.437,3.9.661,1.07a1.538,1.538,0,0,1,.2.39Z" transform="translate(-139.579 -157.323)" fill="#e0e0e0"/>
      <path id="Path_39218" data-name="Path 39218" d="M421.8,418.58a1.761,1.761,0,0,1-.376.244l-1.123.608-4.128,2.213c-3.488,1.863-8.277,4.5-13.568,7.418s-10.106,5.509-13.634,7.3c-1.764.9-3.2,1.612-4.2,2.081l-1.156.542a1.605,1.605,0,0,1-.416.159,1.551,1.551,0,0,1,.377-.244l1.116-.608,4.135-2.213c3.488-1.863,8.277-4.5,13.568-7.418s10.1-5.509,13.627-7.266c1.77-.9,3.2-1.612,4.2-2.081l1.156-.542a1.983,1.983,0,0,1,.423-.192Z" transform="translate(-151.192 -165.561)" fill="#e0e0e0"/>
      <path id="Path_39219" data-name="Path 39219" d="M447.976,209.047,435.3,198.63l-.073,5.634-35.359-.443-.119,9.254,35.365.436-.066,5.43Z" transform="translate(-156.81 -90.898)" fill="#eaeaea"/>
      <path id="Path_39220" data-name="Path 39220" d="M428.231,233.618l-8.184-6.718L420,230.533l-22.828-.284-.073,5.971,22.828.284-.046,3.507Z" transform="translate(-155.911 -100.494)" fill="#eaeaea"/>
      <path id="Path_39221" data-name="Path 39221" d="M35.362,109.824s-7.372,2.292-.41,18.119,11.956,23.779,11.956,23.779,1.182,3.646-1.85,4.029-9.591-1.05-11.143,2.543c-1.605,3.679.958,7.457,6.387,10.945s17.062,11.526,18.105,12.26,1.982,2.437,0,3.032-17,1.288-16.236,8.369,17.485,14.288,19.294,15.107,2.213,1.638,1.982,2.642-5.284.766-9.512,1.136-9.115,1.552-8.336,5.6,10.417,13.019,34.857,16.844L91.9,235.294l6.8-9.353c13.323-20.84,12.993-34,10.47-37.268s-6.605-.4-9.71,2.536-6.262,6.876-7.16,6.368-1.235-1.321-.661-3.25,6.275-19.209,1.466-24.44-15.239,5.5-17.029,6.605-2.431-.74-2.285-1.982,1.81-15.318,2.8-21.692-.119-10.78-3.963-12.048c-3.719-1.222-6.989,4.624-9.287,6.658s-4.274-1.308-4.274-1.308-2.642-8.99-9.875-24.684S35.2,109.877,35.2,109.877" transform="translate(-31.961 -60.602)" fill="#eaeaea"/>
      <path id="Path_39222" data-name="Path 39222" d="M97.279,245.51c-5.284-11.546-14.307-32.228-22.155-49.944s-14.961-33.734-20.18-45.307l-6.189-13.7-1.678-3.725c-.185-.423-.33-.74-.429-.978s-.139-.337-.139-.337.066.112.172.324.258.548.456.958c.41.859.991,2.1,1.744,3.7,1.513,3.21,3.659,7.88,6.295,13.653,5.284,11.546,12.431,27.558,20.272,45.267S92.292,233.831,97.51,245.4" transform="translate(-36.9 -68.116)" fill="#e0e0e0"/>
      <path id="Path_39223" data-name="Path 39223" d="M48.68,187a4.2,4.2,0,0,1,.786.271c.5.192,1.209.489,2.087.872,1.75.76,4.142,1.869,6.757,3.138l6.691,3.3,2.034.984a3.964,3.964,0,0,1,.733.39,3.964,3.964,0,0,1-.793-.264c-.5-.192-1.209-.5-2.081-.879-1.744-.812-4.115-1.949-6.757-3.19l-6.711-3.237-2.034-.971A3.448,3.448,0,0,1,48.68,187Z" transform="translate(-37.636 -86.95)" fill="#e0e0e0"/>
      <path id="Path_39224" data-name="Path 39224" d="M78.828,187.993c-.092-.04,1.982-5.073,4.624-11.229s4.862-11.143,4.954-11.1-1.982,5.073-4.624,11.229S78.941,188.032,78.828,187.993Z" transform="translate(-47.87 -79.705)" fill="#e0e0e0"/>
      <path id="Path_39225" data-name="Path 39225" d="M95.21,232.678a3.476,3.476,0,0,1,.5-.661l1.466-1.783c1.235-1.5,2.933-3.587,4.716-5.945s3.342-4.564,4.452-6.163l1.321-1.9a4.043,4.043,0,0,1,.515-.661,4.266,4.266,0,0,1-.4.753c-.277.469-.661,1.136-1.222,1.982-1.05,1.638-2.576,3.864-4.373,6.236s-3.521,4.439-4.809,5.905c-.661.733-1.176,1.321-1.552,1.711A4.445,4.445,0,0,1,95.21,232.678Z" transform="translate(-53.431 -96.648)" fill="#e0e0e0"/>
      <path id="Path_39226" data-name="Path 39226" d="M65.46,236.177a2.894,2.894,0,0,1,.779.059l2.114.291c1.777.258,4.234.661,6.942,1.09s5.159.865,6.929,1.189l2.094.4a3.434,3.434,0,0,1,.76.2,3.858,3.858,0,0,1-.766-.046l-2.107-.291c-1.783-.258-4.241-.661-6.949-1.09s-5.159-.872-6.929-1.2l-2.087-.4a3.422,3.422,0,0,1-.779-.2Z" transform="translate(-43.333 -103.642)" fill="#e0e0e0"/>
      <path id="Path_39227" data-name="Path 39227" d="M75.21,275.09a5.853,5.853,0,0,1,1,.086l2.708.363c2.285.324,5.436.786,8.911,1.321s6.605,1.044,8.9,1.427l2.688.476a4.842,4.842,0,0,1,.978.225,5.849,5.849,0,0,1-1-.086l-2.708-.363c-2.285-.317-5.436-.786-8.911-1.321s-6.605-1.044-8.9-1.427l-2.688-.476A4.844,4.844,0,0,1,75.21,275.09Z" transform="translate(-46.642 -116.853)" fill="#e0e0e0"/>
      <path id="Path_39228" data-name="Path 39228" d="M112.46,269.2a6.3,6.3,0,0,1,.621-.879l1.777-2.325c1.493-1.982,3.554-4.683,5.74-7.748s4.1-5.885,5.469-7.926l1.618-2.437a7.731,7.731,0,0,1,.661-.872,6.646,6.646,0,0,1-.515.951c-.35.594-.865,1.447-1.526,2.49-1.321,2.094-3.2,4.947-5.39,8.019s-4.287,5.767-5.833,7.7c-.779.958-1.414,1.731-1.869,2.252a6,6,0,0,1-.753.779Z" transform="translate(-59.287 -107.321)" fill="#e0e0e0"/>
    </g>
    <g id="freepik--Plant--inject-53" transform="translate(28.544 209.081)">
      <path id="Path_39229" data-name="Path 39229" d="M369.792,424a5.37,5.37,0,0,1,2.88,3.065,9.538,9.538,0,0,1,.509,4.267,16.951,16.951,0,0,1-3.349,7.926c-2.4-1.982-3.045-5.5-3.263-7.319-.343-2.873.786-8.27,3.223-7.926" transform="translate(-146.903 -340.949)" fill="#b478be"/>
      <path id="Path_39230" data-name="Path 39230" d="M375.8,450.755a4.571,4.571,0,0,1,1.321-4.406,6.084,6.084,0,0,1,4.445-1.546,2.563,2.563,0,0,1,1.982.826,1.981,1.981,0,0,1,.092,1.982,4.016,4.016,0,0,1-1.427,1.493c-1.982,1.321-4.148,2.259-6.46,1.645" transform="translate(-150.015 -348.008)" fill="#b478be"/>
      <path id="Path_39231" data-name="Path 39231" d="M371.73,460.794a3.54,3.54,0,0,1,.066-.568c.059-.4.139-.925.238-1.552a16.039,16.039,0,0,1,1.433-4.967,9.849,9.849,0,0,1,3.415-3.864,6.758,6.758,0,0,1,1.42-.661,3.731,3.731,0,0,1,.416-.119c.092,0,.145-.033.145,0a10.573,10.573,0,0,0-1.9.945,10.1,10.1,0,0,0-3.3,3.838,17.34,17.34,0,0,0-1.48,4.9c-.119.661-.218,1.176-.3,1.539a2.81,2.81,0,0,1-.152.509Z" transform="translate(-148.675 -349.453)" fill="#263238"/>
      <path id="Path_39232" data-name="Path 39232" d="M370.73,430.28a1.091,1.091,0,0,1,0,.251c0,.185.04.423.066.713.053.621.119,1.519.192,2.642.139,2.219.291,5.284.383,8.686s.1,6.467.079,8.693c0,1.11,0,2.015-.046,2.642v.713a1.241,1.241,0,0,1,0,.251v-3.607c0-2.226-.046-5.284-.139-8.686s-.218-6.467-.324-8.686c-.053-1.09-.092-1.982-.126-2.642v-.72a1.461,1.461,0,0,1-.086-.251Z" transform="translate(-148.336 -343.082)" fill="#263238"/>
      <path id="Path_39233" data-name="Path 39233" d="M365.223,452.441a10.734,10.734,0,0,0-6.1-7.676,2.263,2.263,0,0,0-2.444.04,2.207,2.207,0,0,0-.106,2.437,9.162,9.162,0,0,0,8.587,5.43" transform="translate(-143.423 -347.884)" fill="#b478be"/>
      <path id="Path_39234" data-name="Path 39234" d="M361.29,448.91a2.978,2.978,0,0,1,.5.2,5.663,5.663,0,0,1,.568.284,8.363,8.363,0,0,1,.727.423c.258.172.548.357.832.588s.588.482.9.76a11.889,11.889,0,0,1,1.711,2.074,11.512,11.512,0,0,1,1.163,2.418,9.5,9.5,0,0,1,.31,1.136,8.011,8.011,0,0,1,.172,1,8.464,8.464,0,0,1,.066.846,4.045,4.045,0,0,1,0,.66,2.748,2.748,0,0,1-.04.535c-.046,0,0-.773-.165-1.982a9.529,9.529,0,0,0-.192-.984c-.092-.324-.2-.727-.324-1.11a11.929,11.929,0,0,0-1.163-2.378,12.549,12.549,0,0,0-1.671-2.041,10.934,10.934,0,0,0-.865-.766c-.277-.238-.561-.423-.812-.6C361.983,449.247,361.27,448.969,361.29,448.91Z" transform="translate(-145.131 -349.406)" fill="#263238"/>
      <path id="Path_39235" data-name="Path 39235" d="M58.753,417.617c.608-2.365-.945-4.736-2.642-6.453s-3.818-3.25-4.716-5.516c-1.466-3.673.5-8.422-1.982-11.487-1.526-1.777-4.168-2.378-5.456-4.287a9.849,9.849,0,0,1-1.176-3.441,34.9,34.9,0,0,0-8.693-16.263A30.326,30.326,0,0,0,37.5,385.845c1.011,1.929,2.252,3.8,2.589,5.945.542,3.494-1.407,7.088-.548,10.516.978,3.924,5.383,6.546,5.595,10.569.172,3.408-2.8,6.407-2.576,9.816a9.248,9.248,0,0,0,1.513,4.043c2.642,4.386,6.513,7.4,12.392,7.306l7.193.251Z" transform="translate(-34.045 -322.677)" fill="#b478be"/>
      <g id="Group_75411" data-name="Group 75411" transform="translate(4.781 27.217)" opacity="0.3">
        <path id="Path_39236" data-name="Path 39236" d="M58.753,417.617c.608-2.365-.945-4.736-2.642-6.453s-3.818-3.25-4.716-5.516c-1.466-3.673.5-8.422-1.982-11.487-1.526-1.777-4.168-2.378-5.456-4.287a9.849,9.849,0,0,1-1.176-3.441,34.9,34.9,0,0,0-8.693-16.263A30.326,30.326,0,0,0,37.5,385.845c1.011,1.929,2.252,3.8,2.589,5.945.542,3.494-1.407,7.088-.548,10.516.978,3.924,5.383,6.546,5.595,10.569.172,3.408-2.8,6.407-2.576,9.816a9.248,9.248,0,0,0,1.513,4.043c2.642,4.386,6.513,7.4,12.392,7.306l7.193.251Z" transform="translate(-39.045 -350.17)"/>
      </g>
      <path id="Path_39237" data-name="Path 39237" d="M79.193,421.747a5.819,5.819,0,0,0,1.982-.04,12.381,12.381,0,0,0,2.338-.595,9.907,9.907,0,0,0,2.893-1.579,3.963,3.963,0,0,0,1.189-1.585,7.53,7.53,0,0,0,.337-2.147,20.3,20.3,0,0,1,.172-2.325,6.281,6.281,0,0,1,.879-2.312c.845-1.493,2.252-2.906,2.708-4.928a16.958,16.958,0,0,0-.2-6.3c-.337-2.16-.661-4.511.172-6.764s2.352-4.28,3.138-6.817.416-5.317.588-8.032a10.674,10.674,0,0,1,.931-4c.588-1.268,1.394-2.47,2.021-3.811,1.281-2.708,1.506-5.78,1.856-8.792q.251-2.279.515-4.624a22.7,22.7,0,0,1,.8-4.624,40.872,40.872,0,0,1,1.717-4.452,15.132,15.132,0,0,0,.839-2.325,24.364,24.364,0,0,0,.231-2.47,29.256,29.256,0,0,0-.192-4.98c-.2-1.658-.5-3.3-.661-4.967v-.291l-.04-.33-.291.145a11.136,11.136,0,0,0-3.877,3.27,17.668,17.668,0,0,0-2.378,4.386,54.126,54.126,0,0,0-2.239,9.419,25.928,25.928,0,0,1-2.953,8.7c-.793,1.281-1.744,2.451-2.583,3.706a10.2,10.2,0,0,0-1.783,4.1c-.423,3.045,1.255,5.72.9,8.409a9.386,9.386,0,0,1-1.321,3.739c-.661,1.149-1.42,2.213-2.147,3.3a21.548,21.548,0,0,0-1.935,3.3,10.423,10.423,0,0,0-.879,3.607c-.178,2.424.165,4.723,0,6.9a15.853,15.853,0,0,1-1.836,5.945c-.865,1.77-1.836,3.375-2.642,4.928-.4.773-.779,1.532-1.09,2.292a11.025,11.025,0,0,0-.661,2.272,14.129,14.129,0,0,0-.053,4.109,10.311,10.311,0,0,0,2.054,5.231,5.135,5.135,0,0,0,.581.661,2.835,2.835,0,0,0,.476.4c.264.2.41.291.41.291a8.957,8.957,0,0,1-1.348-1.394,10.337,10.337,0,0,1-1.982-5.2,14.05,14.05,0,0,1,.092-4.049,10.721,10.721,0,0,1,.661-2.219,19.6,19.6,0,0,1,1.1-2.259c.819-1.539,1.8-3.131,2.682-4.914a16.17,16.17,0,0,0,1.843-6.018c.185-2.219-.145-4.525.033-6.9a10.225,10.225,0,0,1,.859-3.488,20.179,20.179,0,0,1,1.909-3.25c.727-1.063,1.5-2.134,2.173-3.3a9.73,9.73,0,0,0,1.374-3.884c.343-2.873-1.321-5.562-.885-8.389a9.769,9.769,0,0,1,1.724-3.924c.819-1.229,1.783-2.4,2.589-3.712a25.826,25.826,0,0,0,3.025-8.845,52.174,52.174,0,0,1,2.226-9.34,17.036,17.036,0,0,1,2.319-4.267,10.569,10.569,0,0,1,3.712-3.138l-.337-.185v.291c.185,1.684.482,3.336.661,4.974a28.462,28.462,0,0,1,.192,4.908,23.432,23.432,0,0,1-.218,2.4,15.424,15.424,0,0,1-.806,2.239,40.1,40.1,0,0,0-1.737,4.5,23.059,23.059,0,0,0-.812,4.677c-.172,1.546-.337,3.085-.509,4.624-.343,3.025-.568,6.044-1.8,8.666-.608,1.321-1.414,2.5-1.982,3.818a11.183,11.183,0,0,0-.964,4.142c-.159,2.774.2,5.489-.548,7.926s-2.312,4.485-3.1,6.81a14.324,14.324,0,0,0-.152,6.922,16.184,16.184,0,0,1,.231,6.189c-.462,1.916-1.783,3.3-2.642,4.862a6.7,6.7,0,0,0-.885,2.431,21.247,21.247,0,0,0-.152,2.358,7.206,7.206,0,0,1-.31,2.087,3.857,3.857,0,0,1-1.116,1.5,9.815,9.815,0,0,1-2.814,1.592,13.085,13.085,0,0,1-2.305.628,9.252,9.252,0,0,1-1.466.139A4.075,4.075,0,0,0,79.193,421.747Z" transform="translate(-48.124 -309.944)" fill="#263238"/>
      <path id="Path_39238" data-name="Path 39238" d="M103.83,339.23a1.25,1.25,0,0,0-.066.218c-.046.172-.1.383-.159.661-.145.568-.31,1.42-.581,2.49s-.938,2.272-1.493,3.758-1.169,3.184-1.711,5.1-1.037,4.049-1.546,6.335a26.322,26.322,0,0,1-2.305,7.022c-.588,1.169-1.248,2.352-1.777,3.646a16.97,16.97,0,0,0-1.037,4.128,81.907,81.907,0,0,1-1.539,8.693L87.554,397.9c-1.281,5.1-2.437,9.69-3.415,13.561s-1.711,6.949-2.259,9.148c-.251,1.05-.443,1.889-.588,2.49-.059.264-.106.482-.145.661a1.136,1.136,0,0,0,0,.225,1.135,1.135,0,0,0,.079-.211c.053-.172.112-.383.185-.661.165-.6.39-1.427.661-2.47.575-2.193,1.394-5.284,2.4-9.115s2.193-8.448,3.507-13.534,2.642-10.727,4.109-16.626A83.019,83.019,0,0,0,93.6,372.64a16.369,16.369,0,0,1,1-4.029c.509-1.262,1.163-2.437,1.75-3.62a26.829,26.829,0,0,0,2.3-7.134c.509-2.272.958-4.412,1.48-6.328s1.083-3.62,1.638-5.093a38.454,38.454,0,0,0,1.427-3.8c.264-1.1.383-1.942.5-2.517.046-.271.079-.482.112-.661A.959.959,0,0,0,103.83,339.23Z" transform="translate(-50.032 -312.174)" fill="#263238"/>
      <path id="Path_39239" data-name="Path 39239" d="M69.667,410.093c4.7-2.787,6.051-11.269,4.089-16.368s-5.39-9.769-5.945-15.192c-.41-4.188.964-8.475,0-12.55-1.321-5.516-6.7-9.789-6.605-15.463.04-3.177,1.85-6.176,1.7-9.353-.178-3.9-3.171-6.989-5.027-10.423-2.834-5.284-3.019-11.474-3.963-17.366S50.7,301.163,45.478,298.27c-.773,5-2.087,8.428-1.678,15.192.152,2.431,2.979,7.094,3.362,12.431.231,3.19.39,6.381.588,9.571a30.443,30.443,0,0,0,1.506,9.175c.852,2.226,2.219,4.254,2.854,6.553,1.2,4.32-.377,9.01.588,13.389.819,3.712,3.389,6.909,3.91,10.674.74,5.284-2.688,10.78-.931,15.853.865,2.5,2.926,4.511,3.514,7.1.449,1.982-.046,4.128.37,6.143.661,3.243,6.85,5.767,10.159,5.562" transform="translate(-37.33 -298.27)" fill="#b478be"/>
      <path id="Path_39240" data-name="Path 39240" d="M48.267,305.75a1.526,1.526,0,0,0,0,.284c0,.211.066.482.106.819.112.727.231,1.783.476,3.157s.971,2.933,1.539,4.809,1.2,4.023,1.724,6.434.984,5.08,1.46,7.927a33.125,33.125,0,0,0,2.4,8.99c.661,1.5,1.4,3.005,1.982,4.624a20.668,20.668,0,0,1,.991,5.08,102,102,0,0,0,1.381,10.945c1.433,7.411,2.807,14.479,4.056,20.906L67.9,396.759c1.011,4.822,1.83,8.732,2.4,11.474.291,1.321.515,2.371.661,3.111.079.337.139.6.192.806s.066.277.079.271a1.783,1.783,0,0,0-.033-.277c-.04-.211-.086-.482-.145-.819-.139-.746-.337-1.8-.588-3.131-.542-2.748-1.321-6.665-2.252-11.5s-2.12-10.635-3.4-17.049-2.616-13.488-4.036-20.886a102.734,102.734,0,0,1-1.387-10.912,21.176,21.176,0,0,0-1.024-5.179c-.575-1.632-1.321-3.144-1.982-4.624a33.112,33.112,0,0,1-2.418-8.884c-.5-2.86-.958-5.542-1.519-7.96a65.919,65.919,0,0,0-1.8-6.44c-.594-1.883-1.321-3.422-1.612-4.769s-.416-2.418-.555-3.131c-.059-.337-.112-.608-.152-.812A1.209,1.209,0,0,0,48.267,305.75Z" transform="translate(-38.87 -300.809)" fill="#263238"/>
    </g>
    <g id="freepik--Device--inject-53" transform="translate(71.337 48.497)">
      <path id="Path_39241" data-name="Path 39241" d="M211.234,327.349H119.307A20.9,20.9,0,0,1,98.83,306.72l.978-231.526A20.12,20.12,0,0,1,120.08,55.16l92.35.429a20.107,20.107,0,0,1,20.021,20.2l-.978,231.533a20.113,20.113,0,0,1-20.239,20.028Z" transform="translate(-98.83 -55.159)" fill="#263238"/>
      <path id="Path_39242" data-name="Path 39242" d="M215.738,68.926l-17.907-.086a4.452,4.452,0,0,0-4.366,4.525v3.25A4.452,4.452,0,0,1,189.1,81.14l-34.9-.159a4.445,4.445,0,0,1-4.327-4.564v-3.25a4.452,4.452,0,0,0-4.333-4.564h-6.295l-15.675-.073a14.089,14.089,0,0,0-14.149,14.03l-.958,225.991A14.083,14.083,0,0,0,122.483,322.7l92.165.423a14.083,14.083,0,0,0,14.155-14.03l.958-226.017a14.089,14.089,0,0,0-14.023-14.149Z" transform="translate(-102.099 -59.698)" fill="#f5f5f5"/>
      <path id="Path_39243" data-name="Path 39243" d="M211.5,388.893c-.106,2.728-.2,5.284-.291,7.418h13.211L222.8,388.18Z" transform="translate(-136.978 -168.206)" fill="#f5f5f5"/>
      <path id="Path_39244" data-name="Path 39244" d="M130.19,392.706l.112,4.016h52.084c.086-2.252.185-4.756.284-7.332Z" transform="translate(-109.475 -168.617)" fill="#f5f5f5"/>
      <path id="Path_39245" data-name="Path 39245" d="M229.81,387.275l1.625,8.177h24.414l-.3-9.8Z" transform="translate(-143.292 -167.347)" fill="#f5f5f5"/>
      <path id="Path_39246" data-name="Path 39246" d="M209.811,200.907l4.617-26.759-12.088-.9v27.657Z" transform="translate(-133.967 -95.246)" fill="#f5f5f5"/>
      <path id="Path_39247" data-name="Path 39247" d="M121.778,371.92l-13.118,5.139-.04,9.294,13.548-.852Z" transform="translate(-102.153 -162.686)" fill="#f5f5f5"/>
      <path id="Path_39248" data-name="Path 39248" d="M121.742,351.437l-.72-24.922h-.007V317.73l-12.167,1.288-.159,37.519,13.046-5.113Z" transform="translate(-102.177 -144.291)" fill="#f5f5f5"/>
      <path id="Path_39249" data-name="Path 39249" d="M121.1,287.2l-12.068-1.592-.086,20.51,12.154-1.288Z" transform="translate(-102.265 -133.388)" fill="#f5f5f5"/>
      <path id="Path_39250" data-name="Path 39250" d="M255.953,318.1l-.509,7.14-14.254,1.539,1.1,5.648,16.177-1.222-.238-8.1,1.288-5.37Z" transform="translate(-147.155 -144.295)" fill="#f5f5f5"/>
      <path id="Path_39251" data-name="Path 39251" d="M224.11,334.391l11.368-.852L233,320.85l-9.921,1Z" transform="translate(-141.008 -145.35)" fill="#f5f5f5"/>
      <path id="Path_39252" data-name="Path 39252" d="M224.81,342.26l.865,10.575,1.546,14.512.628,3.171,25.966-1.638-.865-28.74Z" transform="translate(-141.595 -151.898)" fill="#f5f5f5"/>
      <path id="Path_39253" data-name="Path 39253" d="M140.836,250.893l1,1.717-20.021,11.665v27.743l21.137-1.493,40.722-4.142-1.486-18.145-38.912-5.086.258-1.982,38.49,5.027L179.5,235.462l-38.1,3.673-.126-1.321,38.113-3.666-1.321-16.038H141.4l-32.149,5.872L109.09,260.7l12.187,1.592ZM123.86,289.376s.152-22.848,0-23.7l16.342-8.693,2.12,31.224Z" transform="translate(-102.313 -110.474)" fill="#f5f5f5"/>
      <path id="Path_39254" data-name="Path 39254" d="M253.9,318.49l-14.8,1.493,1.123,5.753,13.27-1.433Z" transform="translate(-146.446 -144.549)" fill="#f5f5f5"/>
      <path id="Path_39255" data-name="Path 39255" d="M211.862,381.85c-.046,1.2-.092,2.4-.132,3.567l11.018-.694-.568-2.847Z" transform="translate(-137.155 -166.057)" fill="#f5f5f5"/>
      <path id="Path_39256" data-name="Path 39256" d="M153.372,199.121l1.942-8.8h14.8v-18.9l-46.258-3.428v17.749l-14.446,3.27-.066,15.939,31.99-5.826Z" transform="translate(-102.398 -93.461)" fill="#f5f5f5"/>
      <path id="Path_39257" data-name="Path 39257" d="M215.354,119.193l-.4-1.618,17.663-6.989L221.133,87.52a4.108,4.108,0,0,1-.661.053L201,87.48l.528,32.281Z" transform="translate(-133.513 -66.131)" fill="#f5f5f5"/>
      <path id="Path_39258" data-name="Path 39258" d="M253.419,100.554V69.059L240.545,69a4.452,4.452,0,0,0-4.366,4.525v3.25A4.624,4.624,0,0,1,234.29,80.5l11.493,23.079Z" transform="translate(-144.813 -59.858)" fill="#f5f5f5"/>
      <path id="Path_39259" data-name="Path 39259" d="M149.892,101.739,148.4,68.586h-3.574l-13.97-.066L124.91,98.172Zm-3.184-29.8.476,27L128.616,96.23l4.062-24.288Z" transform="translate(-107.683 -59.695)" fill="#f5f5f5"/>
      <path id="Path_39260" data-name="Path 39260" d="M162.983,101.9v.284c0,2.583.079,7.266.119,12.22l24.328-.991-.5-32.333L172.2,81.019a4.445,4.445,0,0,1-4.327-4.564V73.2a4.452,4.452,0,0,0-4.333-4.564H161.49l1.486,33.265Z" transform="translate(-120.1 -59.735)" fill="#f5f5f5"/>
      <path id="Path_39261" data-name="Path 39261" d="M117.816,97.914l5.892-29.354a14.07,14.07,0,0,0-13.832,14.01l-.066,14.638.066-.429Z" transform="translate(-102.557 -59.708)" fill="#f5f5f5"/>
      <path id="Path_39262" data-name="Path 39262" d="M121.908,167.3l-12.372-.918-.086,20.047,12.458-2.814Z" transform="translate(-102.435 -92.914)" fill="#f5f5f5"/>
      <path id="Path_39263" data-name="Path 39263" d="M117.612,113.36l-7.874-1.13-.139,32.459,1.7.125Z" transform="translate(-102.486 -74.532)" fill="#f5f5f5"/>
      <path id="Path_39264" data-name="Path 39264" d="M148.969,354.795l.211-26.065L128.36,330.2l.74,25.53Z" transform="translate(-108.854 -148.025)" fill="#f5f5f5"/>
      <path id="Path_39265" data-name="Path 39265" d="M164.837,346.666l29.487,14.122c.357-9.248.661-17.835.661-18.409h.661l.317-.621c.416.211.416.211.2,6.5-.126,3.507-.3,8.177-.476,12.854h10.133l-1.5-14.162-1.982-24.44-38.516,3.884Z" transform="translate(-120.891 -145.914)" fill="#f5f5f5"/>
      <path id="Path_39266" data-name="Path 39266" d="M256.419,291.835l-.337-3.435-35.332,3.673,1.486,18.105,30.51-3.078Z" transform="translate(-140.217 -134.335)" fill="#f5f5f5"/>
      <path id="Path_39267" data-name="Path 39267" d="M193.78,204.8h-13.2l-1.506,6.817h14.71Z" transform="translate(-126.068 -105.956)" fill="#f5f5f5"/>
      <path id="Path_39268" data-name="Path 39268" d="M248.821,207.105l-33.06-2.285-1.321,7.808,1.394,16.949,34.863-3.349Zm-31.845,5.509,1.777-4.928,28.714,1.816,1.691,14.1-31.178,3.7Z" transform="translate(-138.075 -105.963)" fill="#f5f5f5"/>
      <path id="Path_39269" data-name="Path 39269" d="M253.006,254.208l-1.453-14.988-34.883,3.356,1.314,15.952Z" transform="translate(-138.832 -117.64)" fill="#f5f5f5"/>
      <path id="Path_39270" data-name="Path 39270" d="M122.2,394.466l-13.534.852-.053-.879-.02,4h13.719Z" transform="translate(-102.143 -170.331)" fill="#f5f5f5"/>
      <path id="Path_39271" data-name="Path 39271" d="M282.391,93.154l.2.5.046-10.377A14.089,14.089,0,0,0,268.613,69.13H264.22v31.224Z" transform="translate(-154.973 -59.902)" fill="#f5f5f5"/>
      <path id="Path_39272" data-name="Path 39272" d="M182.634,363.525l-30.088-14.413-1.063-20.662-1.255.132-.218,26.745-20.51.971v.6h0l.4,13.785,52.572-3.3Q182.568,365.45,182.634,363.525ZM130.788,358l28.707-2.015,18.674,8.666-47.381,2.563Z" transform="translate(-109.241 -147.93)" fill="#f5f5f5"/>
      <path id="Path_39273" data-name="Path 39273" d="M269.879,144.761l1.235-7.266c-10.793-3.851-11.54-15.107-11.507-18.5l-7.048,2.787,10.608,21.289Z" transform="translate(-151.015 -76.83)" fill="#f5f5f5"/>
      <path id="Path_39274" data-name="Path 39274" d="M219.957,283.526,234.628,282l-2.887-12.96L218.9,270.625Z" transform="translate(-139.589 -127.763)" fill="#f5f5f5"/>
      <path id="Path_39275" data-name="Path 39275" d="M249.719,174.858l-27.4-.007-2.272-.172-3.1,17.947,32.525,2.246-.753-7.8,3.2-11.52Z" transform="translate(-138.927 -95.732)" fill="#f5f5f5"/>
      <path id="Path_39276" data-name="Path 39276" d="M251.612,154.477l.343-8.587-10.767-21.62-16.7,6.605,5.74,23.6Zm-11.077-27.551L250.4,145.7l-1.427,5.846-16.883-.661-4.221-17.755Z" transform="translate(-141.486 -78.619)" fill="#f5f5f5"/>
      <path id="Path_39277" data-name="Path 39277" d="M272,322.693l.509,16.817,11.87-.667.04.661-11.89.667.6,20.133,11.229-.707.079,1.314-11.269.713.3,10.014h10.939l.238-56.139-11.19,1.13Z" transform="translate(-157.614 -143.534)" fill="#f5f5f5"/>
      <path id="Path_39278" data-name="Path 39278" d="M146.609,117.973l-25.14-3.613-6.288,31.323,31.541,2.338C146.846,143.186,146.767,128.41,146.609,117.973Z" transform="translate(-104.38 -75.255)" fill="#f5f5f5"/>
      <path id="Path_39279" data-name="Path 39279" d="M217.359,158.588h3.8L215.78,136.48l-13.99.575.337,20.4Z" transform="translate(-133.781 -82.764)" fill="#f5f5f5"/>
      <path id="Path_39280" data-name="Path 39280" d="M108.49,424.83v0Z" transform="translate(-102.109 -180.647)" fill="#f5f5f5"/>
      <path id="Path_39281" data-name="Path 39281" d="M163.9,155.885l24.7,1.83-.33-20.325-24.3.991C163.966,145.257,164.006,152.589,163.9,155.885Z" transform="translate(-120.919 -83.073)" fill="#f5f5f5"/>
      <path id="Path_39282" data-name="Path 39282" d="M260.89,264.9l-21.56,2.655,2.9,12.973,19.968-2.081Z" transform="translate(-146.524 -126.358)" fill="#f5f5f5"/>
      <path id="Path_39283" data-name="Path 39283" d="M275.185,132.958l1.381-8.2,5.945.462.079-17.643-18.356,7.266C263.857,127.225,271.658,131.591,275.185,132.958Z" transform="translate(-154.973 -72.954)" fill="#f5f5f5"/>
      <path id="Path_39284" data-name="Path 39284" d="M270.12,188.326l.746,7.735,13.449.931.066-15.932-11.256-3.56Z" transform="translate(-156.976 -96.689)" fill="#f5f5f5"/>
      <path id="Path_39285" data-name="Path 39285" d="M277.987,292.072l-3.527,14.684,11.024-1.116.066-15.391c-3.382-.892-6.335-1.618-7.926-1.929Z" transform="translate(-158.449 -134.308)" fill="#f5f5f5"/>
      <path id="Path_39286" data-name="Path 39286" d="M268.54,166.331l15.318,4.842.04-8.713L268.85,158.57Z" transform="translate(-156.44 -90.263)" fill="#f5f5f5"/>
      <path id="Path_39287" data-name="Path 39287" d="M277.479,268.875a80.018,80.018,0,0,1,8.125,1.883l.145-33.688-11.229,1.083Z" transform="translate(-158.47 -116.91)" fill="#f5f5f5"/>
      <path id="Path_39288" data-name="Path 39288" d="M273.343,227.2l11.375-1.1.066-16.56-13.244-.918Z" transform="translate(-157.458 -107.256)" fill="#f5f5f5"/>
      <path id="Path_39289" data-name="Path 39289" d="M282.74,142.88q3.23.978,6.018,1.532v-8.356l-4.842-.377Z" transform="translate(-161.26 -82.493)" fill="#f5f5f5"/>
      <path id="Path_39290" data-name="Path 39290" d="M280.73,154.79l7.312,1.9.033-7.557a62,62,0,0,1-6.13-1.559Z" transform="translate(-160.578 -86.529)" fill="#f5f5f5"/>
      <path id="Path_39291" data-name="Path 39291" d="M228.987,277.076l-.079-1.321-11.229.707-.6-20.133,11.89-.661-.04-.661-11.89.661-.489-16.811,1.46-6.064,11.19-1.13V231l-11.024,1.116,3.527-14.657-.363-3.752c1.592.31,4.545,1.037,7.926,1.929v-2.061c-4.551-1.2-6.889-1.7-8.125-1.883l-2.972-30.7L229.4,179.91v-1.321l-11.375,1.1-1.8-18.574,13.211.918v-1.982l-13.449-.931-.746-7.735,3.005-10.826,11.229,3.56v-3.461l-15.318-4.835.31-7.768,15.047,3.891V129.9l-7.312-1.9,1.215-7.22q3.289.991,6.13,1.559v-.661q-2.787-.555-6.018-1.532l1.209-7.2,4.842.377v-1.321l-5.945-.462-1.255,8.158c-3.527-1.321-11.328-5.7-10.952-18.112l18.356-7.266v-.839l-.2-.5-18.152,7.18V68.94h-.661v31.495l-7.649,3.025L191.627,80.38a4.188,4.188,0,0,1-1.843.746l11.487,23.066-17.663,6.922.4,1.618-13.871.568-.482-32.254h-.661l.528,32.307-24.328.991c-.04-4.98-.092-9.637-.119-12.22v-.258h0l-1.493-33.252h-.661l1.493,33.153-24.988-3.587,5.945-29.652h-2.021L117.422,97.9,109.5,96.768l-.066.429v.231l7.874,1.13-6.315,31.455-1.7-.126v3.3l12.372.918v16.315L109.2,153.238v2.034L123.651,152V134.234l46.238,3.428v18.9h-14.8l-1.955,8.8H141.1l-31.99,5.819v2.028l32.142-5.866h36.647l1.321,16.038-38.093,3.7.126,1.321,38.1-3.666,2.523,30.735-38.49-5.027-.258,1.982,38.912,5.086,1.486,18.1-40.736,4.115-21.137,1.493V213.5l20.021-11.678-1-1.717-19.545,11.414-12.187-1.612v1.982L121,213.5v17.63l-12.154,1.321v1.982l12.167-1.321V241.9h0l.72,24.922h0l-13.046,5.113v2.127l13.118-5.139.39,13.581-13.548.852v.443l.053.879,13.534-.852.112,3.963h.661l-.112-4.016,52.48-3.3c-.1,2.576-.2,5.08-.284,7.332h1.321c.086-2.127.185-4.69.291-7.418l11.328-.713,1.618,8.131h.661l-1.625-8.178L214.449,278l.3,9.8h3.3m-41.284-8.746c.04-1.169.086-2.365.132-3.567h10.318l.568,2.847Zm11.678-.74-.661-3.171-1.539-14.532-.865-10.569,28.139-2.12.865,28.74Zm6.4-43.186,14.809-1.493-.416,5.813-13.27,1.433Zm-.661.066,2.477,12.689-11.368.852-1.03-12.55ZM213.5,246.619l-16.2,1.229-1.1-5.648,14.254-1.539.5-7.14,3.574-.363-1.281,5.357Zm-19.156-45.643,2.887,12.96-14.7,1.546-1.057-12.9Zm3.554,12.894L195,200.9l21.56-2.642,1.321,13.548Zm14.842-55.03-32.525-2.246,3.1-17.947,2.272.172H213l2.167.7-3.2,11.52Zm-1.982-57.018c-.033,3.4.713,14.657,11.507,18.5l-1.242,7.312-6.711-1.731-10.608-21.289Zm-8.891,3.514,10.76,21.633-.343,8.587H190.907l-5.74-23.575Zm-17.689,8.078,5.364,22.141h-3.8l-15.232-1.13-.337-20.4Zm-14.651.6.33,20.325-24.7-1.83c.106-3.3.086-10.628,0-17.5ZM119.271,98.822l25.14,3.613c.126,10.437.238,25.226.112,30.048l-31.541-2.338Zm63.372,39.8-4.624,26.759h-7.484V137.7Zm-25.972,19.922h13.211v6.817H155.165Zm21.831,7.821,1.321-7.808,33.06,2.285,1.85,19.123-34.863,3.349Zm36.383,14.915,1.453,14.988-35.009,4.32-1.321-15.952ZM182.7,217.462l35.332-3.673.337,3.435-3.673,15.265-30.51,3.052Zm2.893,43.265,1.5,14.162H176.917c.178-4.677.35-9.347.476-12.854.218-6.288.218-6.288-.2-6.5l-.317.621h-.661c0,.548-.284,9.182-.661,18.409l-29.473-14.122-1.044-20.3,38.516-3.884Zm-43.107-20.3-.2,26.065-19.869.938-.74-25.53Zm-20.041,28.278h0v-.6l20.51-.971.218-26.745,1.255-.132,1.063,20.662,30.088,14.413c-.046,1.281-.1,2.569-.145,3.851l-52.572,3.3Z" transform="translate(-102.163 -59.698)" fill="#fff"/>
      <path id="Path_39292" data-name="Path 39292" d="M160.157,370.14l-28.707,2.015v9.215l47.387-2.569Z" transform="translate(-109.903 -162.082)" fill="#ebebeb"/>
      <path id="Path_39293" data-name="Path 39293" d="M248.771,210.976l-28.714-1.816-1.777,4.928.971,14.684,31.178-3.7Z" transform="translate(-139.378 -107.436)" fill="#ebebeb"/>
      <path id="Path_39294" data-name="Path 39294" d="M108.556,387.25l-.066,24.823v5.06a14.076,14.076,0,0,0,14,13.726l92.165.423a14.083,14.083,0,0,0,14.155-14.03l.092-30Z" transform="translate(-102.109 -167.89)" fill="#ebebeb"/>
      <path id="Path_39295" data-name="Path 39295" d="M149.088,100.7l-.476-27H134.589L130.52,97.988Z" transform="translate(-109.587 -61.453)" fill="#ebebeb"/>
      <path id="Path_39296" data-name="Path 39296" d="M250.714,152.858l1.427-5.846-9.868-18.773-12.663,6.229,4.221,17.755Z" transform="translate(-143.224 -79.967)" fill="#ebebeb"/>
      <path id="Path_39297" data-name="Path 39297" d="M131.45,285.613c.152.852,0,23.7,0,23.7l18.5-1.169-2.12-31.224Z" transform="translate(-109.903 -130.438)" fill="#ebebeb"/>
      <path id="Path_39298" data-name="Path 39298" d="M224.148,308.8l-.978-14.162,31.66-4.069v2.444L251,306.033Z" transform="translate(-141.038 -135.071)" fill="#ebebeb"/>
      <path id="Path_39299" data-name="Path 39299" d="M229.894,293.683l-.4-9.248-27.829,1.321a4.214,4.214,0,0,1-2.107-.449l-39.467-19.876a2.86,2.86,0,0,1-1.565-2.4l-5.37-104.187a1.731,1.731,0,0,1,.522-1.321A1.75,1.75,0,0,1,155,157.03l16.91,1.255v-18.5h1.982v18.746a1.737,1.737,0,0,1-.555,1.281,1.757,1.757,0,0,1-1.321.462l-16.9-1.255,5.364,103.923a.885.885,0,0,0,.476.74l39.474,19.928a2.16,2.16,0,0,0,1.11.238l28.06-1.361a1.724,1.724,0,0,1,1.268.456,1.744,1.744,0,0,1,.568,1.215l.4,9.466Z" transform="translate(-117.272 -83.888)" fill="#fff"/>
      <path id="Path_39300" data-name="Path 39300" d="M253.035,120.618a3.851,3.851,0,1,1-1.128-2.73,3.858,3.858,0,0,1,1.128,2.73Z" transform="translate(-148.557 -76.07)" fill="#905b99"/>
      <g id="Group_75412" data-name="Group 75412" transform="translate(95.313 39.24)" opacity="0.6">
        <circle id="Ellipse_491" data-name="Ellipse 491" cx="3.858" cy="3.858" r="3.858" transform="matrix(0.851, -0.525, 0.525, 0.851, 0, 4.047)" fill="#fff"/>
      </g>
      <path id="Path_39301" data-name="Path 39301" d="M252.359,121.083a2.57,2.57,0,1,1-2.569-2.563A2.57,2.57,0,0,1,252.359,121.083Z" transform="translate(-149.202 -76.668)" fill="#905b99"/>
      <path id="Path_39302" data-name="Path 39302" d="M251.041,289.119l-.476-10.82a.588.588,0,0,0-.614-.561l-29.024,1.532-3.494-44.018L213,184.548V184.5l4.961-27.082a2.147,2.147,0,0,1,2.107-1.764l26.243-.086a1.876,1.876,0,0,0,1.869-1.757l.449-7.266a5.436,5.436,0,0,0-.528-2.7L237.85,122.464l.6-.284L248.7,143.568a6.117,6.117,0,0,1,.588,3.025l-.449,7.266a2.543,2.543,0,0,1-2.53,2.371l-26.243.086a1.48,1.48,0,0,0-1.46,1.222l-4.947,27.036,4.366,50.6,3.448,43.384,28.4-1.473a1.2,1.2,0,0,1,.9.317,1.222,1.222,0,0,1,.41.865l.476,10.826Z" transform="translate(-137.586 -77.91)" fill="#905b99"/>
      <path id="Path_39303" data-name="Path 39303" d="M271.623,372.735a1.651,1.651,0,1,1-1.645-1.645A1.651,1.651,0,0,1,271.623,372.735Z" transform="translate(-156.365 -162.405)" fill="#905b99"/>
      <path id="Path_39304" data-name="Path 39304" d="M223.613,326.708a1.546,1.546,0,1,1-.526-1.063,1.546,1.546,0,0,1,.526,1.063Z" transform="translate(-140.14 -146.849)" fill="#c886d3"/>
      <path id="Path_39305" data-name="Path 39305" d="M221.742,329.427a2.794,2.794,0,0,0-2.6,2.979l5.575-.383a2.794,2.794,0,0,0-2.979-2.6Z" transform="translate(-139.67 -148.259)" fill="#c886d3"/>
      <path id="Path_39306" data-name="Path 39306" d="M248.277,302.6H234.564a2.094,2.094,0,0,0-2.094,2.094v8.587a2.087,2.087,0,0,0,2.094,2.087h.277v2.054l2.378-2.054h11.057a2.087,2.087,0,0,0,2.094-2.087v-8.587A2.094,2.094,0,0,0,248.277,302.6Z" transform="translate(-144.195 -139.155)" fill="#ff725e"/>
      <g id="Group_75413" data-name="Group 75413" transform="translate(88.275 163.445)" opacity="0.4">
        <path id="Path_39307" data-name="Path 39307" d="M248.277,302.6H234.564a2.094,2.094,0,0,0-2.094,2.094v8.587a2.087,2.087,0,0,0,2.094,2.087h.277v2.054l2.378-2.054h11.057a2.087,2.087,0,0,0,2.094-2.087v-8.587A2.094,2.094,0,0,0,248.277,302.6Z" transform="translate(-232.47 -302.6)" fill="#c886d3"/>
      </g>
      <path id="Path_39308" data-name="Path 39308" d="M241.313,311.724v1.123h-.462V311.71l-1.321-2.12h.5l1.044,1.717,1.044-1.717h.462Z" transform="translate(-146.592 -141.528)" fill="#fff"/>
      <path id="Path_39309" data-name="Path 39309" d="M244,311.974a1.288,1.288,0,1,1,1.288,1.262A1.229,1.229,0,0,1,244,311.974Zm2.114,0a.832.832,0,1,0-.793.892.806.806,0,0,0,.812-.892Z" transform="translate(-148.109 -141.891)" fill="#fff"/>
      <path id="Path_39310" data-name="Path 39310" d="M251.135,310.79v2.464h-.423v-.344a.991.991,0,0,1-.839.4.964.964,0,0,1-1.057-1.07v-1.42h.443v1.367c0,.482.244.727.661.727a.727.727,0,0,0,.766-.819v-1.275Z" transform="translate(-149.742 -141.935)" fill="#fff"/>
      <ellipse id="Ellipse_492" data-name="Ellipse 492" cx="0.172" cy="0.991" rx="0.172" ry="0.991" transform="translate(22.604 230.14)" fill="#263238"/>
      <ellipse id="Ellipse_493" data-name="Ellipse 493" cx="0.172" cy="0.991" rx="0.172" ry="0.991" transform="translate(22.604 234.103)" fill="#263238"/>
      <ellipse id="Ellipse_494" data-name="Ellipse 494" cx="0.172" cy="0.991" rx="0.172" ry="0.991" transform="translate(22.604 238.066)" fill="#263238"/>
      <ellipse id="Ellipse_495" data-name="Ellipse 495" cx="0.172" cy="0.991" rx="0.172" ry="0.991" transform="translate(22.604 242.029)" fill="#263238"/>
      <ellipse id="Ellipse_496" data-name="Ellipse 496" cx="0.172" cy="0.713" rx="0.172" ry="0.713" transform="translate(22.604 245.993)" fill="#263238"/>
      <path id="Path_39311" data-name="Path 39311" d="M134.675,433.424a2.807,2.807,0,1,0-5.225,1.42h0c.106.185.244.31.377.5l1.632,2.16a.509.509,0,0,0,.812,0l1.6-2.12a6.6,6.6,0,0,0,.436-.555h0a2.8,2.8,0,0,0,.37-1.407Zm-2.807,1.222a1.235,1.235,0,1,1,1.235-1.235,1.235,1.235,0,0,1-1.235,1.235Z" transform="translate(-109.092 -182.609)" fill="#455a64"/>
      <path id="Path_39312" data-name="Path 39312" d="M208.507,436.632c0,.092-14.241.172-31.8.172s-31.8-.079-31.8-.172,14.235-.172,31.8-.172S208.507,436.539,208.507,436.632Z" transform="translate(-114.472 -184.595)" fill="#263238"/>
      <path id="Path_39313" data-name="Path 39313" d="M183.379,432.412c0,.092-8.627.172-19.261.172s-19.268-.079-19.268-.172,8.62-.172,19.268-.172S183.379,432.313,183.379,432.412Z" transform="translate(-114.452 -183.163)" fill="#635eff"/>
      <path id="Path_39314" data-name="Path 39314" d="M155.4,441.4a38.368,38.368,0,0,1-5.093.172,38.509,38.509,0,0,1-5.1-.172,37.212,37.212,0,0,1,5.1-.172,37.068,37.068,0,0,1,5.093.172Z" transform="translate(-114.574 -186.206)" fill="#263238"/>
      <path id="Path_39315" data-name="Path 39315" d="M134.675,400.274a2.807,2.807,0,1,0-5.225,1.42h0c.106.178.244.31.377.5l1.632,2.153a.509.509,0,0,0,.812,0l1.6-2.12a6.6,6.6,0,0,0,.41-.542h0a2.787,2.787,0,0,0,.4-1.414Zm-2.807,1.222a1.235,1.235,0,1,1,1.235-1.235A1.235,1.235,0,0,1,131.867,401.5Z" transform="translate(-109.092 -171.356)" fill="#635eff"/>
      <path id="Path_39316" data-name="Path 39316" d="M221.936,403.482c0,.1-17.247.172-38.516.172s-38.51-.073-38.51-.172,17.24-.172,38.51-.172S221.936,403.389,221.936,403.482Z" transform="translate(-114.472 -173.342)" fill="#263238"/>
      <path id="Path_39317" data-name="Path 39317" d="M199.378,399.262c0,.1-12.207.172-27.261.172s-27.267-.073-27.267-.172,12.207-.172,27.267-.172S199.378,399.169,199.378,399.262Z" transform="translate(-114.452 -171.91)" fill="#635eff"/>
      <path id="Path_39318" data-name="Path 39318" d="M175.093,408.262c0,.093-6.685.172-14.935.172s-14.948-.079-14.948-.172,6.691-.172,14.948-.172S175.093,408.169,175.093,408.262Z" transform="translate(-114.574 -174.965)" fill="#263238"/>
    </g>
    <g id="freepik--speech-bubble--inject-53" transform="translate(270.203 79.026)">
      <path id="Path_39319" data-name="Path 39319" d="M418.828,142.426l-3.012-6.7a17.1,17.1,0,1,1,6.11-.608h0Z" transform="translate(-399.966 -101.445)" fill="#fff"/>
      <path id="Path_39320" data-name="Path 39320" d="M418.757,142.359c.225-.555,1.136-2.761,3.025-7.345l.079.119H421.2l.661-.185a17.022,17.022,0,0,0,7.543-4.571,15.194,15.194,0,0,0,1.678-2.087c.251-.383.515-.773.766-1.176l.661-1.281a16.9,16.9,0,0,0-8.983-22.9,16.632,16.632,0,0,0-7.748-1.143,16.956,16.956,0,0,0-7.57,2.484,17.339,17.339,0,0,0-5.4,5.4,16.566,16.566,0,0,0-2.457,6.79,17.128,17.128,0,0,0,3.177,12.293,18.415,18.415,0,0,0,3.963,3.864,16.982,16.982,0,0,0,8.25,2.979h.079v.046c1.83,4.214,2.7,6.209,2.933,6.738-.244-.522-1.156-2.5-3.085-6.671l.066.046a16.976,16.976,0,0,1-8.369-2.953,18.317,18.317,0,0,1-4.062-3.9,17.359,17.359,0,0,1-3.27-12.491,16.917,16.917,0,0,1,2.49-6.929,17.174,17.174,0,0,1,13.211-8.045,16.943,16.943,0,0,1,7.867,1.209A17.485,17.485,0,0,1,429.874,107a17.276,17.276,0,0,1,2.827,18.984c-.225.436-.456.865-.661,1.321a8.39,8.39,0,0,1-.779,1.189,14.718,14.718,0,0,1-1.717,2.107,17.062,17.062,0,0,1-7.669,4.571v-.165h.145l-.053.126C419.952,139.618,418.994,141.811,418.757,142.359Z" transform="translate(-399.895 -101.378)" fill="#263238"/>
      <path id="Path_39321" data-name="Path 39321" d="M430.387,123.184a6.434,6.434,0,1,0-11.976,3.25h0c.244.416.555.713.865,1.149l3.732,4.947a1.163,1.163,0,0,0,1.856,0l3.673-4.868a13.641,13.641,0,0,0,.931-1.235h0a6.367,6.367,0,0,0,.918-3.243Zm-6.427,2.8a2.842,2.842,0,1,0-.02,0Z" transform="translate(-405.878 -106.59)" fill="#905b99"/>
    </g>
    <g id="freepik--Character--inject-53" transform="translate(176.773 84.303)">
      <path id="Path_39322" data-name="Path 39322" d="M351.51,113.748c.594-2.2,2.252-3.3,4.412-4.023a7.107,7.107,0,0,1,6.487,1.057c1.215.918,2.167,2.266,3.607,2.768,2.371.826,5.152-.951,7.431.112a3.237,3.237,0,0,1-1.532,6.169,2.878,2.878,0,0,1,1.123,4.155,4.31,4.31,0,0,1-4.386,1.592,9.063,9.063,0,0,1-4.247-2.385c-1.222-1.1-2.325-2.352-3.633-3.349a7.074,7.074,0,0,0-4.545-1.671,6.489,6.489,0,0,0-5.139,3.8,16.064,16.064,0,0,0-1.321,6.513,25.973,25.973,0,0,1-.826,6.605c-.079.251-.2.528-.449.608-.357.112-.661-.271-.845-.608a32.783,32.783,0,0,1-3.745-12.174c-.251-2.47-.185-4.809,1.169-6.889s4.789-3.607,6.473-2.3" transform="translate(-287.418 -109.367)" fill="#263238"/>
      <path id="Path_39323" data-name="Path 39323" d="M348.4,125.645l-1.143,25c-.192,4.254.39,10.569,7.127,10.569h0c5.846-.436,7.57-5.9,7.748-9.868.086-1.883.159-3.455.178-3.646,0,0,6.394-.3,7.14-6.605.363-3.032.594-9.347.74-15.054a11.777,11.777,0,0,0-10.562-12.022l-.608-.066C352.447,113.643,348.5,119.059,348.4,125.645Z" transform="translate(-288.586 -110.919)" fill="#ffbe9d"/>
      <path id="Path_39324" data-name="Path 39324" d="M365.96,163.217A14.7,14.7,0,0,1,358,160s1.453,4.729,7.788,4.835Z" transform="translate(-292.243 -126.555)" fill="#eb996e"/>
      <path id="Path_39325" data-name="Path 39325" d="M378.573,138.851a.9.9,0,0,1-.964.812.865.865,0,0,1-.839-.9.912.912,0,0,1,.964-.819.865.865,0,0,1,.839.912Z" transform="translate(-298.614 -119.065)" fill="#263238"/>
      <path id="Path_39326" data-name="Path 39326" d="M377.582,136.1c-.125.106-.746-.469-1.717-.568s-1.724.3-1.816.178.092-.258.423-.449a2.49,2.49,0,0,1,1.473-.291,2.351,2.351,0,0,1,1.321.6C377.562,135.831,377.641,136.055,377.582,136.1Z" transform="translate(-297.683 -118.053)" fill="#263238"/>
      <path id="Path_39327" data-name="Path 39327" d="M364.176,137.82a.9.9,0,0,1-.958.812.859.859,0,0,1-.839-.9.9.9,0,0,1,.958-.819.865.865,0,0,1,.839.912Z" transform="translate(-293.729 -118.715)" fill="#263238"/>
      <path id="Path_39328" data-name="Path 39328" d="M363.172,134.842c-.119.106-.746-.469-1.711-.568s-1.731.31-1.823.178.092-.258.423-.449a2.49,2.49,0,0,1,1.473-.291,2.4,2.4,0,0,1,1.321.6C363.172,134.558,363.238,134.8,363.172,134.842Z" transform="translate(-292.791 -117.626)" fill="#263238"/>
      <path id="Path_39329" data-name="Path 39329" d="M369.16,142.675a6.051,6.051,0,0,1,1.6-.119c.251,0,.489,0,.548-.185a1.321,1.321,0,0,0-.086-.753c-.172-.621-.343-1.268-.528-1.982a31.9,31.9,0,0,1-1.116-5.086,32.7,32.7,0,0,1,1.519,4.987c.172.661.343,1.321.5,1.982a1.427,1.427,0,0,1,0,.984.614.614,0,0,1-.443.317,1.559,1.559,0,0,1-.423,0,6.665,6.665,0,0,1-1.565-.145Z" transform="translate(-296.031 -117.915)" fill="#263238"/>
      <path id="Path_39330" data-name="Path 39330" d="M363.711,129.268c-.119.251-1.07,0-2.219.046s-2.1.225-2.226,0c-.053-.119.132-.35.528-.568a3.8,3.8,0,0,1,1.691-.4,3.752,3.752,0,0,1,1.7.383C363.572,128.918,363.757,129.149,363.711,129.268Z" transform="translate(-292.67 -115.811)" fill="#263238"/>
      <path id="Path_39331" data-name="Path 39331" d="M377.639,131.786c-.192.2-.832-.1-1.632-.192s-1.493,0-1.625-.258c-.059-.119.073-.324.39-.5a2.279,2.279,0,0,1,1.367-.218,2.253,2.253,0,0,1,1.262.581C377.659,131.449,377.725,131.687,377.639,131.786Z" transform="translate(-297.8 -116.571)" fill="#263238"/>
      <path id="Path_39332" data-name="Path 39332" d="M346.68,138.6c-.1-.059-4.181-1.737-4.5,2.576s4.076,3.745,4.089,3.62S346.68,138.6,346.68,138.6Z" transform="translate(-286.868 -119.164)" fill="#ffbe9d"/>
      <path id="Path_39333" data-name="Path 39333" d="M345.613,143.777a1.332,1.332,0,0,1-.211.092.733.733,0,0,1-.561,0,1.856,1.856,0,0,1-.733-1.731,2.4,2.4,0,0,1,.291-1.063.865.865,0,0,1,.608-.535.377.377,0,0,1,.423.238c.053.126,0,.211.04.218s.1-.059.079-.244a.528.528,0,0,0-.152-.284.561.561,0,0,0-.41-.139,1.07,1.07,0,0,0-.832.608,2.563,2.563,0,0,0-.35,1.189,1.982,1.982,0,0,0,.958,1.942.806.806,0,0,0,.694-.066C345.6,143.883,345.626,143.784,345.613,143.777Z" transform="translate(-287.419 -119.877)" fill="#eb996e"/>
      <path id="Path_39334" data-name="Path 39334" d="M371.833,124.4a9.148,9.148,0,0,1-7.874-2.642c-1.394-1.46-2.371-3.455-4.227-4.247a5.132,5.132,0,0,0-3.963.119,9.988,9.988,0,0,0-3.25,2.4c.879,3.3-.317,6.8-1.5,10.034a1.731,1.731,0,0,1-.608.938c-.548.337-1.275-.046-1.671-.561a5.337,5.337,0,0,1-.865-2.926,17.722,17.722,0,0,1,.779-6.962,12.114,12.114,0,0,1,3.963-5.727,11.46,11.46,0,0,1,8.323-2.173,14.043,14.043,0,0,1,7.808,3.772,8.25,8.25,0,0,1,2.318,3.3" transform="translate(-288.783 -110.449)" fill="#263238"/>
      <path id="Path_39335" data-name="Path 39335" d="M368.07,150.45a4.346,4.346,0,0,1-.555,1.09,1.446,1.446,0,0,1-1.03.6,1.321,1.321,0,0,1-1.1-.6,2.107,2.107,0,0,1-.3-1.248c0-.4.2-.865.588-.912a.931.931,0,0,1,.476.106l2.061.832" transform="translate(-294.644 -122.949)" fill="#eb996e"/>
      <path id="Path_39336" data-name="Path 39336" d="M367.117,152.028a2.986,2.986,0,0,1-1.1-.139,1.618,1.618,0,0,1-.832-.753,1.671,1.671,0,0,1,0-1.321,1.605,1.605,0,0,1,.185-.31c.079-.086.066-.079.152-.066a2.706,2.706,0,0,1,.33.126c.112.04.231.1.337.139.443.178.839.337,1.176.462a3.838,3.838,0,0,0,1.123.337,3.7,3.7,0,0,0-1.017-.575c-.324-.159-.713-.337-1.149-.535l-.33-.145a3.085,3.085,0,0,0-.377-.159.535.535,0,0,0-.3,0,.561.561,0,0,0-.231.185,1.645,1.645,0,0,0-.231.39,1.922,1.922,0,0,0,.066,1.645,1.737,1.737,0,0,0,1.044.845,1.665,1.665,0,0,0,.892,0C367.031,152.114,367.13,152.048,367.117,152.028Z" transform="translate(-294.517 -122.843)" fill="#263238"/>
      <path id="Path_39337" data-name="Path 39337" d="M420.189,422.78,425,436.744s15.807-.2,16.949,2.292l-26.745,10.311-8.389-21.454Z" transform="translate(-308.815 -215.758)" fill="#4a5746"/>
      <path id="Path_39338" data-name="Path 39338" d="M420.92,446.9a1.169,1.169,0,0,0-.271,1.539,1.123,1.123,0,0,0,1.519.284,1.242,1.242,0,0,0,.284-1.632,1.169,1.169,0,0,0-1.618-.119" transform="translate(-313.45 -223.878)" fill="#e0e0e0"/>
      <g id="Group_75414" data-name="Group 75414" transform="translate(105.634 222.36)" opacity="0.6">
        <path id="Path_39339" data-name="Path 39339" d="M419.13,457.229l-.76-2.193L444.3,446s1.394.059,1.579.951Z" transform="translate(-418.37 -446)" fill="#fff"/>
      </g>
      <path id="Path_39340" data-name="Path 39340" d="M433.932,443.437c.046.132-.581.443-1.063,1.11s-.608,1.321-.753,1.321-.231-.832.363-1.632S433.919,443.3,433.932,443.437Z" transform="translate(-317.366 -222.755)" fill="#263238"/>
      <path id="Path_39341" data-name="Path 39341" d="M439.213,443.567c.079.119-.4.555-.661,1.281s-.132,1.354-.264,1.4-.5-.661-.2-1.559S439.16,443.442,439.213,443.567Z" transform="translate(-319.391 -222.806)" fill="#263238"/>
      <path id="Path_39342" data-name="Path 39342" d="M443.969,446.388c-.112.079-.542-.509-.482-1.321s.561-1.367.661-1.281-.139.614-.178,1.321S444.095,446.329,443.969,446.388Z" transform="translate(-321.261 -222.885)" fill="#263238"/>
      <path id="Path_39343" data-name="Path 39343" d="M431.325,438.75c0,.139-.661.192-1.394.522s-1.209.793-1.321.707.264-.766,1.116-1.149S431.351,438.618,431.325,438.75Z" transform="translate(-316.206 -221.126)" fill="#263238"/>
      <path id="Path_39344" data-name="Path 39344" d="M271.707,420l-.3.39-5.793,7.537-7.167,4.914,9.6,18.5h10.569s-.76-2.543-5.846-3.858l-.337-10.146,9.129-10.027" transform="translate(-258.45 -214.814)" fill="#4a5746"/>
      <g id="Group_75415" data-name="Group 75415" transform="translate(0 217.003)" opacity="0.6">
        <path id="Path_39345" data-name="Path 39345" d="M258.45,438.934l9.6,18.489,10.569.013-1.189-1.592-8.594-.476-8.858-17.478Z" transform="translate(-258.45 -437.89)" fill="#fff"/>
      </g>
      <path id="Path_39346" data-name="Path 39346" d="M278.451,454.25c-.079.112-.661-.238-1.506-.211s-1.414.357-1.5.251.5-.707,1.493-.72S278.57,454.171,278.451,454.25Z" transform="translate(-264.217 -226.209)" fill="#263238"/>
      <path id="Path_39347" data-name="Path 39347" d="M278.228,450.169c-.106.079-.581-.548-1.42-.713s-1.519.218-1.585.112.086-.225.383-.39a1.982,1.982,0,0,1,2.418.489C278.234,449.932,278.274,450.143,278.228,450.169Z" transform="translate(-264.138 -224.645)" fill="#263238"/>
      <path id="Path_39348" data-name="Path 39348" d="M278.507,445.2c-.112.059-.476-.555-1.209-.806s-1.4,0-1.453-.139.106-.2.4-.31a1.817,1.817,0,0,1,1.2,0,1.85,1.85,0,0,1,.945.753C278.586,444.978,278.586,445.176,278.507,445.2Z" transform="translate(-264.351 -222.908)" fill="#263238"/>
      <path id="Path_39349" data-name="Path 39349" d="M282.938,441.216c-.126.04-.423-.561-1.077-.984s-1.321-.489-1.321-.621.779-.3,1.579.231S283.063,441.2,282.938,441.216Z" transform="translate(-265.949 -221.425)" fill="#263238"/>
      <g id="Group_75416" data-name="Group 75416" transform="translate(5.925 216.481)" opacity="0.6">
        <path id="Path_39350" data-name="Path 39350" d="M269.93,438.355a1.255,1.255,0,1,1-1.255-1.255A1.255,1.255,0,0,1,269.93,438.355Z" transform="translate(-267.42 -437.1)" fill="#fff"/>
      </g>
      <path id="Path_39351" data-name="Path 39351" d="M331.8,302.631l32.677,47.889L382.14,392.4l14.961-8-15.126-41.938L359.754,298.41Z" transform="translate(-283.349 -173.539)" fill="#263238"/>
      <path id="Path_39352" data-name="Path 39352" d="M297.106,298.41l-5.449,38.549L269.35,385.6l13.283,7.728L311,345.117l15.747-46.707Z" transform="translate(-262.15 -173.539)" fill="#263238"/>
      <path id="Path_39353" data-name="Path 39353" d="M289.46,395.5a1.083,1.083,0,0,1,.119-.231c.086-.165.211-.39.37-.661.337-.6.826-1.46,1.447-2.55,1.281-2.226,3.118-5.416,5.39-9.347l17.887-30.761,3.336-5.72v.033l9.809-29.533c1.242-3.7,2.246-6.678,2.946-8.752l.806-2.358.218-.608a1.136,1.136,0,0,1,.086-.2,2.209,2.209,0,0,1-.053.218l-.192.614-.753,2.378-2.84,8.785c-2.451,7.464-5.859,17.835-9.7,29.572h0L315,352.1c-7.015,11.989-13.369,22.835-17.973,30.715-2.312,3.9-4.181,7.074-5.482,9.287-.661,1.077-1.156,1.922-1.506,2.517l-.4.661a1.921,1.921,0,0,1-.172.225Z" transform="translate(-268.977 -175.712)" fill="#455a64"/>
      <path id="Path_39354" data-name="Path 39354" d="M352.731,230.685l-1.1-16.547-4.188-39.012L348.926,167l-16.513-6.605-1.982,3.963c-9.908,1.493-14.089,21.065-14.089,21.065l-.343,39.8-11,26.976,2.854,2.517c4.511,2.708,46.542,1,46.542,1Z" transform="translate(-274.252 -126.687)" fill="#c886d3"/>
      <g id="Group_75417" data-name="Group 75417" transform="translate(34.956 106.742)" opacity="0.3">
        <path id="Path_39355" data-name="Path 39355" d="M311.37,279.377a52.294,52.294,0,0,0,9.974,9.651c2.054,1.539,4.485,3,7.015,2.6s4.267-2.411,5.872-4.307l9.03-10.648a4.38,4.38,0,0,0,1.169-2.034,2.814,2.814,0,0,0-1.268-2.609,6.077,6.077,0,0,0-2.873-.945c-6.341-.753-12.55,2.4-18.924,2.451-2.18,0-5.733-.416-7.794.3l-2.2,5.542" transform="translate(-311.37 -270.964)"/>
      </g>
      <path id="Path_39356" data-name="Path 39356" d="M331.134,229.945a9.756,9.756,0,0,1,1.222,12.471l-5.648,8.263-8.2,10.714a6.44,6.44,0,0,1-9.631.661l-37.38-28.8a5.588,5.588,0,0,1-1.143-7.669L285.55,204.2a5.588,5.588,0,0,1,7.808-1.321Z" transform="translate(-262.14 -140.756)" fill="#455a64"/>
      <path id="Path_39357" data-name="Path 39357" d="M320.476,265.085a.711.711,0,0,1,.1-.2l.33-.561c.3-.489.746-1.2,1.321-2.114,1.182-1.816,2.933-4.432,5.1-7.649s4.776-7.028,7.6-11.308a27.871,27.871,0,0,0,1.982-3.369,4.287,4.287,0,0,0,.423-1.889,3.3,3.3,0,0,0-.713-1.81,15.031,15.031,0,0,0-3.237-2.642l-3.574-2.536L305.119,213.4l-7.431-5.416-2.041-1.447-.522-.39c-.112-.092-.172-.139-.165-.145a1.526,1.526,0,0,1,.185.119l.542.357,2.054,1.427,7.524,5.284,24.75,17.524,3.574,2.543a15.66,15.66,0,0,1,3.3,2.735,3.607,3.607,0,0,1,.773,1.982,4.664,4.664,0,0,1-.449,2.048,28.911,28.911,0,0,1-2.028,3.4c-2.84,4.28-5.476,8.072-7.662,11.275C323.138,261.089,320.476,265.085,320.476,265.085Z" transform="translate(-270.843 -142.17)" fill="#263238"/>
      <path id="Path_39358" data-name="Path 39358" d="M341.376,168.129s-10.615-5.615-26.646,19.816l2.84,3.3s13.389-23.542,22.234-20.695-4.142,39.956-4.142,39.956S355.122,173.519,341.376,168.129Z" transform="translate(-277.555 -129.135)" fill="#263238"/>
      <path id="Path_39359" data-name="Path 39359" d="M299.322,198.076a13.819,13.819,0,0,0-1.856,17.128c.125.192.244.37.37.542l14.446,22.419,12.088-7.451h0L312.645,209.49s5.443-5.615,11.361-11.929c7.973-8.514,16.461-18.958,10.377-24.955,0,0-4.142-3.3-10.516,1.645C319.257,177.784,306.2,191.028,299.322,198.076Z" transform="translate(-270.965 -130.467)" fill="#c886d3"/>
      <path id="Path_39360" data-name="Path 39360" d="M411.462,185.163l6.295-1.565s1.7,1.526.819,3.1a60.061,60.061,0,0,0-2.358,5.562l-4.868,1.572-1.374,3.963-8.376-3.574,2.246-7.431,4.7-5.813,3.54-.542,2.385,2.021s-1.982,1.447-3.3-.112l-1.625.628.145.978a1.473,1.473,0,0,0,1.777,1.209Z" transform="translate(-307.044 -133.493)" fill="#ffbe9d"/>
      <path id="Path_39361" data-name="Path 39361" d="M426,184.553l4.115-1.982a1.678,1.678,0,0,1,1.552.3l.2.429-4.928,3.223Z" transform="translate(-315.326 -134.191)" fill="#ffbe9d"/>
      <path id="Path_39362" data-name="Path 39362" d="M412.9,191.569a4.2,4.2,0,0,1,.423-1.044,5.825,5.825,0,0,0,.628-2.543,3.078,3.078,0,0,0-.363-1.361,3.964,3.964,0,0,1-.284-.614,1.7,1.7,0,0,1-.079-.6,3.263,3.263,0,0,1,.139-1.136,4.894,4.894,0,0,1,.106,1.123,2.048,2.048,0,0,0,.4,1.077,3.118,3.118,0,0,1,.429,1.5,5.245,5.245,0,0,1-.753,2.642,3.21,3.21,0,0,1-.641.958Z" transform="translate(-310.879 -134.793)" fill="#eb996e"/>
      <path id="Path_39363" data-name="Path 39363" d="M431.317,172.58c.059.119.912,1.387.912,1.387l-18.773,13.819-1.176-1.5Z" transform="translate(-310.669 -130.825)" fill="#263238"/>
      <path id="Path_39364" data-name="Path 39364" d="M420.608,196.972a1.03,1.03,0,0,0-.31-1.453,2.887,2.887,0,0,0-1.618-.37,11.943,11.943,0,0,0-2.748.152,1.79,1.79,0,0,0-.832.344.753.753,0,0,0-.264.806c.132.35.548.476.9.548a12.728,12.728,0,0,0,2.959.231" transform="translate(-311.526 -138.479)" fill="#ffbe9d"/>
      <path id="Path_39365" data-name="Path 39365" d="M418.613,197.146a4.921,4.921,0,0,1-1.764.066,5.577,5.577,0,0,1-.892-.1,2.563,2.563,0,0,1-1.037-.3.806.806,0,0,1-.363-.561.912.912,0,0,1,.192-.661,1.79,1.79,0,0,1,1.169-.568,10.5,10.5,0,0,1,2.365-.126,3.679,3.679,0,0,1,1.916.383,1.229,1.229,0,0,1,.575,1.189c-.059.33-.244.429-.251.416a1.009,1.009,0,0,0,.119-.429,1.123,1.123,0,0,0-.568-.971,3.672,3.672,0,0,0-1.8-.271,12.006,12.006,0,0,0-2.292.145,1.552,1.552,0,0,0-.964.436.489.489,0,0,0,.079.753,2.551,2.551,0,0,0,.9.284c.31.059.6.106.865.139C417.939,197.107,418.613,197.093,418.613,197.146Z" transform="translate(-311.44 -138.395)" fill="#eb996e"/>
      <path id="Path_39366" data-name="Path 39366" d="M422.857,191.573c-1.5-.363-2.57-.515-4.069-.885a2.365,2.365,0,0,0-1.48-.04c-.469.192-.76.845-.416,1.215a1.182,1.182,0,0,0,.456.271l4.478,1.757" transform="translate(-312.184 -136.925)" fill="#ffbe9d"/>
      <path id="Path_39367" data-name="Path 39367" d="M421.738,193.8a10.153,10.153,0,0,1-1.75-.555l-1.83-.694-1.1-.429a.826.826,0,0,1-.509-.535.951.951,0,0,1,.132-.746,1.1,1.1,0,0,1,.568-.469,1.757,1.757,0,0,1,.661-.086,7.85,7.85,0,0,1,1.176.238l1.935.449a8.514,8.514,0,0,1,1.764.509,12.246,12.246,0,0,1-1.816-.271c-.555-.1-1.222-.211-1.982-.377a7.305,7.305,0,0,0-1.123-.211.958.958,0,0,0-.938.4.66.66,0,0,0-.092.476.515.515,0,0,0,.324.317l1.077.436,1.836.76a9.382,9.382,0,0,1,1.671.786Z" transform="translate(-312.108 -136.835)" fill="#eb996e"/>
      <path id="Path_39368" data-name="Path 39368" d="M424.332,188.135l-4.056-.733a2.378,2.378,0,0,0-1.486.053c-.449.225-.694.892-.33,1.242a1.215,1.215,0,0,0,.469.238l4.584,1.473" transform="translate(-312.707 -135.824)" fill="#ffbe9d"/>
      <path id="Path_39369" data-name="Path 39369" d="M423.426,190.33a9.637,9.637,0,0,1-1.777-.436l-1.9-.568-1.123-.35a.852.852,0,0,1-.555-.489.958.958,0,0,1,.066-.753,1.083,1.083,0,0,1,.528-.515,1.513,1.513,0,0,1,.661-.139,5.82,5.82,0,0,1,1.189.159l1.942.39a9.962,9.962,0,0,1,1.777.443,9.509,9.509,0,0,1-1.816-.2l-1.982-.317a5.945,5.945,0,0,0-1.13-.132.925.925,0,0,0-.892.469c-.443.806.773.865,1.4,1.136l1.876.661a10.121,10.121,0,0,1,1.731.647Z" transform="translate(-312.62 -135.747)" fill="#eb996e"/>
      <path id="Path_39370" data-name="Path 39370" d="M396.554,196.868l-12.22,26.1a7.993,7.993,0,0,1-6.222,4.545h0a7.993,7.993,0,0,1-8.336-4.729l-9.115-20.873,5.179-22.524,12.22,26.27,10.014-14.188Z" transform="translate(-293.146 -133.137)" fill="#c886d3"/>
      <path id="Path_39371" data-name="Path 39371" d="M381.6,227.826a32.833,32.833,0,0,1,1.579-4.624,34.875,34.875,0,0,1,1.9-4.472,33.162,33.162,0,0,1-1.579,4.624A34.88,34.88,0,0,1,381.6,227.826Z" transform="translate(-300.254 -146.491)" fill="#263238"/>
      <path id="Path_39372" data-name="Path 39372" d="M374.8,237.909a4.255,4.255,0,0,1-.073-.555c-.033-.4-.086-.938-.145-1.612-.125-1.44-.3-3.461-.509-5.945-.436-5.047-1.037-11.962-1.7-19.6s-1.381-14.578-1.935-19.585c-.284-2.477-.515-4.492-.661-5.945-.079-.661-.145-1.215-.192-1.612a3.032,3.032,0,0,1-.04-.568s.046.192.112.555.145.931.251,1.605c.2,1.394.482,3.415.786,5.912.614,5,1.321,11.923,2.034,19.578s1.235,14.591,1.6,19.611c.165,2.49.3,4.518.4,5.945.04.661.066,1.222.086,1.625a2.851,2.851,0,0,1-.013.588Z" transform="translate(-296.163 -134.189)" fill="#263238"/>
      <path id="Path_39373" data-name="Path 39373" d="M331.713,263.4l1.592,3.3a21.217,21.217,0,0,1,4.465.984c1.308.608,6,4.7,6,4.7a1.552,1.552,0,0,1-1.8.826A24.287,24.287,0,0,1,339,271.227h0a1.585,1.585,0,0,0-1.057,2.437c.938,1.4,2.015,3.032,2.12,3.3a17.613,17.613,0,0,0,3.739,1.757,1.05,1.05,0,0,1-.165,1.982.482.482,0,0,1-.277,0s.753,1.585-1.982,1.13c0,0-1.81,1.235-3.217.476a10.027,10.027,0,0,1-3.725.2c-1.143-.383-5.879-7.061-5.879-7.061l-4.122-7.464Z" transform="translate(-280.851 -161.655)" fill="#ffbe9d"/>
      <path id="Path_39374" data-name="Path 39374" d="M341.93,281.53a4.927,4.927,0,0,0,.542,1.321,7.484,7.484,0,0,0,2.147,2.754,6.711,6.711,0,0,0,3.27,1.09,4.565,4.565,0,0,0,1.414,0,5.945,5.945,0,0,0-1.381-.231,7.557,7.557,0,0,1-3.085-1.136,8.441,8.441,0,0,1-2.134-2.563,6.282,6.282,0,0,0-.773-1.235Z" transform="translate(-286.788 -167.809)" fill="#eb996e"/>
      <path id="Path_39375" data-name="Path 39375" d="M339.89,283.86a2.774,2.774,0,0,0,.429,1.248,9.1,9.1,0,0,0,.746,1.222,4.466,4.466,0,0,0,1.268,1.242,7.552,7.552,0,0,0,1.632.608l1.321.35a4.585,4.585,0,0,0,1.268.244,4.287,4.287,0,0,0-1.189-.5c-.377-.132-.826-.284-1.321-.436a8.192,8.192,0,0,1-1.546-.6,4.36,4.36,0,0,1-1.176-1.13,11.385,11.385,0,0,1-.793-1.136A8.912,8.912,0,0,0,339.89,283.86Z" transform="translate(-286.096 -168.6)" fill="#eb996e"/>
      <path id="Path_39376" data-name="Path 39376" d="M337.734,286.739a10.241,10.241,0,0,0,1.823,2.642,1.387,1.387,0,0,0,.588.416,4.81,4.81,0,0,0,.575.218,5.858,5.858,0,0,0,1,.225c.581.073.951,0,.945-.046a6.049,6.049,0,0,0-.9-.218,7.7,7.7,0,0,1-.938-.291,4.548,4.548,0,0,1-.535-.218,1.169,1.169,0,0,1-.449-.317c-.555-.7-1.077-1.321-1.46-1.737S337.774,286.72,337.734,286.739Z" transform="translate(-285.36 -169.577)" fill="#eb996e"/>
      <path id="Path_39377" data-name="Path 39377" d="M366.4,168.83a21.016,21.016,0,0,1-.489,3.256,21.663,21.663,0,0,1-.661,3.237,19.354,19.354,0,0,1,1.149-6.493Z" transform="translate(-294.702 -129.552)" fill="#263238"/>
      <path id="Path_39378" data-name="Path 39378" d="M359.31,170.007a5.284,5.284,0,0,1,.41-1.856,5.383,5.383,0,0,1,.746-1.75,5.575,5.575,0,0,1-.416,1.856A5.284,5.284,0,0,1,359.31,170.007Z" transform="translate(-292.688 -128.727)" fill="#263238"/>
      <path id="Path_39379" data-name="Path 39379" d="M353.65,167.471a4.625,4.625,0,0,1,.661-1.645,4.532,4.532,0,0,1,.958-1.486,4.531,4.531,0,0,1-.661,1.645,4.71,4.71,0,0,1-.958,1.486Z" transform="translate(-290.766 -128.028)" fill="#263238"/>
      <path id="Path_39380" data-name="Path 39380" d="M346.22,166.285a8.62,8.62,0,0,1,1.321-1.982,8.444,8.444,0,0,1,1.579-1.783A8.224,8.224,0,0,1,347.8,164.5,8.442,8.442,0,0,1,346.22,166.285Z" transform="translate(-288.244 -127.41)" fill="#263238"/>
      <path id="Path_39381" data-name="Path 39381" d="M317.281,227.842a12.553,12.553,0,0,1-1.1-.8,9.908,9.908,0,0,0-6.084-1.79,10.017,10.017,0,0,1-1.321.073,3.751,3.751,0,0,1,1.321-.317,8.725,8.725,0,0,1,3.3.31,8.62,8.62,0,0,1,2.939,1.532,3.712,3.712,0,0,1,.938.991Z" transform="translate(-275.535 -148.608)" fill="#263238"/>
      <path id="Path_39382" data-name="Path 39382" d="M316.28,216.54a4.294,4.294,0,0,1,1.057.938,11,11,0,0,1,2.768,6.169,4.082,4.082,0,0,1,0,1.414,14.532,14.532,0,0,0-3.818-8.521Z" transform="translate(-278.081 -145.748)" fill="#263238"/>
      <path id="Path_39383" data-name="Path 39383" d="M333.256,238.37a2.8,2.8,0,0,1-.258-.4l-.694-1.182-2.517-4.412c-2.12-3.785-5.053-9.016-8.369-14.922l-.059-.112.086-.092,2.563-2.7,13.561-14.2,4.135-4.28,1.136-1.149a4.093,4.093,0,0,1,.416-.383,4.212,4.212,0,0,1-.363.436l-1.09,1.189-4.062,4.353c-3.468,3.673-8.224,8.706-13.482,14.261l-2.57,2.7v-.2c3.3,5.945,6.176,11.176,8.27,14.974,1.017,1.876,1.843,3.389,2.431,4.465l.661,1.209a2.392,2.392,0,0,1,.2.429Z" transform="translate(-279.805 -138.283)" fill="#263238"/>
      <g id="Group_75418" data-name="Group 75418" transform="translate(47.123 58.942)" opacity="0.3">
        <path id="Path_39384" data-name="Path 39384" d="M329.79,213.105l4.716,3.382a5.159,5.159,0,0,0,1.711-1.453,49.032,49.032,0,0,0,7.636-16.434Z" transform="translate(-329.79 -198.6)"/>
      </g>
      <path id="Path_39385" data-name="Path 39385" d="M333.694,203.352a6.606,6.606,0,0,0-.766-2.51,7.266,7.266,0,0,0-1.869-2.12,12.345,12.345,0,0,0-3.072-1.671c-1.163-.469-2.318-.793-3.349-1.209a6.368,6.368,0,0,1-2.464-1.605,3.581,3.581,0,0,1-.9-1.77,1.427,1.427,0,0,1,0-.727,2.813,2.813,0,0,0,.126.7,3.8,3.8,0,0,0,.945,1.632,6.387,6.387,0,0,0,2.4,1.48c1,.39,2.173.7,3.356,1.176a12.266,12.266,0,0,1,3.144,1.744,7.087,7.087,0,0,1,1.883,2.259,5.284,5.284,0,0,1,.581,1.9A1.983,1.983,0,0,1,333.694,203.352Z" transform="translate(-279.761 -137.329)" fill="#f5f5f5"/>
      <path id="Path_39386" data-name="Path 39386" d="M362.981,210.942a7.172,7.172,0,0,1-.885-.059,15.984,15.984,0,0,0-2.385,0c-1.011.073-2.2.244-3.527.449a30.036,30.036,0,0,1-4.373.423,10.166,10.166,0,0,1-4.327-.845,6.962,6.962,0,0,1-2.748-2.325,4.894,4.894,0,0,1-.845-2.279,3.08,3.08,0,0,1,0-.661c0-.152,0-.225.04-.225s0,.317.092.872a5.066,5.066,0,0,0,.918,2.153,6.8,6.8,0,0,0,2.682,2.173,9.974,9.974,0,0,0,4.188.786,30.967,30.967,0,0,0,4.327-.39c1.321-.185,2.536-.337,3.56-.376a13.21,13.21,0,0,1,2.411.1,3.237,3.237,0,0,1,.872.2Z" transform="translate(-287.448 -141.973)" fill="#f5f5f5"/>
      <path id="Path_39387" data-name="Path 39387" d="M377.056,204.459A7.127,7.127,0,0,1,372.28,208a27.909,27.909,0,0,0,2.57-1.526C376.164,205.489,376.97,204.4,377.056,204.459Z" transform="translate(-297.091 -141.646)" fill="#f5f5f5"/>
      <path id="Path_39388" data-name="Path 39388" d="M379.179,211.2a9.776,9.776,0,0,1-6.189,4.386,29.681,29.681,0,0,0,3.309-1.876,29,29,0,0,0,2.88-2.51Z" transform="translate(-297.332 -143.935)" fill="#f5f5f5"/>
      <path id="Path_39389" data-name="Path 39389" d="M360.539,221.582a9.941,9.941,0,0,0-3.838-1.2,27.262,27.262,0,0,0-4.406,0,30.1,30.1,0,0,1-5.443-.04,24.334,24.334,0,0,1-9.373-3.038,22.461,22.461,0,0,1-2.5-1.658,5.987,5.987,0,0,1-.832-.72,7.334,7.334,0,0,1,.912.614A29.607,29.607,0,0,0,337.6,217.1a25.431,25.431,0,0,0,9.287,2.913,32.248,32.248,0,0,0,5.4.059,25.629,25.629,0,0,1,4.445.059,8.844,8.844,0,0,1,2.887.845,4.848,4.848,0,0,1,.7.416A.829.829,0,0,1,360.539,221.582Z" transform="translate(-284.147 -145.201)" fill="#f5f5f5"/>
      <path id="Path_39390" data-name="Path 39390" d="M328.776,207.943a1.982,1.982,0,0,1-.145.456l-.046.125-.053-.126a4.783,4.783,0,0,0-2.134-2.2,10.567,10.567,0,0,0-2.266-.9c-.852-.258-1.8-.476-2.748-.819a12.55,12.55,0,0,1-5.231-3.633,10.813,10.813,0,0,1-1.123-1.579,2.325,2.325,0,0,1-.31-.661c.053-.04.528.865,1.618,2.061a13.211,13.211,0,0,0,5.172,3.481c.925.337,1.863.561,2.728.832a9.963,9.963,0,0,1,2.305.971,4.5,4.5,0,0,1,2.094,2.4h-.1A2.722,2.722,0,0,1,328.776,207.943Z" transform="translate(-277.551 -139.66)" fill="#f5f5f5"/>
    </g>
    <g id="freepik--Floor--inject-53" transform="translate(17.84 320.68)">
      <path id="Path_39391" data-name="Path 39391" d="M321.834,467.392c0,.093-68.036.172-151.991.172s-152-.079-152-.172,68.036-.172,152-.172S321.834,467.3,321.834,467.392Z" transform="translate(-17.84 -467.22)" fill="#263238"/>
    </g>
  </g>
</svg>
