<svg id="Component_96_2" data-name="Component 96 – 2" xmlns="http://www.w3.org/2000/svg" xmlns:xlink="http://www.w3.org/1999/xlink" width="430" height="430" viewBox="0 0 430 430">
  <defs>
    <radialGradient id="radial-gradient" cx="0.5" cy="0.5" r="0.5" gradientUnits="objectBoundingBox">
      <stop offset="0" stop-color="#fff"/>
      <stop offset="1" stop-color="#fff"/>
    </radialGradient>
    <linearGradient id="linear-gradient" x1="-0.036" y1="1.34" x2="1.191" y2="-0.444" gradientUnits="objectBoundingBox">
      <stop offset="0.02" stop-color="#fff" stop-opacity="0"/>
      <stop offset="1" stop-color="#f9a825"/>
    </linearGradient>
    <linearGradient id="linear-gradient-2" x1="-0.036" y1="1.339" x2="1.191" y2="-0.445" xlink:href="#linear-gradient"/>
    <linearGradient id="linear-gradient-4" x1="0.053" y1="1.331" x2="0.985" y2="-0.439" xlink:href="#linear-gradient"/>
    <linearGradient id="linear-gradient-5" x1="-0.036" y1="1.339" x2="1.191" y2="-0.444" xlink:href="#linear-gradient"/>
  </defs>
  <rect id="Rectangle_18153" data-name="Rectangle 18153" width="430" height="430" fill="url(#radial-gradient)"/>
  <g id="money_illustration" data-name="money illustration" transform="translate(20.006 89.154)">
    <g id="Layer_2" data-name="Layer 2" transform="translate(-0.006 -0.008)">
      <g id="Layer_1" data-name="Layer 1" transform="translate(0 0)">
        <g id="Group_75667" data-name="Group 75667">
          <ellipse id="Ellipse_522" data-name="Ellipse 522" cx="164.164" cy="7.823" rx="164.164" ry="7.823" transform="translate(29.929 236.061)" fill="#e9ecf2"/>
          <path id="Path_40220" data-name="Path 40220" d="M121.029,230.43c-28.487-8.833-67.051-53.017-51.383-96.088,8.917-24.506,36.911-26.332,58.912-30.4,30.578-5.657,44.338-23.65,64.593-45.8C215.781,33.4,267.177,4.5,312.633,43.013c12.241,10.37,14.192,30.429,29.987,44.505,15.887,14.16,36.6,14.225,45.925,42.256,7.264,21.843-24.008,67.284-45.2,80.825-39.192,25.046-158.078,39.746-222.321,19.831Z" transform="translate(-35.28 -12.971)" fill="#f5f5f5"/>
          <g id="Group_75633" data-name="Group 75633" transform="translate(239.315 63.856)">
            <g id="Group_75614" data-name="Group 75614" transform="translate(82.551 63.219)">
              <path id="Path_40221" data-name="Path 40221" d="M742.135,273.13c0,.163-.009.321-.014.484-.456,19.8-3.292,35.113-7.352,46.945l-10.523,5.8,8.451-.857.242-.023c-5.238,12.963-11.972,21.163-18.2,26.336a43.681,43.681,0,0,1-10.551,6.579q-.293.133-.587.251c-.484.2-.95.382-1.392.54h-5.62c-.065-.265-.121-.526-.177-.792-.037-.168-.075-.331-.107-.5-.051-.219-.093-.438-.14-.657-5.29-25.875,4.125-45.8,15.79-59.741a1.029,1.029,0,0,1,.116-.14,99.053,99.053,0,0,1,12.46-12.344l2.147,6.44.82-8.819a97.37,97.37,0,0,1,14.295-9.331c.224-.116.335-.172.335-.172Z" transform="translate(-693.066 -273.023)" fill="#aa75b3"/>
              <path id="Path_40222" data-name="Path 40222" d="M742.851,273.11l-.2.377-12.772,23.5-.228.414-3.483,6.407-.116.214L714.941,324.45l-.014.028-18.094,33.288-.27.5-.433.792h-.489l.424-.792.629-1.155,17.857-32.85.331-.61,27.44-50.475.154-.275Z" transform="translate(-693.59 -272.9)" fill="#fff"/>
              <rect id="Rectangle_18189" data-name="Rectangle 18189" width="17.345" height="0.377" transform="matrix(0.852, -0.523, 0.523, 0.852, 32.396, 31.03)" fill="#fff"/>
              <rect id="Rectangle_18190" data-name="Rectangle 18190" width="13.597" height="0.377" transform="matrix(0.852, -0.523, 0.523, 0.852, 35.933, 24.309)" fill="#fff"/>
              <rect id="Rectangle_18191" data-name="Rectangle 18191" width="0.377" height="27.347" transform="matrix(0.997, -0.077, 0.077, 0.997, 18.884, 24.351)" fill="#fff"/>
              <path id="Path_40223" data-name="Path 40223" d="M693.475,424.816s12.959,6.975,32.45-3.311l-5.979-3.231,9.983.927c7.646-4.777,16.157-12.218,25.181-23.617l-2.282-1.229,3.027.279q2.284-2.926,4.61-6.2a73.476,73.476,0,0,0-13.508-.279l-4.363,5.3,1.425-5.061c-16.353,1.611-40.422,8.88-50.549,36.417Z" transform="translate(-692.431 -334.399)" fill="#c886d3"/>
              <rect id="Rectangle_18192" data-name="Rectangle 18192" width="76.462" height="0.424" transform="translate(0 88.931) rotate(-27.31)" fill="#fff"/>
              <rect id="Rectangle_18193" data-name="Rectangle 18193" width="0.396" height="9.499" transform="translate(50.312 63.523) rotate(-81.12)" fill="#fff"/>
              <rect id="Rectangle_18194" data-name="Rectangle 18194" width="0.396" height="11.194" transform="translate(45.652 65.842) rotate(-76.9)" fill="#fff"/>
              <path id="Path_40224" data-name="Path 40224" d="M729.2,404.462l-.312-.391a58.2,58.2,0,0,1,20.618-10.351l.135.48A57.672,57.672,0,0,0,729.2,404.462Z" transform="translate(-711.358 -337.462)" fill="#2e4882"/>
            </g>
            <path id="Path_40225" data-name="Path 40225" d="M615.8,142.252V312.79a4.311,4.311,0,0,1-4.312,4.312H527.662a4.314,4.314,0,0,1-4.312-4.312V142.252a4.311,4.311,0,0,1,4.312-4.312H611.49A4.308,4.308,0,0,1,615.8,142.252Z" transform="translate(-518.973 -137.563)" fill="#5c3362"/>
            <g id="Group_75615" data-name="Group 75615" transform="translate(0.382 0.377)" opacity="0.5">
              <path id="Path_40226" data-name="Path 40226" d="M607.222,142.252V312.79a4.311,4.311,0,0,1-4.312,4.312H519.082a4.314,4.314,0,0,1-4.312-4.312V142.252a4.311,4.311,0,0,1,4.312-4.312H602.91A4.308,4.308,0,0,1,607.222,142.252Z" transform="translate(-514.77 -137.94)" fill="#83498c"/>
            </g>
            <path id="Path_40227" data-name="Path 40227" d="M608.154,179.462V314.636a4.833,4.833,0,0,1-4.666,4.982H533.066a4.833,4.833,0,0,1-4.666-4.982V179.462a4.833,4.833,0,0,1,4.666-4.982h70.422A4.833,4.833,0,0,1,608.154,179.462Z" transform="translate(-521.672 -157.089)" fill="#eedaf2"/>
            <path id="Path_40228" data-name="Path 40228" d="M611.85,154.639h-23.3a.414.414,0,1,1,0-.829h23.3a.414.414,0,1,1,0,.829Z" transform="translate(-553.595 -146.043)" fill="#2e4882"/>
            <rect id="Rectangle_18195" data-name="Rectangle 18195" width="50.568" height="11.063" rx="5.532" transform="translate(21.321 106.574)" fill="#d268cc"/>
            <path id="Path_40229" data-name="Path 40229" d="M602.078,319.466H529.853a5.891,5.891,0,0,1-5.783-5.983V178.313a5.894,5.894,0,0,1,5.783-5.983h72.224a5.891,5.891,0,0,1,5.783,5.983V313.487a5.894,5.894,0,0,1-5.783,5.983ZM529.853,174.328a3.9,3.9,0,0,0-3.786,3.986V313.487a3.9,3.9,0,0,0,3.786,3.986h72.224a3.9,3.9,0,0,0,3.786-3.986V178.313a3.9,3.9,0,0,0-3.786-3.986Z" transform="translate(-519.358 -155.94)" fill="#fff"/>
            <g id="Group_75618" data-name="Group 75618" transform="translate(10.765 41.101)">
              <rect id="Rectangle_18196" data-name="Rectangle 18196" width="71.745" height="47.956" rx="5.37" fill="#c886d3"/>
              <g id="Group_75616" data-name="Group 75616" transform="translate(5.364 29.312)">
                <rect id="Rectangle_18197" data-name="Rectangle 18197" width="13.368" height="3.665" rx="1.45" fill="#fff"/>
                <rect id="Rectangle_18198" data-name="Rectangle 18198" width="13.368" height="3.665" rx="1.45" transform="translate(15.883)" fill="#fff"/>
                <rect id="Rectangle_18199" data-name="Rectangle 18199" width="13.368" height="3.665" rx="1.45" transform="translate(31.766)" fill="#fff"/>
                <rect id="Rectangle_18200" data-name="Rectangle 18200" width="13.368" height="3.665" rx="1.45" transform="translate(47.648)" fill="#fff"/>
              </g>
              <rect id="Rectangle_18201" data-name="Rectangle 18201" width="17.457" height="3.665" rx="1.77" transform="translate(48.924 36.478)" fill="#fff"/>
              <path id="Path_40230" data-name="Path 40230" d="M555.14,248.084v-4.81a1.907,1.907,0,0,1,1.9-1.9h9.345a1.907,1.907,0,0,1,1.9,1.9v4.81a1.907,1.907,0,0,1-1.9,1.9h-9.345A1.907,1.907,0,0,1,555.14,248.084Zm1.9-6.207a1.4,1.4,0,0,0-1.4,1.4v4.81a1.4,1.4,0,0,0,1.4,1.4h9.345a1.4,1.4,0,0,0,1.4-1.4v-4.81a1.4,1.4,0,0,0-1.4-1.4Z" transform="translate(-546.726 -233.934)" fill="#fff"/>
              <g id="Group_75617" data-name="Group 75617" transform="translate(61.892 2.9)">
                <path id="Path_40231" data-name="Path 40231" d="M674.87,239.805a.226.226,0,0,1,.07-.163,5.4,5.4,0,0,0,0-7.622.23.23,0,0,1,.326-.326,5.862,5.862,0,0,1,0,8.279.233.233,0,0,1-.326,0,.226.226,0,0,1-.07-.163Z" transform="translate(-672.598 -231.628)" fill="#fff"/>
                <path id="Path_40232" data-name="Path 40232" d="M672.38,234.707a.226.226,0,0,1,.07-.163.233.233,0,0,1,.326,0,3.982,3.982,0,0,1,0,5.625.23.23,0,1,1-.326-.326,3.524,3.524,0,0,0,0-4.973A.226.226,0,0,1,672.38,234.707Z" transform="translate(-671.267 -233.15)" fill="#fff"/>
                <path id="Path_40233" data-name="Path 40233" d="M669.99,240.193a.226.226,0,0,1,.07-.163,1.773,1.773,0,0,0,0-2.51.23.23,0,1,1,.326-.326,2.237,2.237,0,0,1,0,3.166.233.233,0,0,1-.326,0,.226.226,0,0,1-.07-.163Z" transform="translate(-669.99 -234.567)" fill="#fff"/>
              </g>
            </g>
            <g id="Group_75619" data-name="Group 75619">
              <path id="Path_40234" data-name="Path 40234" d="M607.156,278.617h-.75v-136.8a3.944,3.944,0,0,0-3.939-3.939H518.639a3.944,3.944,0,0,0-3.939,3.939V258.986h-.75V141.819a4.7,4.7,0,0,1,4.689-4.689h83.828a4.7,4.7,0,0,1,4.689,4.689V278.613Z" transform="translate(-513.95 -137.13)" fill="#8f5b97"/>
              <path id="Path_40235" data-name="Path 40235" d="M528.288,495.5h-9.639a4.7,4.7,0,0,1-4.689-4.689V471.09h.75v19.724a3.944,3.944,0,0,0,3.939,3.939h9.639Z" transform="translate(-513.955 -315.587)" fill="#8f5b97"/>
              <rect id="Rectangle_18202" data-name="Rectangle 18202" width="8.922" height="0.75" transform="translate(43.658 179.166)" fill="#8f5b97"/>
            </g>
            <g id="Group_75631" data-name="Group 75631" transform="translate(8.355 138.346)">
              <g id="Group_75627" data-name="Group 75627" transform="translate(47.875 8.92)">
                <g id="Group_75620" data-name="Group 75620" transform="translate(0.247 22.858)">
                  <path id="Path_40236" data-name="Path 40236" d="M677.5,513.774c0,1.29-9.462,2.337-21.126,2.337s-21.126-1.048-21.126-2.337a.362.362,0,0,1,.009-.07V507.39h42.228v6.3a.263.263,0,0,1,.014.084Z" transform="translate(-635.245 -505.108)" fill="#f49b51"/>
                  <ellipse id="Ellipse_523" data-name="Ellipse 523" cx="21.126" cy="2.337" rx="21.126" ry="2.337" fill="#fcc659"/>
                </g>
                <g id="Group_75621" data-name="Group 75621" transform="translate(5.238 15.24)">
                  <path id="Path_40237" data-name="Path 40237" d="M688.222,497.414c0,1.29-9.462,2.338-21.126,2.338s-21.126-1.048-21.126-2.338a.356.356,0,0,1,.009-.07V491.03h42.228v6.3A.265.265,0,0,1,688.222,497.414Z" transform="translate(-645.965 -488.748)" fill="#f49b51"/>
                  <ellipse id="Ellipse_524" data-name="Ellipse 524" cx="21.126" cy="2.337" rx="21.126" ry="2.337" fill="#fcc659"/>
                </g>
                <g id="Group_75622" data-name="Group 75622" transform="translate(0.247 7.622)">
                  <path id="Path_40238" data-name="Path 40238" d="M677.5,481.044c0,1.29-9.462,2.338-21.126,2.338s-21.126-1.048-21.126-2.338a.361.361,0,0,1,.009-.07V474.66h42.228v6.3a.263.263,0,0,1,.014.084Z" transform="translate(-635.245 -472.383)" fill="#f49b51"/>
                  <ellipse id="Ellipse_525" data-name="Ellipse 525" cx="21.126" cy="2.337" rx="21.126" ry="2.337" fill="#fcc659"/>
                </g>
                <g id="Group_75623" data-name="Group 75623" transform="translate(0 31.523)">
                  <path id="Path_40239" data-name="Path 40239" d="M656.087,523.684c-8.591,0-21.377-.689-21.377-2.584h.5c0,.726,7.171,2.086,20.879,2.086.5,0,.992,0,1.481,0v.5c-.484,0-.982,0-1.481,0Z" transform="translate(-634.71 -521.1)" fill="#2e4882"/>
                  <path id="Path_40240" data-name="Path 40240" d="M698.583,525.187l-.023-.5c2.137-.1,4.1-.242,5.83-.419l.051.5C702.7,524.945,700.735,525.085,698.583,525.187Z" transform="translate(-668.829 -522.794)" fill="#2e4882"/>
                </g>
                <g id="Group_75624" data-name="Group 75624" transform="translate(5.099 23.873)">
                  <path id="Path_40241" data-name="Path 40241" d="M653.6,506.723C645.66,506,645.66,505,645.66,504.67h.5c0,.242,1.346,1,7.483,1.555l-.047.5Z" transform="translate(-645.66 -504.67)" fill="#2e4882"/>
                  <path id="Path_40242" data-name="Path 40242" d="M683.613,509.509c-2.375,0-4.708-.042-6.933-.13l.019-.5c3.972.154,8.367.172,12.46.047l.014.5c-1.811.056-3.683.084-5.564.084Z" transform="translate(-662.236 -506.92)" fill="#2e4882"/>
                  <path id="Path_40243" data-name="Path 40243" d="M714.743,508.3l-.033-.5c2.254-.149,4.219-.34,5.839-.568l.07.494C718.985,507.956,717.006,508.147,714.743,508.3Z" transform="translate(-682.558 -506.038)" fill="#2e4882"/>
                </g>
                <g id="Group_75625" data-name="Group 75625" transform="translate(0.13 9.983)">
                  <path id="Path_40244" data-name="Path 40244" d="M642.03,476.8c-7.04-.717-7.04-1.625-7.04-1.965h.5s.182.815,6.593,1.471l-.051.5Z" transform="translate(-634.99 -474.84)" fill="#2e4882"/>
                  <path id="Path_40245" data-name="Path 40245" d="M672.789,479.337c-2.431,0-4.805-.047-7.059-.135l.019-.5c2.249.088,4.619.135,7.04.135,4.335,0,8.5-.144,12.041-.419l.037.5C681.315,479.193,677.138,479.337,672.789,479.337Z" transform="translate(-651.417 -476.753)" fill="#2e4882"/>
                </g>
                <g id="Group_75626" data-name="Group 75626" transform="translate(7.739)">
                  <path id="Path_40246" data-name="Path 40246" d="M693.582,464.684c0,1.29-9.462,2.337-21.126,2.337s-21.126-1.048-21.126-2.337a.356.356,0,0,1,.009-.07V458.3h42.228v6.3A.265.265,0,0,1,693.582,464.684Z" transform="translate(-651.33 -456.018)" fill="#f49b51"/>
                  <ellipse id="Ellipse_526" data-name="Ellipse 526" cx="21.126" cy="2.337" rx="21.126" ry="2.337" fill="#fcc659"/>
                  <path id="Path_40247" data-name="Path 40247" d="M694.16,456.619c0,.866-7.706,1.569-17.205,1.569s-17.205-.7-17.205-1.569,7.706-1.569,17.205-1.569S694.16,455.753,694.16,456.619Z" transform="translate(-655.829 -454.282)" fill="#f49b51"/>
                </g>
              </g>
              <g id="Group_75630" data-name="Group 75630">
                <path id="Path_40248" data-name="Path 40248" d="M553.813,434.251a21.341,21.341,0,1,0,20.753,21.913A21.342,21.342,0,0,0,553.813,434.251Zm16.591,21.8a17.175,17.175,0,1,1-17.182-17.643c.163,0,.317,0,.48.009a17.194,17.194,0,0,1,16.707,17.163v.47Z" transform="translate(-531.893 -434.243)" fill="#fcc659"/>
                <path id="Path_40249" data-name="Path 40249" d="M575.2,460.363v.47a17.175,17.175,0,1,1-17.182-17.643c.163,0,.317,0,.48.009a17.2,17.2,0,0,1,16.712,17.163Z" transform="translate(-536.682 -439.024)" fill="#f49b51"/>
                <path id="Path_40250" data-name="Path 40250" d="M602.5,457.636c-.037-.14-.075-.279-.116-.419a16.976,16.976,0,0,0-9.117-10.663l.2-.424a17.425,17.425,0,0,1,9.359,10.924c.051.172.089.312.126.456l-.452.116Z" transform="translate(-564.691 -440.595)" fill="#2e4882"/>
                <path id="Path_40251" data-name="Path 40251" d="M580.028,444.683a16.926,16.926,0,0,0-11.431-1.052l-.116-.452a17.419,17.419,0,0,1,11.748,1.08l-.2.424Z" transform="translate(-551.444 -438.72)" fill="#2e4882"/>
                <path id="Path_40252" data-name="Path 40252" d="M609.661,491.492l-.4-.237a16.875,16.875,0,0,0,2.184-6.244l.461.065A17.352,17.352,0,0,1,609.661,491.492Z" transform="translate(-573.235 -461.371)" fill="#2e4882"/>
                <path id="Path_40253" data-name="Path 40253" d="M601.244,441.464a21.15,21.15,0,0,0-5.5-3.488l.2-.456a21.433,21.433,0,0,1,5.634,3.571l-.331.377Z" transform="translate(-566.01 -435.994)" fill="#2e4882"/>
                <path id="Path_40254" data-name="Path 40254" d="M603.279,484.708l-.279-.414a21.1,21.1,0,0,0,6.039-28.813l.419-.27a21.6,21.6,0,0,1-6.179,29.5Z" transform="translate(-569.89 -445.447)" fill="#2e4882"/>
                <g id="Group_75629" data-name="Group 75629" transform="translate(15.355 11.155)">
                  <g id="Group_75628" data-name="Group 75628" transform="translate(0 0)">
                    <path id="Path_40255" data-name="Path 40255" d="M570.881,463.685c0-1.588-.922-2.1-2.663-2.1H565.3l-.419-.694,10.914-2.7.419.694v2.7h-2.663a4.99,4.99,0,0,1,.792,2.1l1.448-.694.419.694v2.7h-1.872A5.1,5.1,0,0,1,569,471.173l6.971,9.234.419.694h-3.744l-7.362-9.932-.419-.694,3.339-2c1.746,0,2.663-.508,2.663-2.1h-5.583l-.419-.694,6.007-2Z" transform="translate(-564.87 -458.2)" fill="url(#linear-gradient)"/>
                  </g>
                  <path id="Path_40256" data-name="Path 40256" d="M570.923,462.991c0-1.588-.922-2.1-2.663-2.1h-2.92v-2.7h10.914v2.7h-2.663a4.99,4.99,0,0,1,.792,2.1h1.872v2.7h-1.872a5.1,5.1,0,0,1-5.331,4.791l7.394,9.932H572.7l-7.362-9.932v-2.7h2.92c1.746,0,2.663-.508,2.663-2.1H565.34v-2.7h5.583Z" transform="translate(-565.121 -458.2)" fill="#fcc659"/>
                </g>
              </g>
            </g>
            <g id="Group_75632" data-name="Group 75632" transform="translate(23.342 40.585)">
              <path id="Path_40257" data-name="Path 40257" d="M639.74,236.551h-.5v-9.5a2.253,2.253,0,0,0-2.249-2.249H594.48v-.5h42.512a2.752,2.752,0,0,1,2.747,2.747Z" transform="translate(-580.325 -224.295)" fill="#2e4882"/>
              <rect id="Rectangle_18203" data-name="Rectangle 18203" width="0.498" height="5.499" transform="translate(58.917 17.247)" fill="#2e4882"/>
              <rect id="Rectangle_18204" data-name="Rectangle 18204" width="8.665" height="0.498" fill="#2e4882"/>
            </g>
          </g>
          <path id="Path_40258" data-name="Path 40258" d="M196.66,84.074c3.455-2.8,6.631-6.179,8.13-10.365s.982-9.313-2.17-12.451c-2.57-2.556-6.472-3.422-10.072-3.017a29.673,29.673,0,0,0-10.193,3.609c-6.151,3.2-41.94,25.391-29.5,32.7,11.976,7.036,34.555-2.971,43.811-10.477Z" transform="translate(-80.286 -31.068)" fill="#f5f5f5"/>
          <g id="Group_75634" data-name="Group 75634" transform="translate(27.145)">
            <path id="Path_40259" data-name="Path 40259" d="M72.7,220l-.428-.256c5.047-8.419,13.177-14.132,25.591-17.978l.149.475c-12.288,3.8-20.33,9.448-25.307,17.759Z" transform="translate(-65.76 -107.816)" fill="#2e4882"/>
            <path id="Path_40260" data-name="Path 40260" d="M58.76,216.886l-.47-.172C64.8,198.805,81.53,193.059,97.031,189.8l.1.489C81.767,193.52,65.191,199.206,58.76,216.886Z" transform="translate(-58.29 -101.419)" fill="#2e4882"/>
            <path id="Path_40261" data-name="Path 40261" d="M508.733,16.389c-11.455-5.853-21.149-7.432-30.518-4.964l-.126-.484c9.494-2.5,19.3-.913,30.872,5l-.228.442Z" transform="translate(-282.617 -5.234)" fill="#2e4882"/>
            <path id="Path_40262" data-name="Path 40262" d="M509.3,11.776c-13.252-8.419-29.088-15.925-46.037-7.762l-.214-.452c17.173-8.27,33.153-.7,46.526,7.79l-.27.419Z" transform="translate(-274.58 0.008)" fill="#2e4882"/>
          </g>
          <g id="Group_75648" data-name="Group 75648" transform="translate(163.502 34.499)">
            <path id="Path_40263" data-name="Path 40263" d="M403.113,74.091A21.341,21.341,0,1,0,423.867,96a21.342,21.342,0,0,0-20.753-21.913Zm16.591,21.8a17.175,17.175,0,1,1-17.182-17.643c.163,0,.317,0,.48.009a17.194,17.194,0,0,1,16.707,17.163v.47Z" transform="translate(-367.196 -74.083)" fill="#fcc659"/>
            <path id="Path_40264" data-name="Path 40264" d="M424.5,100.2v.47A17.175,17.175,0,1,1,407.321,83.03c.163,0,.317,0,.48.009A17.2,17.2,0,0,1,424.513,100.2Z" transform="translate(-371.986 -78.864)" fill="#f49b51"/>
            <g id="Group_75635" data-name="Group 75635" transform="translate(18.025 3.938)">
              <path id="Path_40265" data-name="Path 40265" d="M451.869,97.561c-.037-.149-.079-.293-.121-.438a16.954,16.954,0,0,0-9.108-10.64l.2-.424a17.425,17.425,0,0,1,9.359,10.924c.047.158.089.307.126.456l-.452.116Z" transform="translate(-418.056 -84.421)" fill="#2e4882"/>
              <path id="Path_40266" data-name="Path 40266" d="M429.388,84.6a16.929,16.929,0,0,0-11.431-1.052l-.116-.452a17.42,17.42,0,0,1,11.748,1.08l-.2.424Z" transform="translate(-404.804 -82.541)" fill="#2e4882"/>
              <path id="Path_40267" data-name="Path 40267" d="M390.41,114.176a17.309,17.309,0,0,1,1.835-13.2l.4.237a16.819,16.819,0,0,0-1.788,12.842l-.452.116Z" transform="translate(-389.843 -92.394)" fill="#2e4882"/>
            </g>
            <g id="Group_75636" data-name="Group 75636" transform="translate(43.727 1.917)">
              <path id="Path_40268" data-name="Path 40268" d="M450.544,82.144a21.148,21.148,0,0,0-5.5-3.488l.2-.456a21.429,21.429,0,0,1,5.634,3.571l-.331.377Z" transform="translate(-445.04 -78.2)" fill="#2e4882"/>
              <path id="Path_40269" data-name="Path 40269" d="M452.569,125.388l-.279-.414a21.1,21.1,0,0,0,6.039-28.813l.419-.27a21.6,21.6,0,0,1-6.179,29.5Z" transform="translate(-448.914 -87.653)" fill="#2e4882"/>
            </g>
            <path id="Path_40270" data-name="Path 40270" d="M419.138,205.655l1.89-8.1,7.72-3.213,1.374,11.315s-1.145,7.352-8.246,9.983S419.138,205.655,419.138,205.655Z" transform="translate(-386.764 -138.344)" fill="#fcb47e"/>
            <path id="Path_40271" data-name="Path 40271" d="M413.181,169.7s-2.747,15.231,1.718,15.347,8.13-1.6,9.047-2.635,1.6-6.067,1.6-6.067.573-6.528-2.175-7.785-8.7-3.436-10.193,1.145Z" transform="translate(-383.842 -123.696)" fill="#fcb47e"/>
            <path id="Path_40272" data-name="Path 40272" d="M426.994,175.3c-.875,1.62-1.746,3.208-1.746,3.208a4.4,4.4,0,0,1-3-3.241s-4.107-.382-4.251-5.467c0,0-7.129.047-7.3-6.142s6.957-4.591,9.317-2.7A19.492,19.492,0,0,0,427.483,165C431.347,166.243,428.116,173.223,426.994,175.3Z" transform="translate(-382.96 -119.602)" fill="#374263"/>
            <path id="Path_40273" data-name="Path 40273" d="M426.613,499.321l-.88-9H416.22l2.067,8.74a4.543,4.543,0,0,0,4.3,2.822,4.414,4.414,0,0,0,4.023-2.561Z" transform="translate(-385.913 -296.506)" fill="#fcb47e"/>
            <path id="Path_40274" data-name="Path 40274" d="M523.5,443.062,516.2,437.73l-6.328,7.106,9.364,4.745s1.159.228,3.506-1.816a3.8,3.8,0,0,0,.764-4.708Z" transform="translate(-435.956 -268.404)" fill="#fcb47e"/>
            <g id="Group_75637" data-name="Group 75637" transform="translate(20.197 105.441)">
              <path id="Path_40275" data-name="Path 40275" d="M423.02,391.706c-5.508,2.081-12.544,1.513-20.129,0-.219-.531-.438-1.057-.647-1.592-14.453-36.529-4.219-89.583-4.219-89.583h22.728l-.512,17.536a121.1,121.1,0,0,0-2.123,13.978C415.23,362.636,423.02,391.706,423.02,391.706Z" transform="translate(-394.509 -300.53)" fill="#3f5a9f"/>
              <path id="Path_40276" data-name="Path 40276" d="M444.071,431.251c-.354-.712-13.3-27.016-9.443-56.691l4.1,3.306A194.614,194.614,0,0,0,444.071,431.251Z" transform="translate(-415.564 -340.089)" fill="#385087"/>
            </g>
            <path id="Path_40277" data-name="Path 40277" d="M476.17,360.244c-2.086,5.858-4.307,10.4-6.724,13.061a7.919,7.919,0,0,1-3.5,2.421,80.73,80.73,0,0,1-9.592-5.778c-.4-.275-.787-.554-1.178-.838-.517-.377-1.029-.764-1.523-1.15-.228-.177-.456-.349-.675-.531-.447-.349-.889-.708-1.318-1.062q-.58-.482-1.132-.964a71.159,71.159,0,0,1-5.439-5.238c-.158-.168-.321-.345-.475-.512-.116-.126-.228-.256-.345-.377h0c-22.923-25.484-18.714-58.726-18.714-58.726H445.49c1.709,31.873,30.676,59.7,30.676,59.7Z" transform="translate(-390.737 -195.099)" fill="#3f5a9f"/>
            <path id="Path_40278" data-name="Path 40278" d="M464.251,142.491c-1.7-1.243-2.887-1.928-3.176-2.133-.363-.261-.447-.9-.871-1.555-.973-1.495-3-4.135-5.089-4.866-.27-.1-.475.191-.186.5.512.563,1.481,1.374,1.332,1.509-.321.27-2.589-2.459-3.227-1.825-.48.48,2.8,2.91,2.673,3.064-.256.307-2.729-2.482-3.329-1.849-.573.6,2.393,2.161,2.268,2.421s-2.188-1.429-2.594-1.043c-.615.587,3.092,2.882,2.989,3.222-.13.549-2.049-.6-2.333.051-.279.61,2.4,1.76,2.91,2.016,1.173.587,2.026.331,2.961,1.793q.775,1.2,1.527,2.407l4.144-3.711Z" transform="translate(-405.023 -106.057)" fill="#fcb47e"/>
            <path id="Path_40279" data-name="Path 40279" d="M377.48,145.231c1.56-1.416,2.663-2.226,2.929-2.459.331-.3.349-.945.7-1.639.81-1.588,2.538-4.428,4.54-5.383.256-.126.494.135.237.475-.447.615-1.322,1.523-1.159,1.644.349.233,2.31-2.719,3.013-2.161.531.424-2.472,3.194-2.328,3.329.289.279,2.445-2.757,3.11-2.193.633.535-2.151,2.4-1.993,2.649s2.026-1.658,2.468-1.313c.67.517-2.766,3.2-2.631,3.525.191.535,1.97-.815,2.324-.2.345.577-2.2,2.007-2.677,2.314-1.1.708-1.979.549-2.752,2.1-.428.852-.847,1.7-1.262,2.556l-4.517-3.25Z" transform="translate(-365.212 -106.976)" fill="#fcb47e"/>
            <path id="Path_40280" data-name="Path 40280" d="M431.839,305.238a57.754,57.754,0,0,1-8.731,4.554,40.267,40.267,0,0,1-11.632,3.008,23.106,23.106,0,0,1-12.167-2c.251-1.863.489-3.446.689-4.708a25.7,25.7,0,0,0,11.394,2.822,42.352,42.352,0,0,0,11.785-1.481,60.075,60.075,0,0,0,8.586-2.961c.019.256.047.512.074.768Z" transform="translate(-376.877 -197.194)" fill="#385087"/>
            <path id="Path_40281" data-name="Path 40281" d="M369.832,219.038V193.955s-22.541-3.828-18.113-25.652c2.812-13.867,12.712-18.821,12.712-18.821l5.49,4.41s-11.673,17.838,3.692,24.036c0,0,8.642-.27,10.891,2.161,0,0,4.95,3.963,10.174-2.612,0,0,5.313-2.072,9.839-.852,3.725,1,8.526-8.237-.386-23.9l5.583-5.043s32.678,31.416.629,46.992l-1.788,25.06s-24.8,14.067-38.722-.7Z" transform="translate(-351.138 -113.411)" fill="#d268cc"/>
            <circle id="Ellipse_527" data-name="Ellipse 527" cx="1.779" cy="1.779" r="1.779" transform="translate(36.519 53.02)" fill="#fcb47e"/>
            <path id="Path_40282" data-name="Path 40282" d="M434.449,364.092a80.3,80.3,0,0,1-8.149-26.881l.4-.051a79.959,79.959,0,0,0,8.107,26.746l-.354.182Z" transform="translate(-391.299 -214.662)" fill="#fff"/>
            <path id="Path_40283" data-name="Path 40283" d="M457.219,326.831a8.933,8.933,0,0,1-8.349-5.536l.372-.135a8.516,8.516,0,0,0,8.27,5.271l.009.4h-.307Z" transform="translate(-403.36 -206.112)" fill="#fff"/>
            <path id="Path_40284" data-name="Path 40284" d="M424.18,217.438c-.116,0-.237,0-.354-.014-2.836-.261-4.27-3.571-4.326-3.716l.363-.154c.014.033,1.4,3.236,4,3.474,2.184.2,4.6-1.676,7.175-5.578l.331.219c-2.533,3.832-4.95,5.769-7.189,5.769Z" transform="translate(-387.666 -147.487)" fill="#2e4882"/>
            <g id="Group_75638" data-name="Group 75638" transform="translate(0 51.326)" opacity="0.2">
              <path id="Path_40285" data-name="Path 40285" d="M369.826,213.533s-22.546-3.827-18.118-25.656a31,31,0,0,1,.875-3.39c.056-.061.116-.121.168-.177-.372,4.926-.549,9.243,1.634,13.908,4.563,9.76,15.752,15.287,15.44,15.31Z" transform="translate(-351.132 -184.31)"/>
            </g>
            <g id="Group_75639" data-name="Group 75639" transform="translate(45.333 60.587)" opacity="0.2">
              <path id="Path_40286" data-name="Path 40286" d="M462.357,224.879l-1.788,25.06a54.713,54.713,0,0,1-12.078,4.708c1.2-.908,6.239-8.619,7.082-12.516,1.513-6.989,1.7-11.012,1.9-18.458A27.3,27.3,0,0,0,476.354,204.2C477.019,211.678,473.844,219.291,462.357,224.879Z" transform="translate(-448.49 -204.2)"/>
            </g>
            <path id="Path_40287" data-name="Path 40287" d="M426.956,303.139h-.116l.009-.4c.107,0,10.584.149,19.654-5.383l.2.34c-8.656,5.276-18.579,5.443-19.752,5.443Z" transform="translate(-391.588 -193.395)" fill="#2e4882"/>
            <path id="Path_40288" data-name="Path 40288" d="M491.277,440.69a7.919,7.919,0,0,1-3.5,2.421,80.745,80.745,0,0,1-9.592-5.779c-.4-.275-.787-.554-1.178-.838-.517-.377-1.029-.764-1.523-1.15-.228-.177-.456-.349-.675-.531-.447-.349-.889-.708-1.318-1.062q-.58-.482-1.131-.964a71.136,71.136,0,0,1-5.439-5.238c-.158-.168-.321-.345-.475-.512-.116-.126-.228-.256-.345-.377,13.634,11.268,22.355,13.569,25.172,14.034Z" transform="translate(-412.567 -262.488)" fill="#385087"/>
            <path id="Path_40289" data-name="Path 40289" d="M510.187,406.623c-9.6-6.23-15.7-17.494-15.757-17.606l.331-.177c.06.112,6.114,11.287,15.631,17.466l-.2.312Z" transform="translate(-427.706 -242.278)" fill="#fff"/>
            <g id="Group_75642" data-name="Group 75642" transform="translate(19.021 200.454)">
              <path id="Path_40290" data-name="Path 40290" d="M414.862,514.107H393.28a1.3,1.3,0,0,1-1.294-1.388v-.028c.014-.163.037-.335.061-.5a3.361,3.361,0,0,1,.5-1.509c1.024-1.36,3.008-1.979,6.551-3.38a28.4,28.4,0,0,0,4.936-2.607.677.677,0,0,1,.852.088c4.27,4.172,6.887,3.283,7.674,1.565.6-1.313,1.448-1.038,1.681-.652.717,1.2,1.113,4.726,1.271,6.5.019.191.037.363.047.5.023.331.042.531.042.531a.755.755,0,0,1-.74.885Z" transform="translate(-391.982 -504.58)" fill="#374263"/>
              <g id="Group_75640" data-name="Group 75640" transform="translate(5.184 2.645)">
                <path id="Path_40291" data-name="Path 40291" d="M408.38,512.6a2.315,2.315,0,0,1-1.3-2.342l.368.056a1.9,1.9,0,0,0,1.094,1.946l-.163.335Z" transform="translate(-405.225 -510.26)" fill="#fff"/>
                <path id="Path_40292" data-name="Path 40292" d="M404.374,514.106a2.329,2.329,0,0,1-1.253-2.226l.373.047a1.963,1.963,0,0,0,1.066,1.858l-.186.326Z" transform="translate(-403.115 -511.126)" fill="#fff"/>
                <path id="Path_40293" data-name="Path 40293" d="M428.8,512.989a6.826,6.826,0,0,1-2.771-.67l.172-.335c.033.019,3.306,1.662,4.992-.433l.293.233a3.284,3.284,0,0,1-2.682,1.2Z" transform="translate(-415.36 -510.949)" fill="#fff"/>
              </g>
              <g id="Group_75641" data-name="Group 75641" transform="translate(3.785 7.846)">
                <rect id="Rectangle_18205" data-name="Rectangle 18205" width="12.577" height="0.373" transform="translate(4.591)" fill="#fff"/>
                <rect id="Rectangle_18206" data-name="Rectangle 18206" width="2.975" height="0.373" fill="#fff"/>
              </g>
            </g>
            <g id="Group_75645" data-name="Group 75645" transform="translate(79.742 172.385)">
              <path id="Path_40294" data-name="Path 40294" d="M536.628,447.87,526.086,466.7a1.293,1.293,0,0,1-1.844.452s-.014-.009-.019-.014c-.14-.093-.275-.2-.414-.3a3.371,3.371,0,0,1-1.066-1.173c-.684-1.555-.256-3.59.251-7.366a28.58,28.58,0,0,0,.14-5.583.682.682,0,0,1,.494-.7c5.727-1.686,6.23-4.4,5.113-5.932-.852-1.164-.2-1.774.251-1.788,1.4-.042,4.666,1.332,6.286,2.063.182.075.34.144.47.2l.48.224a.757.757,0,0,1,.41,1.08Z" transform="translate(-522.387 -444.298)" fill="#374263"/>
              <g id="Group_75643" data-name="Group 75643" transform="translate(0.388 1.78)">
                <path id="Path_40295" data-name="Path 40295" d="M524.237,473.6a3.642,3.642,0,0,1-.647-.056l.074-.368a2.549,2.549,0,0,0,2.319-.689l.3.228a2.51,2.51,0,0,1-2.049.885Z" transform="translate(-523.418 -461.143)" fill="#fff"/>
                <path id="Path_40296" data-name="Path 40296" d="M523.867,477.983a3.642,3.642,0,0,1-.647-.056l.074-.368a2.549,2.549,0,0,0,2.319-.689l.3.228a2.51,2.51,0,0,1-2.049.885Z" transform="translate(-523.22 -463.483)" fill="#fff"/>
                <path id="Path_40297" data-name="Path 40297" d="M535.792,453.368l-.242-.284c.028-.023,2.794-2.431,1.49-4.782l.326-.182c1.448,2.622-1.546,5.22-1.578,5.248Z" transform="translate(-529.809 -448.12)" fill="#fff"/>
              </g>
              <g id="Group_75644" data-name="Group 75644" transform="translate(3.325 4.835)">
                <rect id="Rectangle_18207" data-name="Rectangle 18207" width="12.577" height="0.373" transform="translate(2.199 11.039) rotate(-61.37)" fill="#fff"/>
                <rect id="Rectangle_18208" data-name="Rectangle 18208" width="2.975" height="0.373" transform="translate(0 15.067) rotate(-61.37)" fill="#fff"/>
              </g>
            </g>
            <path id="Path_40298" data-name="Path 40298" d="M389.417,193.821a12.879,12.879,0,0,1-7.194-5.806c-1.648-3.036-1.816-6.756-.494-11.054l.475.149c-1.28,4.163-1.127,7.748.452,10.663a12.611,12.611,0,0,0,6.891,5.569l-.135.48Z" transform="translate(-367.011 -129.057)" fill="#2e4882"/>
            <path id="Path_40299" data-name="Path 40299" d="M416.473,172.661a8.109,8.109,0,0,1-5.9-2.524c-.885-1.1-1.606-3.055-.014-6.067l.331.172c-1.2,2.277-1.211,4.181-.023,5.662a7.543,7.543,0,0,0,6.5,2.291l.1.363a4,4,0,0,1-1,.112Z" transform="translate(-382.385 -122.169)" fill="#374263"/>
            <path id="Path_40300" data-name="Path 40300" d="M416.065,181.376a7.549,7.549,0,0,1-4.2-1.364l.2-.312c4.093,2.7,7.231.372,7.259.349l.228.3a6.3,6.3,0,0,1-3.492,1.029Z" transform="translate(-383.583 -130.521)" fill="#374263"/>
            <g id="Group_75647" data-name="Group 75647" transform="translate(29.464 9.889)">
              <g id="Group_75646" data-name="Group 75646" transform="translate(0 0.005)">
                <path id="Path_40301" data-name="Path 40301" d="M420.421,100.815c0-1.588-.922-2.1-2.663-2.1h-2.92l-.419-.694,10.914-2.7.419.694v2.7h-2.663a4.991,4.991,0,0,1,.792,2.1l1.448-.694.419.694v2.7h-1.872a5.1,5.1,0,0,1-5.331,4.791l6.971,9.234.419.694h-3.744l-7.362-9.932-.419-.694,3.339-2c1.746,0,2.663-.508,2.663-2.1h-5.583l-.419-.694,6.007-2Z" transform="translate(-414.41 -95.33)" fill="url(#linear-gradient-2)"/>
              </g>
              <path id="Path_40302" data-name="Path 40302" d="M420.463,100.111c0-1.588-.922-2.1-2.663-2.1H414.88v-2.7h10.914v2.7h-2.663a4.991,4.991,0,0,1,.792,2.1h1.872v2.7h-1.872a5.1,5.1,0,0,1-5.332,4.791l7.394,9.932h-3.744L414.88,107.6v-2.7H417.8c1.746,0,2.663-.508,2.663-2.1H414.88v-2.7Z" transform="translate(-414.661 -95.32)" fill="#fcc659"/>
            </g>
          </g>
          <g id="Group_75649" data-name="Group 75649" transform="translate(0 147.093)">
            <path id="Path_40303" data-name="Path 40303" d="M35.135,316.09c0,.14,0,.279.009.419.4,17.182,2.854,30.462,6.379,40.724l9.126,5.034-7.329-.745-.21-.019c4.545,11.245,10.384,18.36,15.785,22.849a37.905,37.905,0,0,0,9.15,5.709c.172.074.34.149.508.214.419.177.824.331,1.206.47h4.875q.084-.342.154-.684c.033-.144.065-.289.093-.433.047-.191.084-.382.121-.568,4.586-22.444-3.581-39.728-13.7-51.825a1.113,1.113,0,0,0-.1-.121A86.1,86.1,0,0,0,50.4,326.4l-1.863,5.588-.712-7.65a84.42,84.42,0,0,0-12.4-8.093l-.293-.149Z" transform="translate(-18.769 -315.997)" fill="#aa75b3"/>
            <path id="Path_40304" data-name="Path 40304" d="M34.78,316.072l.182.326,11.077,20.39.2.359,3.022,5.56.1.186,9.629,17.717.014.023,15.7,28.883.237.428.372.689h.428l-.373-.689-.545-1-15.492-28.5-.289-.531-23.8-43.788-.13-.237Z" transform="translate(-18.582 -315.89)" fill="#fff"/>
            <rect id="Rectangle_18209" data-name="Rectangle 18209" width="0.326" height="15.049" transform="matrix(0.523, -0.852, 0.852, 0.523, 17.839, 19.316)" fill="#fff"/>
            <rect id="Rectangle_18210" data-name="Rectangle 18210" width="0.326" height="11.794" transform="matrix(0.523, -0.852, 0.852, 0.523, 17.54, 15.185)" fill="#fff"/>
            <path id="Path_40305" data-name="Path 40305" d="M89.659,388.092l1.853-23.524-.363-.028L89.3,388.068Z" transform="translate(-47.716 -341.887)" fill="#fff"/>
            <path id="Path_40306" data-name="Path 40306" d="M58.3,449.814s-11.24,6.049-28.152-2.868l5.187-2.8-8.661.8c-6.635-4.144-14.016-10.6-21.848-20.488l1.979-1.066-2.626.242Q2.2,421.1.18,418.254a63.582,63.582,0,0,1,11.72-.242l3.786,4.6-1.234-4.391c14.188,1.4,35.067,7.7,43.853,31.593Z" transform="translate(-0.093 -370.382)" fill="#c886d3"/>
            <rect id="Rectangle_18211" data-name="Rectangle 18211" width="0.368" height="66.334" transform="translate(0 48.043) rotate(-62.69)" fill="#fff"/>
            <rect id="Rectangle_18212" data-name="Rectangle 18212" width="8.242" height="0.345" transform="translate(7.265 57.039) rotate(-8.88)" fill="#fff"/>
            <rect id="Rectangle_18213" data-name="Rectangle 18213" width="9.713" height="0.345" transform="translate(9.982 59.981) rotate(-13.1)" fill="#fff"/>
          </g>
          <rect id="Rectangle_18214" data-name="Rectangle 18214" width="112.017" height="79.172" rx="9.8" transform="translate(48.41 157.76)" fill="#c886d3"/>
          <g id="Group_75650" data-name="Group 75650" transform="translate(52.559 161.178)" opacity="0.2">
            <path id="Path_40307" data-name="Path 40307" d="M217.34,350.941V413.68a4.81,4.81,0,0,1-4.81,4.81H205.27V350.2H114.9a2.029,2.029,0,0,1-2.03-2.03h0a2.029,2.029,0,0,1,2.03-2.03H212.53a4.81,4.81,0,0,1,4.81,4.81Z" transform="translate(-112.87 -346.14)" fill="#5c3362"/>
          </g>
          <path id="Path_40308" data-name="Path 40308" d="M243.3,333.785c.1.121.2.242.293.368a17.175,17.175,0,1,1-24.469-2.785c.126-.1.247-.2.377-.3a17.2,17.2,0,0,1,23.8,2.715Z" transform="translate(-113.725 -174.996)" fill="#f49b51"/>
          <g id="Group_75652" data-name="Group 75652" transform="translate(110.521 158.435)">
            <g id="Group_75651" data-name="Group 75651">
              <path id="Path_40309" data-name="Path 40309" d="M243.361,345.735c0-1.588-.922-2.1-2.663-2.1h-2.919l-.419-.694,10.914-2.7.419.694v2.7h-2.663a4.991,4.991,0,0,1,.792,2.1l1.448-.694.419.694v2.7h-1.872a5.1,5.1,0,0,1-5.331,4.791l6.971,9.234.419.694h-3.744l-7.362-9.932-.419-.694,3.339-2c1.746,0,2.663-.508,2.663-2.1h-5.583l-.419-.694,6.007-2Z" transform="translate(-237.35 -340.25)" fill="url(#linear-gradient)"/>
            </g>
            <path id="Path_40310" data-name="Path 40310" d="M243.4,345.041c0-1.588-.922-2.1-2.663-2.1h-2.92v-2.7h10.914v2.7h-2.663a4.991,4.991,0,0,1,.792,2.1h1.872v2.7h-1.872a5.1,5.1,0,0,1-5.331,4.791l7.394,9.932h-3.744l-7.362-9.932v-2.7h2.92c1.746,0,2.663-.508,2.663-2.1H237.82v-2.7Z" transform="translate(-237.601 -340.25)" fill="#fcc659"/>
          </g>
          <path id="Path_40311" data-name="Path 40311" d="M230.623,319.216a21.339,21.339,0,1,0,15.24,26.048,21.339,21.339,0,0,0-15.24-26.048Zm11.217,25a17.177,17.177,0,1,1-12.735-21.089c.158.037.307.075.466.116a17.192,17.192,0,0,1,12.381,20.507c-.037.154-.07.3-.112.456Z" transform="translate(-108.941 -170.2)" fill="#fcc659"/>
          <path id="Path_40312" data-name="Path 40312" d="M157.393,284.3a21.341,21.341,0,1,0,20.753,21.913A21.342,21.342,0,0,0,157.393,284.3Zm16.591,21.8A17.175,17.175,0,1,1,156.8,288.459c.163,0,.317,0,.48.009a17.194,17.194,0,0,1,16.707,17.163v.47Z" transform="translate(-72.389 -151.913)" fill="#fcc659"/>
          <path id="Path_40313" data-name="Path 40313" d="M174.889,299.535c.1.121.2.242.293.368a17.175,17.175,0,1,1-24.469-2.784c.126-.1.247-.2.377-.3a17.2,17.2,0,0,1,23.8,2.715Z" transform="translate(-77.169 -156.694)" fill="#f49b51"/>
          <path id="Path_40314" data-name="Path 40314" d="M204.824,291.814a21.149,21.149,0,0,0-5.5-3.488l.2-.456a21.43,21.43,0,0,1,5.634,3.571l-.331.377Z" transform="translate(-106.507 -153.825)" fill="#2e4882"/>
          <path id="Path_40315" data-name="Path 40315" d="M206.859,335.058l-.279-.414a21.1,21.1,0,0,0,6.039-28.813l.419-.27a21.6,21.6,0,0,1-6.179,29.5Z" transform="translate(-110.387 -163.277)" fill="#2e4882"/>
          <path id="Path_40316" data-name="Path 40316" d="M205.744,307.521c-.037-.144-.079-.289-.121-.433a16.957,16.957,0,0,0-9.112-10.644l.2-.424a17.426,17.426,0,0,1,9.359,10.924c.047.163.088.307.126.456l-.452.116Z" transform="translate(-105.006 -158.18)" fill="#2e4882"/>
          <path id="Path_40317" data-name="Path 40317" d="M183.258,294.553a16.926,16.926,0,0,0-11.431-1.052l-.116-.452a17.419,17.419,0,0,1,11.748,1.08l-.2.424Z" transform="translate(-91.753 -156.294)" fill="#2e4882"/>
          <path id="Path_40318" data-name="Path 40318" d="M212.89,341.372l-.4-.237a16.876,16.876,0,0,0,2.184-6.244l.461.065A17.352,17.352,0,0,1,212.89,341.372Z" transform="translate(-113.545 -178.95)" fill="#2e4882"/>
          <rect id="Rectangle_18215" data-name="Rectangle 18215" width="104.716" height="78.171" rx="9.5" transform="translate(48.41 165.313)" fill="#c886d3"/>
          <g id="Group_75653" data-name="Group 75653" transform="translate(52.596 168.386)">
            <path id="Path_40319" data-name="Path 40319" d="M148.743,504.41h-31.5a4.3,4.3,0,0,1-4.3-4.3V494.05h.5v6.063a3.8,3.8,0,0,0,3.8,3.8h31.5Z" transform="translate(-112.95 -432.386)" fill="#2e4882"/>
            <rect id="Rectangle_18216" data-name="Rectangle 18216" width="9.708" height="0.498" transform="translate(43.444 71.521)" fill="#2e4882"/>
            <path id="Path_40320" data-name="Path 40320" d="M267.733,374.276h-.5v-8.358a3.8,3.8,0,0,0-3.8-3.8H222.31v-.5h41.125a4.3,4.3,0,0,1,4.3,4.3Z" transform="translate(-171.388 -361.62)" fill="#2e4882"/>
            <rect id="Rectangle_18217" data-name="Rectangle 18217" width="9.275" height="0.498" transform="translate(34.247 0)" fill="#2e4882"/>
            <rect id="Rectangle_18218" data-name="Rectangle 18218" width="0.498" height="11.799" transform="translate(0 43.234)" fill="#2e4882"/>
          </g>
          <g id="Group_75656" data-name="Group 75656" transform="translate(125.1 188.343)">
            <path id="Path_40321" data-name="Path 40321" d="M303.857,404.48v22.09a5.021,5.021,0,0,1-5.024,5.024h-19.11a11.063,11.063,0,0,1,0-22.127h19.11c.14,0,.279,0,.419.019a5.021,5.021,0,0,0,4.6-5.006Z" transform="translate(-268.66 -404.48)" fill="#5c3362"/>
            <g id="Group_75655" data-name="Group 75655" transform="translate(2.751 8.754)">
              <circle id="Ellipse_528" data-name="Ellipse 528" cx="5.164" cy="5.164" r="5.164" transform="translate(0 7.303) rotate(-45)" fill="#fff"/>
              <g id="Group_75654" data-name="Group 75654" transform="translate(1.891 1.89)">
                <path id="Path_40322" data-name="Path 40322" d="M290.25,438.161v-.5a4.912,4.912,0,1,0,0-9.825v-.5a5.411,5.411,0,1,1,0,10.821Z" transform="translate(-284.839 -427.34)" fill="#2e4882"/>
                <path id="Path_40323" data-name="Path 40323" d="M279.128,434.568h-.5a5.394,5.394,0,0,1,1.583-3.828l.354.354A4.882,4.882,0,0,0,279.128,434.568Z" transform="translate(-278.63 -429.157)" fill="#2e4882"/>
              </g>
            </g>
          </g>
          <g id="Group_75657" data-name="Group 75657" transform="translate(26.171 196.943)">
            <path id="Path_40324" data-name="Path 40324" d="M89.192,439.964a45.243,45.243,0,0,0-9.052-6.617l.242-.438a45.713,45.713,0,0,1,9.15,6.687l-.345.363Z" transform="translate(-68.993 -428.272)" fill="#2e4882"/>
            <path id="Path_40325" data-name="Path 40325" d="M61.89,425.4a56.425,56.425,0,0,0-5.69-1.974l.14-.48a57.027,57.027,0,0,1,5.741,1.993Z" transform="translate(-56.2 -422.95)" fill="#2e4882"/>
          </g>
          <path id="Path_40326" data-name="Path 40326" d="M253.073,128.5a53.522,53.522,0,0,0-24.953-.866,52.451,52.451,0,0,0-11.934,3.935,53.3,53.3,0,0,0-10.7,6.6,53.148,53.148,0,0,0-15.412,19.645c-.438.955-.824,1.932-1.229,2.9-.345.992-.736,1.965-1.043,2.971a54.936,54.936,0,0,0-1.588,6.09c-.2,1.029-.382,2.063-.522,3.106-.037.261-.075.521-.1.782l-.033.279-.019.172c-.023.233-.056.461-.075.694l-3.888-.391a50.284,50.284,0,0,0,6.128,11.2,44.538,44.538,0,0,1,6.063-9.969l-3.888-.391c.019-.214.047-.424.07-.633l.019-.158.028-.256c.023-.237.061-.48.093-.717.126-.955.293-1.9.475-2.85a49.331,49.331,0,0,1,1.457-5.592c.284-.922.643-1.816.959-2.729.372-.889.726-1.783,1.127-2.659a48.754,48.754,0,0,1,14.132-18.015,48.693,48.693,0,0,1,9.816-6.053,47.951,47.951,0,0,1,10.952-3.609,49.093,49.093,0,0,1,22.886.8l1.183-4.27Z" transform="translate(-97.027 -67.622)" fill="#d268cc"/>
          <g id="Group_75658" data-name="Group 75658" transform="translate(104.808 58.674)">
            <path id="Path_40327" data-name="Path 40327" d="M246.872,133.447l-.242-.4c1.294-.782,2.64-1.513,4-2.17a50.012,50.012,0,0,1,10.956-3.758,49.028,49.028,0,0,1,11.534-1.108,48.307,48.307,0,0,1,11.473,1.6l-.116.452a47.843,47.843,0,0,0-11.366-1.578,48.612,48.612,0,0,0-11.427,1.1,49.48,49.48,0,0,0-10.854,3.72c-1.346.652-2.677,1.378-3.963,2.151Z" transform="translate(-236.596 -126.002)" fill="#2e4882"/>
            <path id="Path_40328" data-name="Path 40328" d="M225.42,154.091l-.34-.317c.424-.452.875-.885,1.318-1.3l.754-.726c.219-.191.428-.377.638-.559.508-.447,1.034-.908,1.565-1.346l.293.359c-.526.428-1.048.889-1.551,1.336-.21.186-.419.368-.629.549-.237.237-.494.48-.745.722-.433.414-.885.843-1.3,1.285Z" transform="translate(-225.08 -138.74)" fill="#2e4882"/>
          </g>
          <path id="Path_40329" data-name="Path 40329" d="M188.289,243.025l-.242-.326a50.474,50.474,0,0,1-5.457-9.369l.424-.191a49.767,49.767,0,0,0,5.169,8.959,45.519,45.519,0,0,1,3.837-6.943l.386.261a44.667,44.667,0,0,0-3.958,7.241l-.163.368Z" transform="translate(-97.567 -124.579)" fill="#2e4882"/>
          <path id="Path_40330" data-name="Path 40330" d="M189.886,219.913l-.466-.033a42.953,42.953,0,0,1,1.676-8.931l.442.144a42.77,42.77,0,0,0-1.653,8.819Z" transform="translate(-101.217 -112.721)" fill="#2e4882"/>
          <g id="Group_75663" data-name="Group 75663" transform="translate(40.277 200.54)">
            <path id="Path_40331" data-name="Path 40331" d="M102.468,431.366a21.34,21.34,0,1,0,26.024,15.282A21.342,21.342,0,0,0,102.468,431.366Zm22,16.33a17.175,17.175,0,1,1-21.41-12.176c.154-.047.307-.084.461-.126a17.193,17.193,0,0,1,20.818,11.846c.042.149.088.3.126.452Z" transform="translate(-86.494 -430.674)" fill="#fcc659"/>
            <path id="Path_40332" data-name="Path 40332" d="M129.117,452.023c.042.149.088.3.126.452a17.175,17.175,0,1,1-21.41-12.176c.154-.047.307-.084.461-.126a17.193,17.193,0,0,1,20.818,11.846Z" transform="translate(-91.273 -435.453)" fill="#f49b51"/>
            <path id="Path_40333" data-name="Path 40333" d="M153.625,468.19l-.321-.335a21.14,21.14,0,0,0,2.44-27.659l.377-.275a21.6,21.6,0,0,1-2.5,28.269Zm-2.808-32.827a21.164,21.164,0,0,0-6.607-3.106l.121-.447a21.647,21.647,0,0,1,6.756,3.176l-.265.382Z" transform="translate(-117.336 -431.281)" fill="#2e4882"/>
            <g id="Group_75659" data-name="Group 75659" transform="translate(3.929 3.942)">
              <path id="Path_40334" data-name="Path 40334" d="M156.964,454.156c-.037-.149-.084-.3-.126-.447a16.969,16.969,0,0,0-9.108-10.635l.2-.424a17.434,17.434,0,0,1,9.359,10.928c.042.154.088.3.126.456l-.452.116Z" transform="translate(-123.146 -441.016)" fill="#2e4882"/>
              <path id="Path_40335" data-name="Path 40335" d="M134.478,441.2a16.926,16.926,0,0,0-11.431-1.052l-.116-.452a17.419,17.419,0,0,1,11.748,1.08l-.2.424Z" transform="translate(-109.894 -439.141)" fill="#2e4882"/>
              <path id="Path_40336" data-name="Path 40336" d="M95.5,470.776a17.308,17.308,0,0,1,1.835-13.2l.4.237a16.819,16.819,0,0,0-1.788,12.842l-.452.116Z" transform="translate(-94.933 -448.994)" fill="#2e4882"/>
              <path id="Path_40337" data-name="Path 40337" d="M164.11,488.012l-.4-.237a16.875,16.875,0,0,0,2.184-6.244l.461.065A17.352,17.352,0,0,1,164.11,488.012Z" transform="translate(-131.685 -461.792)" fill="#2e4882"/>
            </g>
            <g id="Group_75661" data-name="Group 75661" transform="translate(13.758 11.215)">
              <g id="Group_75660" data-name="Group 75660" transform="translate(0.312 0.042)">
                <path id="Path_40338" data-name="Path 40338" d="M123.136,461.169c-.3-1.555-1.3-1.881-3.017-1.546l-2.864.559-.545-.6,10.2-4.731.545.6.517,2.645-2.617.508a5.017,5.017,0,0,1,1.178,1.9l1.29-.959.545.6.517,2.649-1.839.359a5.1,5.1,0,0,1-4.316,5.718l8.6,7.734.545.6-3.674.717-9.122-8.344-.545-.6,2.9-2.6c1.714-.335,2.519-1.006,2.216-2.566l-5.481,1.066-.545-.6,5.513-3.11Z" transform="translate(-116.71 -454.85)" fill="url(#linear-gradient-4)"/>
              </g>
              <path id="Path_40339" data-name="Path 40339" d="M122.438,460.478c-.3-1.555-1.3-1.881-3.017-1.546l-2.864.559-.517-2.645,10.714-2.086.517,2.645-2.617.508a5.016,5.016,0,0,1,1.178,1.9l1.839-.359.517,2.649-1.839.359a5.1,5.1,0,0,1-4.316,5.718l9.154,8.335-3.674.717-9.122-8.344-.517-2.645,2.864-.559c1.714-.335,2.519-1.006,2.216-2.566l-5.481,1.066-.517-2.649,5.481-1.066Z" transform="translate(-116.04 -454.76)" fill="#fcc659"/>
            </g>
            <g id="Group_75662" data-name="Group 75662" transform="translate(6.135 5.842)">
              <path id="Path_40340" data-name="Path 40340" d="M99.67,446.8a7.47,7.47,0,0,1,3.4,3.571h0a7.489,7.489,0,0,1,3.408-3.576h0a7.479,7.479,0,0,1-3.408-3.571h0A7.479,7.479,0,0,1,99.67,446.8Z" transform="translate(-99.67 -443.22)" fill="#ffe6a6"/>
              <path id="Path_40341" data-name="Path 40341" d="M114.65,460.427a4.346,4.346,0,0,1,1.979,2.077h0a4.367,4.367,0,0,1,1.979-2.077h0a4.325,4.325,0,0,1-1.979-2.077h0A4.367,4.367,0,0,1,114.65,460.427Z" transform="translate(-107.675 -451.305)" fill="#ffe6a6"/>
            </g>
          </g>
          <g id="Group_75664" data-name="Group 75664" transform="translate(69.01 138.213)">
            <path id="Path_40342" data-name="Path 40342" d="M148.2,300.4a7.47,7.47,0,0,1,3.4,3.571h0a7.489,7.489,0,0,1,3.408-3.576h0a7.479,7.479,0,0,1-3.408-3.571h0A7.48,7.48,0,0,1,148.2,300.4Z" transform="translate(-148.2 -296.82)" fill="#ffe6a6"/>
            <path id="Path_40343" data-name="Path 40343" d="M197.56,344.147a4.346,4.346,0,0,1,1.979,2.077h0a4.366,4.366,0,0,1,1.979-2.077h0a4.325,4.325,0,0,1-1.979-2.077h0A4.367,4.367,0,0,1,197.56,344.147Z" transform="translate(-174.576 -321)" fill="#ffe6a6"/>
          </g>
          <path id="Path_40344" data-name="Path 40344" d="M400.49,86.346a7.47,7.47,0,0,1,3.4,3.571h0a7.489,7.489,0,0,1,3.408-3.576h0a7.48,7.48,0,0,1-3.408-3.571h0A7.479,7.479,0,0,1,400.49,86.346Z" transform="translate(-214.006 -44.226)" fill="#ffe6a6"/>
          <path id="Path_40345" data-name="Path 40345" d="M594.88,487.406a7.469,7.469,0,0,1,3.4,3.571h0a7.49,7.49,0,0,1,3.408-3.576h0a7.48,7.48,0,0,1-3.408-3.571h0A7.479,7.479,0,0,1,594.88,487.406Z" transform="translate(-317.881 -258.539)" fill="#ffe6a6"/>
          <path id="Path_40346" data-name="Path 40346" d="M589.94,512.087a4.346,4.346,0,0,1,1.979,2.077h0a4.366,4.366,0,0,1,1.979-2.077h0a4.325,4.325,0,0,1-1.979-2.077h0A4.366,4.366,0,0,1,589.94,512.087Z" transform="translate(-315.241 -272.529)" fill="#ffe6a6"/>
          <g id="Group_75666" data-name="Group 75666" transform="translate(77.987 142.269)">
            <g id="Group_75665" data-name="Group 75665">
              <path id="Path_40347" data-name="Path 40347" d="M173.491,311.015c0-1.588-.922-2.1-2.663-2.1h-2.92l-.419-.694,10.914-2.7.419.694v2.7h-2.663a4.99,4.99,0,0,1,.792,2.1l1.448-.694.419.694v2.7h-1.872a5.1,5.1,0,0,1-5.332,4.791l6.971,9.233.419.694h-3.744L167.9,318.5l-.419-.694,3.339-2c1.746,0,2.663-.508,2.663-2.1H167.9l-.419-.694,6.007-2Z" transform="translate(-167.48 -305.53)" fill="url(#linear-gradient-5)"/>
            </g>
            <path id="Path_40348" data-name="Path 40348" d="M173.523,310.321c0-1.588-.922-2.1-2.663-2.1h-2.92v-2.7h10.914v2.7h-2.663a4.99,4.99,0,0,1,.792,2.1h1.872v2.7h-1.872a5.1,5.1,0,0,1-5.331,4.791l7.394,9.932H175.3l-7.362-9.932v-2.7h2.92c1.746,0,2.663-.508,2.663-2.1H167.94v-2.7h5.583Z" transform="translate(-167.726 -305.53)" fill="#fcc659"/>
          </g>
        </g>
      </g>
    </g>
  </g>
</svg>
