<svg id="Component_95_1" data-name="Component 95 – 1" xmlns="http://www.w3.org/2000/svg" xmlns:xlink="http://www.w3.org/1999/xlink" width="430" height="430" viewBox="0 0 430 430">
  <defs>
    <radialGradient id="radial-gradient" cx="0.5" cy="0.5" r="0.5" gradientUnits="objectBoundingBox">
      <stop offset="0" stop-color="#fff"/>
      <stop offset="1" stop-color="#fff"/>
    </radialGradient>
  </defs>
  <rect id="Rectangle_18153" data-name="Rectangle 18153" width="430" height="430" fill="url(#radial-gradient)"/>
  <g id="Folder" transform="translate(69.608 72)">
    <g id="Group_75613" data-name="Group 75613" transform="translate(-0.001)">
      <path id="Path_40009" data-name="Path 40009" d="M247.863,209.639c-56.961-32.885-149.018-32.885-205.61,0s-56.3,86.21.667,119.1,149.025,32.891,205.617,0,56.293-86.21-.674-119.1Z" transform="translate(0.001 -67.408)" fill="#f5f5f5"/>
      <path id="Path_40010" data-name="Path 40010" d="M75.583,274.526c18.826-10.868,49.245-10.868,67.95,0,16.525,9.6,18.362,24.476,5.58,35.306,10.309-.636,21,1.328,28.874,5.9,13.824,8.034,13.748,21.057-.165,29.084s-36.393,8.034-50.217,0c-11-6.388-13.188-15.94-6.623-23.618-15.845,2.294-33.285-.146-45.628-7.316-18.705-10.868-18.6-28.493.222-39.361Z" transform="translate(-22.371 -97.072)" fill="#e0e0e0"/>
      <path id="Path_40011" data-name="Path 40011" d="M329.612,285.41l-78.1-45.444a1.456,1.456,0,0,1,0-2.523l29.033-16.875a1.464,1.464,0,0,1,1.462,0l78.831,45.864a1.456,1.456,0,0,1,0,2.523l-28.3,16.449a2.9,2.9,0,0,1-2.924,0Z" transform="translate(-91.389 -80.308)" fill="#e0e0e0"/>
      <path id="Path_40012" data-name="Path 40012" d="M387.22,349.749c-4.627-2.676-12.114-2.676-16.709,0s-4.576,7.01.057,9.68,12.114,2.676,16.709,0S391.853,352.425,387.22,349.749Z" transform="translate(-133.769 -126.724)" fill="#e0e0e0"/>
      <g id="Group_75563" data-name="Group 75563" transform="translate(35.193 7.379)">
        <g id="Group_75558" data-name="Group 75558" transform="translate(0.013 24.8)">
          <g id="Group_75556" data-name="Group 75556">
            <path id="Path_40013" data-name="Path 40013" d="M84.285,60.95,62.44,73.56l.044,16.7L84.336,77.647Z" transform="translate(-57.959 -54.391)" fill="none"/>
            <path id="Path_40014" data-name="Path 40014" d="M96.81,60.283l.051,16.7,2.021,1.176L98.825,59.12Z" transform="translate(-70.484 -53.724)" fill="#f0f0f0"/>
            <path id="Path_40015" data-name="Path 40015" d="M62.51,99.836l.006,2.339L86.382,88.4,84.361,87.22Z" transform="translate(-57.985 -63.964)" fill="#f5f5f5"/>
            <path id="Path_40016" data-name="Path 40016" d="M87.334,52.48,58.58,69.081l.07,24.654L87.4,77.134ZM61.084,89.515V87.176l-.051-16.7L82.878,57.863,84.893,56.7l.051,19.036L61.078,89.515Z" transform="translate(-56.553 -51.304)" fill="#e0e0e0"/>
            <path id="Path_40017" data-name="Path 40017" d="M86.171,51.806,84.15,50.63l-28.76,16.6,2.028,1.176Z" transform="translate(-55.39 -50.63)" fill="#f5f5f5"/>
            <path id="Path_40018" data-name="Path 40018" d="M55.39,76.75l.07,24.654,2.027,1.176-.07-24.654Z" transform="translate(-55.39 -60.149)" fill="#f0f0f0"/>
          </g>
          <g id="Group_75557" data-name="Group 75557" transform="translate(5.523 12.896)">
            <path id="Path_40019" data-name="Path 40019" d="M77.942,70.92,83.9,75.611,83.91,80.2,64.1,91.64l-.019-4.583,3.782-7.506,3.388,2.638-1.195,3.725L71.79,82.6Z" transform="translate(-64.08 -70.92)" fill="#e0e0e0"/>
            <path id="Path_40020" data-name="Path 40020" d="M74.684,74.427c.934-.54,1.691-.108,1.7.966A3.717,3.717,0,0,1,74.7,78.31c-.934.54-1.691.108-1.7-.966A3.717,3.717,0,0,1,74.684,74.427Z" transform="translate(-67.331 -72.113)" fill="#e0e0e0"/>
          </g>
        </g>
        <g id="Group_75561" data-name="Group 75561" transform="translate(0 62.274)">
          <g id="Group_75559" data-name="Group 75559">
            <path id="Path_40021" data-name="Path 40021" d="M84.261,119.91,62.41,132.52l.051,16.7,21.845-12.616Z" transform="translate(-57.936 -113.351)" fill="none"/>
            <path id="Path_40022" data-name="Path 40022" d="M96.79,119.243l.044,16.7,2.027,1.176L98.8,118.08Z" transform="translate(-70.464 -112.684)" fill="#f0f0f0"/>
            <path id="Path_40023" data-name="Path 40023" d="M62.49,158.8l.006,2.339,23.866-13.779-2.027-1.176Z" transform="translate(-57.965 -122.924)" fill="#f5f5f5"/>
            <path id="Path_40024" data-name="Path 40024" d="M87.314,111.44l-28.754,16.6.07,24.654,28.754-16.6ZM61.064,148.475v-2.339l-.051-16.7,21.845-12.616,2.015-1.163.051,19.036L61.058,148.475Z" transform="translate(-56.532 -110.264)" fill="#e0e0e0"/>
            <path id="Path_40025" data-name="Path 40025" d="M86.151,110.766l-2.028-1.176-28.754,16.6,2.021,1.176Z" transform="translate(-55.37 -109.59)" fill="#f5f5f5"/>
            <path id="Path_40026" data-name="Path 40026" d="M55.37,135.71l.07,24.654,2.021,1.176-.07-24.654Z" transform="translate(-55.37 -119.109)" fill="#f0f0f0"/>
          </g>
          <g id="Group_75560" data-name="Group 75560" transform="translate(5.523 12.896)">
            <path id="Path_40027" data-name="Path 40027" d="M77.922,129.88l5.955,4.691.013,4.589L64.073,150.6l-.013-4.583,3.775-7.506,3.394,2.638-1.2,3.724,1.741-3.311Z" transform="translate(-64.06 -129.88)" fill="#e0e0e0"/>
            <path id="Path_40028" data-name="Path 40028" d="M74.664,133.387c.934-.54,1.691-.108,1.7.966a3.717,3.717,0,0,1-1.684,2.917c-.934.54-1.691.108-1.7-.966A3.7,3.7,0,0,1,74.664,133.387Z" transform="translate(-67.311 -131.073)" fill="#e0e0e0"/>
          </g>
        </g>
        <g id="Group_75562" data-name="Group 75562" transform="translate(44.783)">
          <path id="Path_40029" data-name="Path 40029" d="M149.916,76.931h0l.782-.381h0c-.261.133-.528.261-.788.388Z" transform="translate(-134.605 -35.275)" fill="none"/>
          <path id="Path_40030" data-name="Path 40030" d="M149.47,77.29h0c.1-.044.191-.1.286-.14h0C149.661,77.194,149.565,77.245,149.47,77.29Z" transform="translate(-134.445 -35.494)" fill="none"/>
          <path id="Path_40031" data-name="Path 40031" d="M157.034,25.96l-5.974,3.451-6.07,3.508,6.07-3.508Z" transform="translate(-132.812 -16.839)" fill="none"/>
          <path id="Path_40032" data-name="Path 40032" d="M164.012,50.868,164,45.326l-.019-5.066L164,45.326Z" transform="translate(-139.733 -22.051)" fill="none"/>
          <path id="Path_40033" data-name="Path 40033" d="M151.16,76.493c.057-.025.108-.051.165-.083-.057.025-.108.051-.165.083Z" transform="translate(-135.061 -35.224)" fill="none"/>
          <path id="Path_40034" data-name="Path 40034" d="M164.125,90.2l-.013-4.633L164.1,81.51l.013,4.055Z" transform="translate(-139.776 -37.083)" fill="none"/>
          <path id="Path_40035" data-name="Path 40035" d="M145.82,78.323c.769-.273,1.544-.6,2.32-.953h0C147.364,77.732,146.589,78.05,145.82,78.323Z" transform="translate(-133.115 -35.574)" fill="none"/>
          <path id="Path_40036" data-name="Path 40036" d="M136.03,52.87l.051,17.809.025,10.315-.025-10.315Z" transform="translate(-129.547 -26.646)" fill="none"/>
          <path id="Path_40037" data-name="Path 40037" d="M153.942,85.565l-.013-4.055c-.064.032-.121.07-.184.108-.114.064-.222.133-.337.2a42.766,42.766,0,0,0-8.8,7.722q-.7.763-1.373,1.544c-2.358,2.7-4.665,5.561-7.042,8.243l.019,6.553,2.86-1.653a62.886,62.886,0,0,1,14.873-18.661Z" transform="translate(-129.605 -37.083)" fill="#ebebeb"/>
          <path id="Path_40038" data-name="Path 40038" d="M160.669,100.6l-.013-5.422a34.036,34.036,0,0,0-6.076,8.936l6.1-3.515Z" transform="translate(-136.307 -42.065)" fill="#ebebeb"/>
          <path id="Path_40039" data-name="Path 40039" d="M149.529,101.46a34.191,34.191,0,0,1,6.076-8.936l-.013-4.633a62.885,62.885,0,0,0-14.873,18.661l8.809-5.085h0Z" transform="translate(-131.256 -39.408)" fill="#fafafa"/>
          <path id="Path_40040" data-name="Path 40040" d="M149.47,77.37h0" transform="translate(-134.445 -35.574)" fill="none" stroke="gray" stroke-linecap="round" stroke-linejoin="round"/>
          <path id="Path_40041" data-name="Path 40041" d="M149.92,77.15h0" transform="translate(-134.609 -35.494)" fill="none" stroke="gray" stroke-linecap="round" stroke-linejoin="round"/>
          <path id="Path_40042" data-name="Path 40042" d="M141.843,69.538c.14-.044.273-.1.413-.146.769-.273,1.544-.6,2.32-.953.1-.044.191-.089.286-.14.261-.127.528-.254.788-.388.451-.229.9-.47,1.36-.725-.451.254-.9.5-1.36.725.057-.025.108-.051.165-.083.4-.2.794-.419,1.195-.648.083-.051.172-.1.254-.146s.14-.083.21-.121a43.322,43.322,0,0,0,6.114-4.386l.267-.229-.019-6.852c-4.347,2.225-8.625,2.917-12.076,1.843a10.633,10.633,0,0,1-5.72-4.43l.051,17.8a21.183,21.183,0,0,0,5.765-1.138Z" transform="translate(-129.551 -26.642)" fill="#fafafa"/>
          <path id="Path_40043" data-name="Path 40043" d="M144.59,87.285a42.415,42.415,0,0,1,8.8-7.722c.114-.07.222-.133.337-.2l.184-.108L153.9,75.33a85.117,85.117,0,0,0-16.017,12.19c-.578.553-1.157,1.119-1.735,1.659l.025,7.888c2.371-2.682,4.684-5.542,7.042-8.243.451-.515.909-1.036,1.373-1.544Z" transform="translate(-129.591 -34.831)" fill="#fafafa"/>
          <path id="Path_40044" data-name="Path 40044" d="M153.884,72.56l-.013-4.83-.267.229a43.692,43.692,0,0,1-6.114,4.386c-.07.038-.14.083-.21.121s-.172.1-.254.146c-.4.229-.794.439-1.195.648-.057.025-.108.051-.165.083-.038.019-.07.038-.108.057a.02.02,0,0,0-.013.006.02.02,0,0,0,.013-.006c.038-.019.07-.038.108-.057q-.391.2-.782.381c-.1.044-.191.1-.286.14-.775.362-1.551.68-2.32.953.146-.051.292-.108.439-.159-.146.057-.292.108-.439.159s-.273.1-.413.146A21.137,21.137,0,0,1,136.1,76.1l.032,10.315c.578-.54,1.157-1.106,1.735-1.659a85.117,85.117,0,0,1,16.017-12.19Z" transform="translate(-129.573 -32.061)" fill="#ebebeb"/>
          <path id="Path_40045" data-name="Path 40045" d="M157.082,42.093l-.013-5.066a8.509,8.509,0,0,1-6-5.638L145,34.9a12.539,12.539,0,0,0,12.089,7.195Z" transform="translate(-132.816 -18.818)" fill="#fafafa"/>
          <path id="Path_40046" data-name="Path 40046" d="M141.739,51.49c3.451,1.074,7.729.381,12.076-1.843L153.8,44.1a12.539,12.539,0,0,1-12.089-7.195L136,40.209l.019,6.852a10.6,10.6,0,0,0,5.72,4.43Z" transform="translate(-129.536 -20.83)" fill="#ebebeb"/>
          <path id="Path_40047" data-name="Path 40047" d="M154.177,23.25,134.41,34.665l.146,51.7,19.767-11.415ZM135.56,84.641l-.019-6.553-.025-7.888-.032-10.315-.051-17.8-.019-6.852,5.714-3.3,6.07-3.508,5.974-3.451.025,9.089.013,5.066.013,5.542.019,6.852.013,4.83.013,3.928.013,4.055.013,4.633.013,5.422-6.1,3.515h0L138.4,82.988l-2.86,1.653Z" transform="translate(-128.957 -15.852)" fill="#fff"/>
          <path id="Path_40048" data-name="Path 40048" d="M150.96,76.646a.02.02,0,0,0,.013-.006" transform="translate(-134.988 -35.308)" fill="none" stroke="gray" stroke-linecap="round" stroke-linejoin="round"/>
          <path id="Path_40049" data-name="Path 40049" d="M150.99,76.607c.038-.019.07-.038.108-.057" transform="translate(-134.999 -35.275)" fill="none" stroke="gray" stroke-linecap="round" stroke-linejoin="round"/>
          <path id="Path_40050" data-name="Path 40050" d="M152.51,75.4c-.451.254-.9.5-1.36.725" transform="translate(-135.057 -34.856)" fill="none" stroke="gray" stroke-linecap="round" stroke-linejoin="round"/>
          <line id="Line_10" data-name="Line 10" transform="translate(16.099 41.268)" fill="none" stroke="gray" stroke-linecap="round" stroke-linejoin="round"/>
          <path id="Path_40051" data-name="Path 40051" d="M145.82,78.779c.146-.051.292-.108.439-.159" transform="translate(-133.115 -36.03)" fill="none" stroke="gray" stroke-linecap="round" stroke-linejoin="round"/>
          <path id="Path_40052" data-name="Path 40052" d="M160.54,35.049l-.025-9.089-5.974,3.451A8.52,8.52,0,0,0,160.54,35.049Z" transform="translate(-136.292 -16.839)" fill="#ebebeb"/>
          <path id="Path_40053" data-name="Path 40053" d="M154.407,104.6,134.64,116.015l.006,1.373,20.949-12.1Z" transform="translate(-129.041 -45.497)" fill="#cacaca"/>
          <path id="Path_40054" data-name="Path 40054" d="M165.51,22.856l.146,51.7,1.189.693L166.7,22.17Z" transform="translate(-140.29 -15.458)" fill="#f0f0f0"/>
          <path id="Path_40055" data-name="Path 40055" d="M156.7,13.52,129.38,29.3l.172,60.406,27.324-15.775L156.7,13.52ZM132.723,84.2V82.824l-.153-51.7L152.337,19.7l1.182-.686.153,53.077-20.949,12.1Z" transform="translate(-127.124 -12.306)" fill="#e0e0e0"/>
          <path id="Path_40056" data-name="Path 40056" d="M155.41,12.824l-2.25-1.214L125.83,27.385l2.256,1.214Z" transform="translate(-125.83 -11.61)" fill="#f5f5f5"/>
          <path id="Path_40057" data-name="Path 40057" d="M125.83,36.43,126,96.836l2.256,1.214-.172-60.406Z" transform="translate(-125.83 -20.655)" fill="#f0f0f0"/>
        </g>
      </g>
      <g id="Group_75568" data-name="Group 75568" transform="translate(163.116 102.03)">
        <path id="Path_40058" data-name="Path 40058" d="M264.236,248.5l-2.886,1.678.013-3.337Z" transform="translate(-258.356 -191.983)" fill="#e6e6e6"/>
        <path id="Path_40059" data-name="Path 40059" d="M261.48,221.448v-.038h0Z" transform="translate(-258.404 -182.716)" fill="#787878"/>
        <rect id="Rectangle_18188" data-name="Rectangle 18188" height="81.1" transform="translate(38.198 18.406)" fill="#cfcfcf"/>
        <path id="Path_40060" data-name="Path 40060" d="M261.55,195.96,331.8,236.478h0Z" transform="translate(-258.429 -173.441)" fill="#cfcfcf"/>
        <path id="Path_40061" data-name="Path 40061" d="M262.519,226.958l67.429,38.891v3.33l2.994,1.735.108-39.164-76.3-44.02-.108,39.164,3,1.735V225.3l2.879,1.659Zm67.461,19.226L259.729,205.66l.038-12.705,70.251,40.525h0Zm-.044,16.176-70.251-40.525.038-12.667v-.038h0l70.251,40.525h0l-.038,12.7Z" transform="translate(-256.64 -170.442)" fill="#ebebeb"/>
        <path id="Path_40062" data-name="Path 40062" d="M261.42,234.115l.038-12.667v-.038l70.251,40.525h0l-.038,12.7Z" transform="translate(-258.382 -182.716)" fill="#f5f5f5"/>
        <path id="Path_40063" data-name="Path 40063" d="M261.49,208.659l.038-12.7,70.251,40.518h0l-.038,12.705Z" transform="translate(-258.407 -173.441)" fill="#f5f5f5"/>
        <path id="Path_40064" data-name="Path 40064" d="M376.8,247.074l29.758-17.294-.108,39.171L376.69,286.245Z" transform="translate(-300.389 -185.766)" fill="#e6e6e6"/>
        <path id="Path_40065" data-name="Path 40065" d="M333.111,221.838l-76.3-44.014,29.758-17.294,76.3,44.014Z" transform="translate(-256.702 -160.53)" fill="#f5f5f5"/>
        <g id="Group_75565" data-name="Group 75565" transform="translate(30.616 41.084)">
          <path id="Path_40066" data-name="Path 40066" d="M317.058,235.611v2.282c-.013,1.144-.82,1.608-1.811,1.036l-8.638-4.983a3.981,3.981,0,0,1-1.8-3.114V228.55l12.248,7.068Z" transform="translate(-304.81 -226.402)" fill="#ebebeb"/>
          <path id="Path_40067" data-name="Path 40067" d="M317.071,232.238l-.006,2.142-12.235-7.068.006-2.142Z" transform="translate(-304.817 -225.17)" fill="#e0e0e0"/>
          <g id="Group_75564" data-name="Group 75564" transform="translate(0.013)" opacity="0.1">
            <path id="Path_40068" data-name="Path 40068" d="M317.071,232.238l-.006,2.142-12.235-7.068.006-2.142Z" transform="translate(-304.83 -225.17)"/>
          </g>
        </g>
        <g id="Group_75567" data-name="Group 75567" transform="translate(30.616 57.399)">
          <path id="Path_40069" data-name="Path 40069" d="M317.058,261.271v2.282c-.013,1.144-.82,1.608-1.811,1.036l-8.638-4.983a3.981,3.981,0,0,1-1.8-3.114V254.21l12.248,7.068Z" transform="translate(-304.81 -252.068)" fill="#ebebeb"/>
          <path id="Path_40070" data-name="Path 40070" d="M317.071,257.908l-.006,2.136-12.235-7.061.006-2.142Z" transform="translate(-304.817 -250.84)" fill="#e0e0e0"/>
          <g id="Group_75566" data-name="Group 75566" transform="translate(0.013)" opacity="0.1">
            <path id="Path_40071" data-name="Path 40071" d="M317.071,257.908l-.006,2.136-12.235-7.061.006-2.142Z" transform="translate(-304.83 -250.84)"/>
          </g>
        </g>
      </g>
      <g id="Group_75574" data-name="Group 75574" transform="translate(220.763 159.798)">
        <g id="Group_75570" data-name="Group 75570" transform="translate(13.052 41.356)">
          <path id="Path_40072" data-name="Path 40072" d="M390.391,326.7l-11.212.324-11.212-.324c-.483,7.57,1,15.286,3.032,19.055h.006a5.105,5.105,0,0,0,2.218,2.256,13.169,13.169,0,0,0,11.936,0,4.972,4.972,0,0,0,2.218-2.314c2.021-3.788,3.483-11.46,3-18.991Z" transform="translate(-367.875 -320.209)" fill="#fff"/>
          <path id="Path_40073" data-name="Path 40073" d="M387.133,318.389c4.392,2.536,4.417,6.648.051,9.184s-11.46,2.536-15.851,0-4.417-6.648-.051-9.184S382.741,315.854,387.133,318.389Z" transform="translate(-367.929 -316.487)" fill="#ebebeb"/>
          <path id="Path_40074" data-name="Path 40074" d="M386.81,320.22c3.426,1.977,3.445,5.186.038,7.163a13.64,13.64,0,0,1-12.368,0c-3.426-1.977-3.445-5.186-.038-7.163A13.64,13.64,0,0,1,386.81,320.22Z" transform="translate(-369.341 -317.307)" fill="#e0e0e0"/>
          <g id="Group_75569" data-name="Group 75569" transform="translate(2.557 1.43)" opacity="0.15">
            <path id="Path_40075" data-name="Path 40075" d="M386.81,320.22c3.426,1.977,3.445,5.186.038,7.163a13.64,13.64,0,0,1-12.368,0c-3.426-1.977-3.445-5.186-.038-7.163A13.64,13.64,0,0,1,386.81,320.22Z" transform="translate(-371.899 -318.737)"/>
          </g>
        </g>
        <g id="Group_75571" data-name="Group 75571" transform="translate(19.968)">
          <path id="Path_40076" data-name="Path 40076" d="M401.576,251.433c-25.264,8.269-25.493,25.169-19.8,37.207,1.436,2.434,5.784,3.744,9.565-11.224l-6.635.852,7.735-3.922,2.008-6.006-6.445.477,8.186-3.445a120.37,120.37,0,0,1,5.39-13.951Z" transform="translate(-378.757 -251.42)" fill="#ba68c8"/>
          <path id="Path_40077" data-name="Path 40077" d="M401.576,251.433c-25.264,8.269-25.493,25.169-19.8,37.207,1.436,2.434,5.784,3.744,9.565-11.224l-6.635.852,7.735-3.922,2.008-6.006-6.445.477,8.186-3.445a120.37,120.37,0,0,1,5.39-13.951Z" transform="translate(-378.757 -251.42)" opacity="0.2"/>
          <path id="Path_40078" data-name="Path 40078" d="M401.576,251.433c-25.264,8.269-25.493,25.169-19.8,37.207,1.436,2.434,5.784,3.744,9.565-11.224l-6.635.852,7.735-3.922,2.008-6.006-6.445.477,8.186-3.445a120.37,120.37,0,0,1,5.39-13.951Z" transform="translate(-378.757 -251.42)" fill="#fff" opacity="0.2"/>
          <path id="Path_40079" data-name="Path 40079" d="M396.187,258.09C382.865,268.2,381.664,279.8,385.426,291.9,384.1,281.238,382.655,270.465,396.187,258.09Z" transform="translate(-380.511 -253.851)" fill="#fff"/>
        </g>
        <g id="Group_75572" data-name="Group 75572" transform="translate(0 17.18)">
          <path id="Path_40080" data-name="Path 40080" d="M347.34,278.45c24.9,3.508,27.921,19.207,24.616,31.36-.934,2.511-4.767,4.449-10.773-8.86l6.318-.311-7.849-2.364-2.866-5.256,6.082-.623-8.193-1.843a113.93,113.93,0,0,0-7.335-12.1Z" transform="translate(-347.34 -278.45)" fill="#ba68c8"/>
          <path id="Path_40081" data-name="Path 40081" d="M347.34,278.45c24.9,3.508,27.921,19.207,24.616,31.36-.934,2.511-4.767,4.449-10.773-8.86l6.318-.311-7.849-2.364-2.866-5.256,6.082-.623-8.193-1.843a113.93,113.93,0,0,0-7.335-12.1Z" transform="translate(-347.34 -278.45)" fill="#fff" opacity="0.2"/>
          <path id="Path_40082" data-name="Path 40082" d="M347.34,278.45c24.9,3.508,27.921,19.207,24.616,31.36-.934,2.511-4.767,4.449-10.773-8.86l6.318-.311-7.849-2.364-2.866-5.256,6.082-.623-8.193-1.843a113.93,113.93,0,0,0-7.335-12.1Z" transform="translate(-347.34 -278.45)" opacity="0.1"/>
          <path id="Path_40083" data-name="Path 40083" d="M358.91,282.78c14.084,7.2,17.135,17.8,15.642,29.694-.528-10.144-.979-20.421-15.642-29.694Z" transform="translate(-351.556 -280.028)" fill="#fff"/>
        </g>
        <g id="Group_75573" data-name="Group 75573" transform="translate(24.082 23.065)">
          <path id="Path_40084" data-name="Path 40084" d="M411.225,287.71c-22.836.375-27.317,14.186-25.7,25.512.559,2.364,3.794,4.544,10.7-6.782l-5.663-.985,7.341-1.252,3.172-4.417-5.415-1.246,7.589-.744a104.692,104.692,0,0,1,7.964-10.08Z" transform="translate(-385.23 -287.71)" fill="#ba68c8"/>
          <path id="Path_40085" data-name="Path 40085" d="M405.221,290.31c-13.5,4.913-17.434,14.123-17.421,25.016C389.414,306.244,390.971,297.034,405.221,290.31Z" transform="translate(-386.167 -288.657)" fill="#fff"/>
          <path id="Path_40086" data-name="Path 40086" d="M411.225,287.71c-22.836.375-27.317,14.186-25.7,25.512.559,2.364,3.794,4.544,10.7-6.782l-5.663-.985,7.341-1.252,3.172-4.417-5.415-1.246,7.589-.744a104.692,104.692,0,0,1,7.964-10.08Z" transform="translate(-385.23 -287.71)" fill="#fff" opacity="0.2"/>
        </g>
      </g>
      <g id="Group_75577" data-name="Group 75577" transform="translate(192.62)">
        <g id="Group_75575" data-name="Group 75575">
          <path id="Path_40087" data-name="Path 40087" d="M307.337,2.3,303.314,0l-.254,88.041.013.006,32.465,18.54.013-4.614.235-83.426Z" transform="translate(-303.06)" fill="#f0f0f0"/>
          <path id="Path_40088" data-name="Path 40088" d="M307.1,85.733,307.337,2.3,303.314,0l-.254,88.041.013.006,4.042-2.307Z" transform="translate(-303.06)" opacity="0.1"/>
          <path id="Path_40089" data-name="Path 40089" d="M335.558,151.133,307.122,134.9l-4.042,2.307,32.465,18.54Z" transform="translate(-303.067 -49.16)" opacity="0.2"/>
        </g>
        <g id="Group_75576" data-name="Group 75576" transform="translate(44.427 25.366)">
          <path id="Path_40090" data-name="Path 40090" d="M377.237,42.211l-4.023-2.3-.254,88.041.013.006,32.465,18.54.013-4.614.235-83.426Z" transform="translate(-372.96 -39.91)" fill="#f0f0f0"/>
          <path id="Path_40091" data-name="Path 40091" d="M377,125.643l.235-83.433-4.023-2.3-.254,88.041.013.006,4.042-2.307Z" transform="translate(-372.96 -39.91)" opacity="0.1"/>
          <path id="Path_40092" data-name="Path 40092" d="M405.458,191.043,377.022,174.81l-4.042,2.307,32.465,18.54Z" transform="translate(-372.967 -89.07)" opacity="0.2"/>
        </g>
      </g>
      <g id="Group_75578" data-name="Group 75578" transform="translate(31.735 117.354)">
        <path id="Path_40093" data-name="Path 40093" d="M130.261,207.292c6.419,4.455,13.652,7.544,19.01,13.519,10.017,11.167,10.246,29.129,2.383,41.9s-22.493,20.44-37.385,22.194c-15.629,1.843-32.027-2.479-44.287-12.337S49.924,247.3,49.93,231.559s8.066-31.4,21.247-40c12.025-7.843,29.3-10.08,41.364-1.106,6.1,4.538,10.163,11.231,16.252,15.781C129.276,206.6,129.765,206.949,130.261,207.292Z" transform="translate(-49.93 -184.641)" fill="#ba68c8"/>
        <path id="Path_40094" data-name="Path 40094" d="M130.261,207.292c6.419,4.455,13.652,7.544,19.01,13.519,10.017,11.167,10.246,29.129,2.383,41.9s-22.493,20.44-37.385,22.194c-15.629,1.843-32.027-2.479-44.287-12.337S49.924,247.3,49.93,231.559s8.066-31.4,21.247-40c12.025-7.843,29.3-10.08,41.364-1.106,6.1,4.538,10.163,11.231,16.252,15.781C129.276,206.6,129.765,206.949,130.261,207.292Z" transform="translate(-49.93 -184.641)" opacity="0.2"/>
        <path id="Path_40095" data-name="Path 40095" d="M130.261,207.292c6.419,4.455,13.652,7.544,19.01,13.519,10.017,11.167,10.246,29.129,2.383,41.9s-22.493,20.44-37.385,22.194c-15.629,1.843-32.027-2.479-44.287-12.337S49.924,247.3,49.93,231.559s8.066-31.4,21.247-40c12.025-7.843,29.3-10.08,41.364-1.106,6.1,4.538,10.163,11.231,16.252,15.781C129.276,206.6,129.765,206.949,130.261,207.292Z" transform="translate(-49.93 -184.641)" fill="#fff" opacity="0.1"/>
        <path id="Path_40096" data-name="Path 40096" d="M63.122,229.5A45.932,45.932,0,0,1,102.3,184.91a32.546,32.546,0,0,1,4.43.744,44.778,44.778,0,0,0-42.393,43.874c-.286,14.644,6.877,29.574,19.163,39.927,9.629,8.116,22.417,13.5,36.476,15.438-.3.038-.6.083-.9.114q-1.9.219-3.807.324c-12.489-2.422-23.8-7.57-32.554-14.949C70.145,259.794,62.823,244.508,63.115,229.5Z" transform="translate(-54.732 -184.739)" fill="#fff"/>
      </g>
      <g id="Group_75592" data-name="Group 75592" transform="translate(53.758 76.219)">
        <path id="Path_40097" data-name="Path 40097" d="M140.276,281.4c-.013-.108-.032-.21-.044-.318A16.9,16.9,0,0,0,126.541,267,53.561,53.561,0,0,1,109,260.284c-3.833-2.32-7.455-5.161-11.752-6.413a19.173,19.173,0,0,0-12.667.737,14.7,14.7,0,0,1,14.758-3.75c-3.426-5.244-6.445-10.894-7.621-17.046s-.343-12.909,3.369-17.955a18.061,18.061,0,0,1,27.883-1.494c3.674,4.017,5.746,9.674,8.161,14.561,1.735,3.508,3.527,7.093,6.381,9.769,4.309,4.03,10.512,5.485,14.981,9.343,5.066,4.373,7.252,11.364,7.277,18.063a53,53,0,0,1-1.964,13.354,50.749,50.749,0,0,1-18.33,11.205,19.817,19.817,0,0,0,.8-9.254Z" transform="translate(-84.58 -152.197)" opacity="0.1"/>
        <g id="Group_75583" data-name="Group 75583" transform="translate(17.745 75.958)">
          <g id="Group_75580" data-name="Group 75580" transform="translate(39.787 47.662)">
            <path id="Path_40098" data-name="Path 40098" d="M191.849,315.106a44.717,44.717,0,0,0-.782,7.309l-1.735-.655a4.468,4.468,0,0,0-4.818,1.1l-.083.089a1.742,1.742,0,0,1-2.409.108h0a1.77,1.77,0,0,1-.6-1.258l-.235-7.379,10.659.686Z" transform="translate(-177.319 -314.42)" fill="#ffa8a7"/>
            <path id="Path_40099" data-name="Path 40099" d="M182.937,350.476c3.6,3.845,10.22,7.214,15.031,3.928l-.54,1.227c-4.811,3.28-11.434-.083-15.031-3.928s-1.265-6.515-4.5-9.928a11.772,11.772,0,0,1-2.8-4.157c.146-.369.28-.845.451-1.4a14.79,14.79,0,0,0,2.886,4.328C181.672,343.961,179.339,346.631,182.937,350.476Z" transform="translate(-175.1 -322.364)" fill="#f5f5f5"/>
            <path id="Path_40100" data-name="Path 40100" d="M177.573,327.773a7.041,7.041,0,0,0,1.131-2.625,1.513,1.513,0,0,1,.712-1.068l.038,1.239a1.722,1.722,0,0,0,.6,1.258,1.743,1.743,0,0,0,2.409-.108l.083-.089a4.492,4.492,0,0,1,4.818-1.1l1.761.661a1.348,1.348,0,0,1,.877,1.3c-.114,5.047,2.244,11.745,4.716,15.432,2.542,1.055,4.735,4.519,3.616,7.055l-.114.254c-4.811,3.28-11.434-.083-15.031-3.928s-1.265-6.515-4.5-9.928A14.66,14.66,0,0,1,175.8,331.8a15.772,15.772,0,0,1,1.773-4.023Z" transform="translate(-175.355 -317.94)" fill="#ba68c8"/>
            <path id="Path_40101" data-name="Path 40101" d="M177.573,327.773a7.041,7.041,0,0,0,1.131-2.625,1.513,1.513,0,0,1,.712-1.068l.038,1.239a1.722,1.722,0,0,0,.6,1.258,1.743,1.743,0,0,0,2.409-.108l.083-.089a4.492,4.492,0,0,1,4.818-1.1l1.761.661a1.348,1.348,0,0,1,.877,1.3c-.114,5.047,2.244,11.745,4.716,15.432,2.542,1.055,4.735,4.519,3.616,7.055l-.114.254c-4.811,3.28-11.434-.083-15.031-3.928s-1.265-6.515-4.5-9.928A14.66,14.66,0,0,1,175.8,331.8a15.772,15.772,0,0,1,1.773-4.023Z" transform="translate(-175.355 -317.94)" opacity="0.3"/>
            <path id="Path_40102" data-name="Path 40102" d="M177.573,327.773a7.041,7.041,0,0,0,1.131-2.625,1.513,1.513,0,0,1,.712-1.068l.038,1.239a1.722,1.722,0,0,0,.6,1.258,1.743,1.743,0,0,0,2.409-.108l.083-.089a4.492,4.492,0,0,1,4.818-1.1l1.761.661a1.348,1.348,0,0,1,.877,1.3c-.114,5.047,2.244,11.745,4.716,15.432,2.542,1.055,4.735,4.519,3.616,7.055l-.114.254c-4.811,3.28-11.434-.083-15.031-3.928s-1.265-6.515-4.5-9.928A14.66,14.66,0,0,1,175.8,331.8a15.772,15.772,0,0,1,1.773-4.023Z" transform="translate(-175.355 -317.94)" fill="#fff" opacity="0.2"/>
            <g id="Group_75579" data-name="Group 75579" transform="translate(7.491 12.395)">
              <path id="Path_40103" data-name="Path 40103" d="M189.156,340.21a.613.613,0,0,1-.566-1.087,7.017,7.017,0,0,1,6.909.013c.108.4.222.794.343,1.189a6.773,6.773,0,0,0-6.686-.108Z" transform="translate(-187.392 -335.489)" fill="#fff"/>
              <path id="Path_40104" data-name="Path 40104" d="M187.766,335.916a.613.613,0,0,1-.566-1.087,7.369,7.369,0,0,1,7.188.057c.07.413.159.826.248,1.239a6.826,6.826,0,0,0-6.871-.2Z" transform="translate(-186.886 -333.922)" fill="#fff"/>
              <path id="Path_40105" data-name="Path 40105" d="M190.686,344.479a.613.613,0,0,1-.566-1.087,7.018,7.018,0,0,1,6.763-.07c.153.426.311.845.483,1.258a6.777,6.777,0,0,0-6.68-.1Z" transform="translate(-187.95 -337.044)" fill="#fff"/>
              <path id="Path_40106" data-name="Path 40106" d="M199.054,352.839c2.542,1.055,4.735,4.519,3.616,7.055l-.114.254c-4.741,3.235-11.237.013-14.866-3.763,3.025-5.936,9.362-4.455,11.364-3.547Z" transform="translate(-187.179 -340.504)" fill="#fff"/>
              <path id="Path_40107" data-name="Path 40107" d="M192.364,348.65a.613.613,0,0,1-.566-1.087,7.023,7.023,0,0,1,6.775-.064c.216.47.439.922.661,1.354A6.826,6.826,0,0,0,192.364,348.65Z" transform="translate(-188.561 -338.564)" fill="#fff"/>
            </g>
          </g>
          <g id="Group_75582" data-name="Group 75582" transform="translate(51.838 63.018)">
            <path id="Path_40108" data-name="Path 40108" d="M204.1,338.58a44.642,44.642,0,0,0,2.231,7l-1.85.1a4.483,4.483,0,0,0-3.966,2.949l-.044.114a1.752,1.752,0,0,1-2.161,1.074h0a1.761,1.761,0,0,1-1.055-.909l-3.191-6.655,10.029-3.674Z" transform="translate(-194.06 -338.58)" fill="#ffa8a7"/>
            <path id="Path_40109" data-name="Path 40109" d="M210.455,376.541c4.843,2.072,12.26,2.472,15.343-2.472v1.341c-3.076,4.945-10.493,4.544-15.343,2.472s-3.782-5.453-8.123-7.265a11.759,11.759,0,0,1-4.239-2.676c-.019-.394-.083-.89-.153-1.462a14.7,14.7,0,0,0,4.392,2.8C206.673,371.094,205.611,374.476,210.455,376.541Z" transform="translate(-195.474 -348.747)" fill="#f5f5f5"/>
            <path id="Path_40110" data-name="Path 40110" d="M197.855,355.926a6.986,6.986,0,0,0-.025-2.86,1.517,1.517,0,0,1,.222-1.265l.534,1.119a1.721,1.721,0,0,0,1.055.909,1.746,1.746,0,0,0,2.161-1.074l.044-.114a4.482,4.482,0,0,1,3.966-2.949l1.881-.1a1.343,1.343,0,0,1,1.322.833c1.932,4.665,6.794,9.845,10.544,12.216,2.752-.064,6.159,2.218,6.159,5v.273c-3.076,4.945-10.493,4.544-15.343,2.472s-3.782-5.447-8.123-7.265a14.87,14.87,0,0,1-4.392-2.8,15.952,15.952,0,0,1,0-4.392Z" transform="translate(-195.389 -342.591)" fill="#ba68c8"/>
            <path id="Path_40111" data-name="Path 40111" d="M197.855,355.926a6.986,6.986,0,0,0-.025-2.86,1.517,1.517,0,0,1,.222-1.265l.534,1.119a1.721,1.721,0,0,0,1.055.909,1.746,1.746,0,0,0,2.161-1.074l.044-.114a4.482,4.482,0,0,1,3.966-2.949l1.881-.1a1.343,1.343,0,0,1,1.322.833c1.932,4.665,6.794,9.845,10.544,12.216,2.752-.064,6.159,2.218,6.159,5v.273c-3.076,4.945-10.493,4.544-15.343,2.472s-3.782-5.447-8.123-7.265a14.87,14.87,0,0,1-4.392-2.8,15.952,15.952,0,0,1,0-4.392Z" transform="translate(-195.389 -342.591)" opacity="0.3"/>
            <path id="Path_40112" data-name="Path 40112" d="M197.855,355.926a6.986,6.986,0,0,0-.025-2.86,1.517,1.517,0,0,1,.222-1.265l.534,1.119a1.721,1.721,0,0,0,1.055.909,1.746,1.746,0,0,0,2.161-1.074l.044-.114a4.482,4.482,0,0,1,3.966-2.949l1.881-.1a1.343,1.343,0,0,1,1.322.833c1.932,4.665,6.794,9.845,10.544,12.216,2.752-.064,6.159,2.218,6.159,5v.273c-3.076,4.945-10.493,4.544-15.343,2.472s-3.782-5.447-8.123-7.265a14.87,14.87,0,0,1-4.392-2.8,15.952,15.952,0,0,1,0-4.392Z" transform="translate(-195.389 -342.591)" fill="#fff" opacity="0.2"/>
            <g id="Group_75581" data-name="Group 75581" transform="translate(8.849 11.377)">
              <path id="Path_40113" data-name="Path 40113" d="M212.078,363.529a.615.615,0,0,1-.96-.769,7.007,7.007,0,0,1,6.324-2.777c.261.318.521.636.794.947a6.767,6.767,0,0,0-6.159,2.6Z" transform="translate(-209.079 -357.745)" fill="#fff"/>
              <path id="Path_40114" data-name="Path 40114" d="M209.068,360.128a.615.615,0,0,1-.96-.769,7.378,7.378,0,0,1,6.6-2.847c.229.35.477.693.725,1.03A6.838,6.838,0,0,0,209.068,360.128Z" transform="translate(-207.983 -356.48)" fill="#fff"/>
              <path id="Path_40115" data-name="Path 40115" d="M215.2,366.82a.615.615,0,0,1-.96-.769,7.011,7.011,0,0,1,6.159-2.79c.311.33.629.648.947.96a6.774,6.774,0,0,0-6.152,2.606Z" transform="translate(-210.216 -358.945)" fill="#fff"/>
              <path id="Path_40116" data-name="Path 40116" d="M226.942,370.119c2.752-.064,6.159,2.218,6.159,5v.273c-3.032,4.875-10.271,4.551-15.12,2.561C218.355,371.3,224.743,370.094,226.942,370.119Z" transform="translate(-211.626 -361.45)" fill="#fff"/>
              <path id="Path_40117" data-name="Path 40117" d="M218.418,369.959a.615.615,0,0,1-.96-.769,7.01,7.01,0,0,1,6.178-2.79c.388.343.769.667,1.15.972A6.838,6.838,0,0,0,218.418,369.959Z" transform="translate(-211.39 -360.088)" fill="#fff"/>
            </g>
          </g>
          <path id="Path_40118" data-name="Path 40118" d="M145.912,239.436l24.247,13.512a12.023,12.023,0,0,1,5.968,12.693l-4.71,25.347,3.858,12.26c-3.33,4.468-10.976,4.691-10.976,4.691-4.265-8.555-7.392-12.184-9.813-19.353s-4.036-12.114-4.036-12.114l-20.142-5.5a23.872,23.872,0,0,1-17.453-20.307c-.343-3.044-.356-5.123-.356-5.123l33.406-6.108Z" transform="translate(-112.5 -239.43)" fill="#455a64"/>
          <path id="Path_40119" data-name="Path 40119" d="M163.224,250.15a11.483,11.483,0,0,1-2.714,7.392l17.11,10.71a12.289,12.289,0,0,1,5.237,6.832l6.057,19.8-5.46-22.055a10,10,0,0,0-4.449-6.1l-15.8-9.769A8.185,8.185,0,0,0,163.224,250.15Z" transform="translate(-129.996 -243.337)" opacity="0.2"/>
        </g>
        <g id="Group_75591" data-name="Group 75591" transform="translate(9.795)">
          <g id="Group_75584" data-name="Group 75584" transform="translate(39.761 25.481)">
            <path id="Path_40120" data-name="Path 40120" d="M189.871,184.283l3.394,3.292c3.483-4.449,8.167-7.455,12.254-13.7,1.176-1.494,1.055-4.468,1.856-5.987.629-1.189,1.722-2.981,2.186-3.979a.664.664,0,0,1,.972-.292c1.163.845.553,2.86-.064,4.989-.718,2.485,3.038-.883,3.54-1.455,2.383-2.212,4.43-7.646,6.051-7.106s.337,3.248.337,3.248c1.494.318.928,2.7.928,2.7.883,1.557.636,3.966-1.182,6.2-1.316,1.621-4.881,3.845-6.731,4.945a6.02,6.02,0,0,0-1.932,1.824l-11.65,17.313a7.059,7.059,0,0,1-10.087,1.71l-6.324-4.735,6.445-8.962Z" transform="translate(-170.155 -160.011)" fill="#ffa8a7"/>
            <path id="Path_40121" data-name="Path 40121" d="M194.081,183.938c-2.142,2.549-5.93,4.138-8.332,8.174l-3.057-2.835c-4.932-4.932-13.69-15.4-20.142-15.12V188.9a140.248,140.248,0,0,0,13.271,10.373l7.169,4.951a6.8,6.8,0,0,0,9.686-2.078l8.18-13.538a7.506,7.506,0,0,1-6.769-4.665Z" transform="translate(-162.55 -165.164)" fill="#ba68c8"/>
            <path id="Path_40122" data-name="Path 40122" d="M194.081,183.938c-2.142,2.549-5.93,4.138-8.332,8.174l-3.057-2.835c-4.932-4.932-13.69-15.4-20.142-15.12V188.9a140.248,140.248,0,0,0,13.271,10.373l7.169,4.951a6.8,6.8,0,0,0,9.686-2.078l8.18-13.538a7.506,7.506,0,0,1-6.769-4.665Z" transform="translate(-162.55 -165.164)" fill="#fff" opacity="0.2"/>
          </g>
          <path id="Path_40123" data-name="Path 40123" d="M111.63,222.853c4.3,4.131,24.966,4.894,35.5-5.142-1.011-7.087-.674-14.676,0-22.182s5.059-20.637-3.318-22.163c-11.186-2.186-18.5-2.015-25.976,2.2-7.983,13.3-6.89,33.2-6.216,47.287Z" transform="translate(-104.061 -138.892)" fill="#ba68c8"/>
          <path id="Path_40124" data-name="Path 40124" d="M111.63,222.853c4.3,4.131,24.966,4.894,35.5-5.142-1.011-7.087-.674-14.676,0-22.182s5.059-20.637-3.318-22.163c-11.186-2.186-18.5-2.015-25.976,2.2-7.983,13.3-6.89,33.2-6.216,47.287Z" transform="translate(-104.061 -138.892)" fill="#ba68c8"/>
          <path id="Path_40125" data-name="Path 40125" d="M111.63,222.853c4.3,4.131,24.966,4.894,35.5-5.142-1.011-7.087-.674-14.676,0-22.182s5.059-20.637-3.318-22.163c-11.186-2.186-18.5-2.015-25.976,2.2-7.983,13.3-6.89,33.2-6.216,47.287Z" transform="translate(-104.061 -138.892)" fill="#fff" opacity="0.4"/>
          <g id="Group_75585" data-name="Group 75585" transform="translate(24.24 74.515)">
            <path id="Path_40126" data-name="Path 40126" d="M138.143,262.294a.888.888,0,0,0,.032.318v.025a.919.919,0,0,0,.127.248.048.048,0,0,0,.013.025,1.3,1.3,0,0,0,.222.242s.006.013.013.013a2.666,2.666,0,0,0,.324.235l17.745,10.316a3.072,3.072,0,0,0,.508.222c.064.019.127.038.2.057s.172.044.261.064l.318.057a.321.321,0,0,1,.076.013c.146.013.286.025.432.025h.07a3.128,3.128,0,0,0,.426-.025.216.216,0,0,0,.064-.006c.14-.019.28-.038.413-.07a.336.336,0,0,0,.076-.019c.121-.032.242-.07.356-.108l.064-.019a2.49,2.49,0,0,0,.394-.184l29.281-16.906a1.907,1.907,0,0,0,.331-.235,1.138,1.138,0,0,1,.083-.089.954.954,0,0,0,.153-.172c.025-.038.038-.076.057-.108a1,1,0,0,0,.083-.165.788.788,0,0,0,.019-.121.743.743,0,0,0,.025-.165V256.8a1.482,1.482,0,0,1-.025.165.788.788,0,0,1-.019.121,1.327,1.327,0,0,1-.083.165.581.581,0,0,1-.057.108,1.846,1.846,0,0,1-.153.172,1.138,1.138,0,0,1-.083.089,2.325,2.325,0,0,1-.331.235l-29.281,16.906a2.5,2.5,0,0,1-.394.184l-.064.019a3.291,3.291,0,0,1-.356.108.334.334,0,0,0-.076.019,2.95,2.95,0,0,1-.413.07.215.215,0,0,0-.064.006c-.14.013-.286.025-.426.025h-.07a3.226,3.226,0,0,1-.432-.025.318.318,0,0,1-.076-.013,2.77,2.77,0,0,1-.318-.057c-.089-.019-.172-.038-.261-.064l-.2-.057a3.073,3.073,0,0,1-.508-.222l-17.745-10.315a1.638,1.638,0,0,1-.324-.235s-.006-.013-.013-.013a1.566,1.566,0,0,1-.222-.242.048.048,0,0,0-.013-.025,1.525,1.525,0,0,1-.127-.248v-.025a.988.988,0,0,1-.025-.235h-.019v-1.125h.006Z" transform="translate(-138.13 -243.938)" fill="#e0e0e0"/>
            <path id="Path_40127" data-name="Path 40127" d="M138.143,262.294a.888.888,0,0,0,.032.318v.025a.919.919,0,0,0,.127.248.048.048,0,0,0,.013.025,1.3,1.3,0,0,0,.222.242s.006.013.013.013a2.666,2.666,0,0,0,.324.235l17.745,10.316a3.072,3.072,0,0,0,.508.222c.064.019.127.038.2.057s.172.044.261.064l.318.057a.321.321,0,0,1,.076.013c.146.013.286.025.432.025h.07a3.128,3.128,0,0,0,.426-.025.216.216,0,0,0,.064-.006c.14-.019.28-.038.413-.07a.336.336,0,0,0,.076-.019c.121-.032.242-.07.356-.108l.064-.019a2.49,2.49,0,0,0,.394-.184l29.281-16.906a1.907,1.907,0,0,0,.331-.235,1.138,1.138,0,0,1,.083-.089.954.954,0,0,0,.153-.172c.025-.038.038-.076.057-.108a1,1,0,0,0,.083-.165.788.788,0,0,0,.019-.121.743.743,0,0,0,.025-.165V256.8a1.482,1.482,0,0,1-.025.165.788.788,0,0,1-.019.121,1.327,1.327,0,0,1-.083.165.581.581,0,0,1-.057.108,1.846,1.846,0,0,1-.153.172,1.138,1.138,0,0,1-.083.089,2.325,2.325,0,0,1-.331.235l-29.281,16.906a2.5,2.5,0,0,1-.394.184l-.064.019a3.291,3.291,0,0,1-.356.108.334.334,0,0,0-.076.019,2.95,2.95,0,0,1-.413.07.215.215,0,0,0-.064.006c-.14.013-.286.025-.426.025h-.07a3.226,3.226,0,0,1-.432-.025.318.318,0,0,1-.076-.013,2.77,2.77,0,0,1-.318-.057c-.089-.019-.172-.038-.261-.064l-.2-.057a3.073,3.073,0,0,1-.508-.222l-17.745-10.315a1.638,1.638,0,0,1-.324-.235s-.006-.013-.013-.013a1.566,1.566,0,0,1-.222-.242.048.048,0,0,0-.013-.025,1.525,1.525,0,0,1-.127-.248v-.025a.988.988,0,0,1-.025-.235h-.019v-1.125h.006Z" transform="translate(-138.13 -243.938)" opacity="0.2"/>
            <path id="Path_40128" data-name="Path 40128" d="M190.276,249.261a1.338,1.338,0,0,1-.083.165.583.583,0,0,1-.057.108,1.844,1.844,0,0,1-.153.172,1.138,1.138,0,0,1-.083.089,2.327,2.327,0,0,1-.33.235L160.29,266.937a2.493,2.493,0,0,1-.394.184l-.064.019a3.3,3.3,0,0,1-.356.108.334.334,0,0,0-.076.019,2.949,2.949,0,0,1-.413.07.216.216,0,0,0-.064.006c-.14.013-.286.025-.426.025h-.07a3.221,3.221,0,0,1-.432-.025.321.321,0,0,1-.076-.013,2.8,2.8,0,0,1-.318-.057c-.089-.019-.172-.038-.261-.064l-.2-.057a3.07,3.07,0,0,1-.508-.222L138.89,256.615a1.638,1.638,0,0,1-.324-.235s-.006-.013-.013-.013a1.564,1.564,0,0,1-.222-.242.048.048,0,0,0-.013-.025,1.528,1.528,0,0,1-.127-.248v-.025a.917.917,0,0,1-.032-.318,1.334,1.334,0,0,1,.75-1L168.184,237.6a4,4,0,0,1,3.642,0l17.745,10.315a1.269,1.269,0,0,1,.75,1.055,1.482,1.482,0,0,1-.025.165.789.789,0,0,1-.019.121Z" transform="translate(-138.14 -237.16)" fill="#e0e0e0"/>
            <path id="Path_40129" data-name="Path 40129" d="M193.7,252.386,165.257,268.81s-.064.032-.114.051l-.064.019a1.518,1.518,0,0,1-.222.064,1.557,1.557,0,0,1-.159.032l-.108.013c-.076.006-.159.013-.28.013h-.025a1.642,1.642,0,0,1-.292-.019c-.064-.006-.121-.019-.184-.032-.045-.006-.229-.064-.229-.064a1.077,1.077,0,0,1-.2-.083l-9.152-5.32,29.383-16.964,10.08,5.86Z" transform="translate(-143.997 -240.571)" fill="#e0e0e0"/>
            <path id="Path_40130" data-name="Path 40130" d="M170.05,281.9h0Z" transform="translate(-149.762 -253.464)" fill="#263238"/>
            <path id="Path_40131" data-name="Path 40131" d="M168.5,248.582l5.352,3.146a.542.542,0,0,1,0,.934l-8,4.621a.9.9,0,0,1-.9,0l-5.352-3.146a.542.542,0,0,1,0-.934l8-4.621A.9.9,0,0,1,168.5,248.582Z" transform="translate(-145.856 -241.279)" fill="#e0e0e0"/>
            <path id="Path_40132" data-name="Path 40132" d="M193.7,252.386,165.257,268.81s-.064.032-.114.051l-.064.019a1.518,1.518,0,0,1-.222.064,1.557,1.557,0,0,1-.159.032l-.108.013c-.076.006-.159.013-.28.013h-.025a1.642,1.642,0,0,1-.292-.019c-.064-.006-.121-.019-.184-.032-.045-.006-.229-.064-.229-.064a1.077,1.077,0,0,1-.2-.083l-9.152-5.32,29.383-16.964,10.08,5.86Z" transform="translate(-143.997 -240.571)" opacity="0.4"/>
            <path id="Path_40133" data-name="Path 40133" d="M168.5,248.582l5.352,3.146a.542.542,0,0,1,0,.934l-8,4.621a.9.9,0,0,1-.9,0l-5.352-3.146a.542.542,0,0,1,0-.934l8-4.621A.9.9,0,0,1,168.5,248.582Z" transform="translate(-145.856 -241.279)" opacity="0.4"/>
          </g>
          <g id="Group_75586" data-name="Group 75586" transform="translate(44.721 64.189)">
            <path id="Path_40134" data-name="Path 40134" d="M170.37,259.967,173.4,240.7a3.562,3.562,0,0,1,1.729-2.523l29.478-17.142a.878.878,0,0,1,.782-.051h0l.7.343-.235.089a.843.843,0,0,1,.076.521L202.9,241.2a3.561,3.561,0,0,1-1.729,2.523L171.692,260.87a.8.8,0,0,1-.191.076l.025.286-.68-.337h.013a.885.885,0,0,1-.5-.934Z" transform="translate(-170.353 -220.913)" fill="#e0e0e0"/>
            <path id="Path_40135" data-name="Path 40135" d="M170.37,259.967,173.4,240.7a3.562,3.562,0,0,1,1.729-2.523l29.478-17.142a.878.878,0,0,1,.782-.051h0l.7.343-.235.089a.843.843,0,0,1,.076.521L202.9,241.2a3.561,3.561,0,0,1-1.729,2.523L171.692,260.87a.8.8,0,0,1-.191.076l.025.286-.68-.337h.013a.885.885,0,0,1-.5-.934Z" transform="translate(-170.353 -220.913)" opacity="0.3"/>
            <path id="Path_40136" data-name="Path 40136" d="M176.064,238.632l29.478-17.142a.892.892,0,0,1,1.328.909l-3.032,19.271a3.562,3.562,0,0,1-1.729,2.523l-29.478,17.142a.892.892,0,0,1-1.328-.909l3.032-19.271A3.562,3.562,0,0,1,176.064,238.632Z" transform="translate(-170.696 -221.078)" fill="#e0e0e0"/>
            <path id="Path_40137" data-name="Path 40137" d="M199.59,249.1a6.5,6.5,0,0,0-2.924,4.214c-.191,1.506.8,2.059,2.231,1.239a6.5,6.5,0,0,0,2.924-4.214c.191-1.506-.807-2.059-2.231-1.239Z" transform="translate(-179.934 -231.047)" fill="#fff"/>
          </g>
          <g id="Group_75587" data-name="Group 75587" transform="translate(0 36.289)">
            <path id="Path_40138" data-name="Path 40138" d="M115.395,213.7l-2.663,9.121L129,234.38l5.466,2.3a8.6,8.6,0,0,1,3.623,2.879l4.462,6.171c.5,1.036-1.824,2.72-2.943,3.006h0a3.983,3.983,0,0,1-3.693-.928l-3.445-3.152-.953-.337a14.477,14.477,0,0,1-6.915-5.186h0l-19.067-7.4a7.292,7.292,0,0,1-4.4-8.695l3.165-11.765,11.1,2.434Z" transform="translate(-100.313 -189.499)" fill="#ffa8a7"/>
            <path id="Path_40139" data-name="Path 40139" d="M123.024,217.88l-10.608-7.538,2.479-7.246,4.716-14.1s.153-12.356-5.091-11.974-7.907,3.419-11.936,21.743L100.2,209.707a9.068,9.068,0,0,0,5.917,10.506l13.5,4.633a6.815,6.815,0,0,1,3.413-6.96Z" transform="translate(-99.991 -177.016)" fill="#ba68c8"/>
            <path id="Path_40140" data-name="Path 40140" d="M123.024,217.88l-10.608-7.538,2.479-7.246,4.716-14.1s.153-12.356-5.091-11.974-7.907,3.419-11.936,21.743L100.2,209.707a9.068,9.068,0,0,0,5.917,10.506l13.5,4.633a6.815,6.815,0,0,1,3.413-6.96Z" transform="translate(-99.991 -177.016)" fill="#fff" opacity="0.2"/>
          </g>
          <g id="Group_75590" data-name="Group 75590" transform="translate(18.816)">
            <path id="Path_40141" data-name="Path 40141" d="M136.152,149.525c-1.557-2.879-2.9-5.866-4.449-8.746a13.728,13.728,0,0,1-2.1-5.962,6.956,6.956,0,0,1,3.28-6.013,9.474,9.474,0,0,1,7.691-7.6c2.4-.311,4.811.318,7.227.54s5.1-.076,6.775-1.824a4.19,4.19,0,0,1,.82,2.523,4.1,4.1,0,0,1-.794,2.491,3.078,3.078,0,0,1,2.18.159,1.834,1.834,0,0,1,.661,1.875,3.875,3.875,0,0,1-1.042,1.805,2.955,2.955,0,0,1,1.564,2.638,4.011,4.011,0,0,1-1.449,2.727c-1.538,1.322-3.7,1.583-5.72,1.786q-5.139.524-10.284,1.042l-4.366,12.565Z" transform="translate(-129.596 -119.92)" fill="#37474f"/>
            <g id="Group_75588" data-name="Group 75588" transform="translate(4.362 23.237)">
              <path id="Path_40142" data-name="Path 40142" d="M150.24,175.621h0a7.429,7.429,0,0,0,0-5.771v-7.729l-10.2-5.631-.229,8.574C141.666,170.517,148.27,172.754,150.24,175.621Z" transform="translate(-137.681 -156.484)" fill="#ffa8a7"/>
              <path id="Path_40143" data-name="Path 40143" d="M145.131,164.6c1.7.82,3.826,1.653,5.25,2.186v-4.672l-10.2-5.631c.083,5.123,2.123,6.743,4.951,8.11Z" transform="translate(-137.816 -156.48)" opacity="0.2"/>
              <path id="Path_40144" data-name="Path 40144" d="M136.46,173.765c.286,2.358,2.244,5.714,6.349,9.114,0,0,1.525-3.54,3.47-3.788a24.335,24.335,0,0,1,2.739,1.456c-1.97-2.866-8.574-5.1-10.43-10.557A21.514,21.514,0,0,0,136.46,173.765Z" transform="translate(-136.46 -161.403)" fill="#ba68c8"/>
              <path id="Path_40145" data-name="Path 40145" d="M156.23,181.525a7.448,7.448,0,0,0,0-5.777V172.69c1.862,1.894,4.341,4.8,4.951,7.888-.992-.9-2.46-2.917-3.019-1.792A4.342,4.342,0,0,1,156.23,181.525Z" transform="translate(-143.665 -162.387)" fill="#ba68c8"/>
              <path id="Path_40146" data-name="Path 40146" d="M136.46,173.765c.286,2.358,2.244,5.714,6.349,9.114,0,0,1.525-3.54,3.47-3.788a24.335,24.335,0,0,1,2.739,1.456c-1.97-2.866-8.574-5.1-10.43-10.557A21.514,21.514,0,0,0,136.46,173.765Z" transform="translate(-136.46 -161.403)" fill="#fff" opacity="0.2"/>
              <path id="Path_40147" data-name="Path 40147" d="M156.23,181.525a7.448,7.448,0,0,0,0-5.777V172.69c1.862,1.894,4.341,4.8,4.951,7.888-.992-.9-2.46-2.917-3.019-1.792A4.342,4.342,0,0,1,156.23,181.525Z" transform="translate(-143.665 -162.387)" fill="#fff" opacity="0.2"/>
            </g>
            <path id="Path_40148" data-name="Path 40148" d="M155.625,134.263a90.6,90.6,0,0,1-.489,17.86,5.187,5.187,0,0,1-5.917,4.519,68.526,68.526,0,0,1-7.385-1.6,6.95,6.95,0,0,1-4.938-5.1l-.375-1.564a3.2,3.2,0,0,1-3.858.9,4.349,4.349,0,0,1-2.447-3.324,4.009,4.009,0,0,1,.184-2.1,2.782,2.782,0,0,1,1.411-1.532,3.087,3.087,0,0,1,3.4.966,6.626,6.626,0,0,1,1.373,3.464,10.692,10.692,0,0,0,2.682-7.71,3.864,3.864,0,0,0,2.466-1.265,3.374,3.374,0,0,0,.636-2.511,13.886,13.886,0,0,0,13.258-1.017Z" transform="translate(-129.8 -125.142)" fill="#ffa8a7"/>
            <g id="Group_75589" data-name="Group 75589" transform="translate(12.26 13.608)">
              <path id="Path_40149" data-name="Path 40149" d="M159.03,147.69l3.54,4.29-3.248,1.15Z" transform="translate(-152.582 -143.648)" fill="#f28f8f"/>
              <path id="Path_40150" data-name="Path 40150" d="M154.812,159.6l2.733.839a1.681,1.681,0,0,1-1.843.845,1.518,1.518,0,0,1-.89-1.691Z" transform="translate(-151.041 -147.984)" fill="#f28f8f"/>
              <path id="Path_40151" data-name="Path 40151" d="M154.812,159.6l2.733.839a1.681,1.681,0,0,1-1.843.845,1.518,1.518,0,0,1-.89-1.691Z" transform="translate(-151.041 -147.984)" opacity="0.3"/>
              <path id="Path_40152" data-name="Path 40152" d="M156.606,161.481a1.5,1.5,0,0,1-.9.051,1.369,1.369,0,0,1-.89-1.233,1.6,1.6,0,0,1,1.055.191,1.638,1.638,0,0,1,.731.985Z" transform="translate(-151.048 -148.235)" fill="#f28f8f"/>
              <path id="Path_40153" data-name="Path 40153" d="M151.459,148.583a.974.974,0,1,0,.922-1.023A.982.982,0,0,0,151.459,148.583Z" transform="translate(-149.823 -143.6)" fill="#263238"/>
              <path id="Path_40154" data-name="Path 40154" d="M164.259,147.4a.974.974,0,1,0,.922-1.023A.982.982,0,0,0,164.259,147.4Z" transform="translate(-154.488 -143.17)" fill="#263238"/>
              <path id="Path_40155" data-name="Path 40155" d="M165.42,141.648l2.231,1.373a1.389,1.389,0,0,0-.5-1.5A1.655,1.655,0,0,0,165.42,141.648Z" transform="translate(-154.911 -141.33)" fill="#263238"/>
              <path id="Path_40156" data-name="Path 40156" d="M151.068,142.224c-.693.534-1.379,1.068-2.072,1.6a1.383,1.383,0,0,1,.337-1.544,1.639,1.639,0,0,1,1.735-.057Z" transform="translate(-148.886 -141.576)" fill="#263238"/>
            </g>
          </g>
        </g>
      </g>
      <g id="Group_75602" data-name="Group 75602" transform="translate(147.576 111.984)">
        <path id="Path_40157" data-name="Path 40157" d="M278.5,185.6c.8-.464,1.449-.089,1.456.826l.013,5.142a3.192,3.192,0,0,1-1.443,2.5l-44.853,25.9c-.8.464-1.449.089-1.455-.826L232.2,214a3.192,3.192,0,0,1,1.443-2.5Z" transform="translate(-232.194 -179.546)" fill="#ba68c8"/>
        <g id="Group_75593" data-name="Group 75593" transform="translate(0.006 5.851)" opacity="0.3">
          <path id="Path_40158" data-name="Path 40158" d="M278.5,185.6c.8-.464,1.449-.089,1.456.826l.013,5.142a3.192,3.192,0,0,1-1.443,2.5l-44.853,25.9c-.8.464-1.449.089-1.455-.826L232.2,214a3.192,3.192,0,0,1,1.443-2.5Z" transform="translate(-232.2 -185.396)"/>
        </g>
        <g id="Group_75594" data-name="Group 75594" transform="translate(0.006 5.851)" opacity="0.2">
          <path id="Path_40159" data-name="Path 40159" d="M278.5,185.6c.8-.464,1.449-.089,1.456.826l.013,5.142a3.192,3.192,0,0,1-1.443,2.5l-44.853,25.9c-.8.464-1.449.089-1.455-.826L232.2,214a3.192,3.192,0,0,1,1.443-2.5Z" transform="translate(-232.2 -185.396)" fill="#fff"/>
        </g>
        <path id="Path_40160" data-name="Path 40160" d="M279.42,200.448c.292-.172.534-.032.534.305v1.888a1.144,1.144,0,0,1-.528.915l-46.7,27.12c-.292.172-.534.032-.534-.305v-1.888a1.144,1.144,0,0,1,.527-.915Z" transform="translate(-232.19 -185.004)" fill="#ba68c8"/>
        <g id="Group_75595" data-name="Group 75595" transform="translate(0 15.37)" opacity="0.3">
          <path id="Path_40161" data-name="Path 40161" d="M279.42,200.448c.292-.172.534-.032.534.305v1.888a1.144,1.144,0,0,1-.528.915l-46.7,27.12c-.292.172-.534.032-.534-.305v-1.888a1.144,1.144,0,0,1,.527-.915Z" transform="translate(-232.19 -200.374)" fill="#fff"/>
        </g>
        <path id="Path_40162" data-name="Path 40162" d="M279.42,207.638c.292-.172.534-.032.534.305v1.888a1.144,1.144,0,0,1-.528.915l-46.7,27.12c-.292.172-.534.032-.534-.305v-1.888a1.144,1.144,0,0,1,.527-.915Z" transform="translate(-232.19 -187.624)" fill="#ba68c8"/>
        <g id="Group_75596" data-name="Group 75596" transform="translate(0 19.94)" opacity="0.3">
          <path id="Path_40163" data-name="Path 40163" d="M279.42,207.638c.292-.172.534-.032.534.305v1.888a1.144,1.144,0,0,1-.528.915l-46.7,27.12c-.292.172-.534.032-.534-.305v-1.888a1.144,1.144,0,0,1,.527-.915Z" transform="translate(-232.19 -207.564)" fill="#fff"/>
        </g>
        <g id="Group_75600" data-name="Group 75600" transform="translate(5.396)">
          <g id="Group_75597" data-name="Group 75597">
            <path id="Path_40164" data-name="Path 40164" d="M244.493,205.43v2.587a3.666,3.666,0,0,1-1.894,3.273c-1.2.693-1.913.324-1.919-1.068v-2.587l1.144-.661v2.549c.006.8.305.953.782.674a1.642,1.642,0,0,0,.763-1.564v-2.549Z" transform="translate(-240.68 -186.846)" fill="#ba68c8"/>
            <path id="Path_40165" data-name="Path 40165" d="M249.762,202.843c1.106-.636,1.805-.381,1.805.686a3.328,3.328,0,0,1-1.8,2.758l-.712.407v1.22l-1.144.661-.013-4.665,1.856-1.074Zm-.064,2.447a1.251,1.251,0,0,0,.706-1.087c0-.432-.235-.547-.712-.273l-.642.369v1.366l.642-.369" transform="translate(-243.311 -185.778)" fill="#ba68c8"/>
            <path id="Path_40166" data-name="Path 40166" d="M255.694,199.85l.013,3.616,1.939-1.119V203.4l-3.083,1.78-.013-4.665Z" transform="translate(-245.734 -184.813)" fill="#ba68c8"/>
            <path id="Path_40167" data-name="Path 40167" d="M261.95,195.518c1.3-.75,2.256-.273,2.263,1.125a4.628,4.628,0,0,1-2.25,3.724c-1.3.75-2.263.28-2.263-1.119A4.648,4.648,0,0,1,261.95,195.518Zm.013,3.763a2.349,2.349,0,0,0,1.087-1.964c0-.807-.483-1.055-1.093-.7a2.361,2.361,0,0,0-1.093,1.964c0,.807.483,1.061,1.1.7" transform="translate(-247.611 -183.105)" fill="#ba68c8"/>
            <path id="Path_40168" data-name="Path 40168" d="M269.825,191.11l1.811,3.629-1.195.693-.318-.725-1.716.992-.318,1.093-1.169.674,1.78-5.7,1.131-.655Zm-1.087,3.419,1.042-.6-.521-1.195-.521,1.8" transform="translate(-250.242 -181.628)" fill="#ba68c8"/>
            <path id="Path_40169" data-name="Path 40169" d="M276.749,187.212c1.347-.775,2.269-.407,2.275,1.023a4.381,4.381,0,0,1-2.263,3.642l-1.919,1.106-.013-4.665Zm-.038,3.636a2.277,2.277,0,0,0,1.15-1.945c0-.807-.464-1.017-1.157-.617l-.725.419v2.561l.731-.419" transform="translate(-253.125 -180.062)" fill="#ba68c8"/>
            <path id="Path_40170" data-name="Path 40170" d="M283.52,183.79l.013,4.665-1.15.661-.013-4.665Z" transform="translate(-255.873 -178.96)" fill="#ba68c8"/>
            <path id="Path_40171" data-name="Path 40171" d="M289.324,179.53l.013,4.665-.947.547-1.792-1.455.006,2.491-1.131.648-.013-4.665.947-.547,1.8,1.455-.006-2.485Z" transform="translate(-256.999 -177.408)" fill="#ba68c8"/>
            <path id="Path_40172" data-name="Path 40172" d="M294.766,176.565c.756-.439,1.373-.489,1.773-.165l-.731,1.182a.845.845,0,0,0-.985.051,2.341,2.341,0,0,0-1.157,2c0,.788.47,1.068,1.15.674a2.677,2.677,0,0,0,.623-.515v-1.278l1.011-.585v1.939a5.732,5.732,0,0,1-1.7,1.576c-1.29.744-2.237.286-2.244-1.131a4.6,4.6,0,0,1,2.256-3.731Z" transform="translate(-259.568 -176.191)" fill="#ba68c8"/>
          </g>
          <g id="Group_75598" data-name="Group 75598" opacity="0.3">
            <path id="Path_40173" data-name="Path 40173" d="M244.493,205.43v2.587a3.666,3.666,0,0,1-1.894,3.273c-1.2.693-1.913.324-1.919-1.068v-2.587l1.144-.661v2.549c.006.8.305.953.782.674a1.642,1.642,0,0,0,.763-1.564v-2.549Z" transform="translate(-240.68 -186.846)"/>
            <path id="Path_40174" data-name="Path 40174" d="M249.762,202.843c1.106-.636,1.805-.381,1.805.686a3.328,3.328,0,0,1-1.8,2.758l-.712.407v1.22l-1.144.661-.013-4.665,1.856-1.074Zm-.064,2.447a1.251,1.251,0,0,0,.706-1.087c0-.432-.235-.547-.712-.273l-.642.369v1.366l.642-.369" transform="translate(-243.311 -185.778)"/>
            <path id="Path_40175" data-name="Path 40175" d="M255.694,199.85l.013,3.616,1.939-1.119V203.4l-3.083,1.78-.013-4.665Z" transform="translate(-245.734 -184.813)"/>
            <path id="Path_40176" data-name="Path 40176" d="M261.95,195.518c1.3-.75,2.256-.273,2.263,1.125a4.628,4.628,0,0,1-2.25,3.724c-1.3.75-2.263.28-2.263-1.119A4.648,4.648,0,0,1,261.95,195.518Zm.013,3.763a2.349,2.349,0,0,0,1.087-1.964c0-.807-.483-1.055-1.093-.7a2.361,2.361,0,0,0-1.093,1.964c0,.807.483,1.061,1.1.7" transform="translate(-247.611 -183.105)"/>
            <path id="Path_40177" data-name="Path 40177" d="M269.825,191.11l1.811,3.629-1.195.693-.318-.725-1.716.992-.318,1.093-1.169.674,1.78-5.7,1.131-.655Zm-1.087,3.419,1.042-.6-.521-1.195-.521,1.8" transform="translate(-250.242 -181.628)"/>
            <path id="Path_40178" data-name="Path 40178" d="M276.749,187.212c1.347-.775,2.269-.407,2.275,1.023a4.381,4.381,0,0,1-2.263,3.642l-1.919,1.106-.013-4.665Zm-.038,3.636a2.277,2.277,0,0,0,1.15-1.945c0-.807-.464-1.017-1.157-.617l-.725.419v2.561l.731-.419" transform="translate(-253.125 -180.062)"/>
            <path id="Path_40179" data-name="Path 40179" d="M283.52,183.79l.013,4.665-1.15.661-.013-4.665Z" transform="translate(-255.873 -178.96)"/>
            <path id="Path_40180" data-name="Path 40180" d="M289.324,179.53l.013,4.665-.947.547-1.792-1.455.006,2.491-1.131.648-.013-4.665.947-.547,1.8,1.455-.006-2.485Z" transform="translate(-256.999 -177.408)"/>
            <path id="Path_40181" data-name="Path 40181" d="M294.766,176.565c.756-.439,1.373-.489,1.773-.165l-.731,1.182a.845.845,0,0,0-.985.051,2.341,2.341,0,0,0-1.157,2c0,.788.47,1.068,1.15.674a2.677,2.677,0,0,0,.623-.515v-1.278l1.011-.585v1.939a5.732,5.732,0,0,1-1.7,1.576c-1.29.744-2.237.286-2.244-1.131a4.6,4.6,0,0,1,2.256-3.731Z" transform="translate(-259.568 -176.191)"/>
          </g>
          <g id="Group_75599" data-name="Group 75599" opacity="0.1">
            <path id="Path_40182" data-name="Path 40182" d="M244.493,205.43v2.587a3.666,3.666,0,0,1-1.894,3.273c-1.2.693-1.913.324-1.919-1.068v-2.587l1.144-.661v2.549c.006.8.305.953.782.674a1.642,1.642,0,0,0,.763-1.564v-2.549Z" transform="translate(-240.68 -186.846)" fill="#fff"/>
            <path id="Path_40183" data-name="Path 40183" d="M249.762,202.843c1.106-.636,1.805-.381,1.805.686a3.328,3.328,0,0,1-1.8,2.758l-.712.407v1.22l-1.144.661-.013-4.665,1.856-1.074Zm-.064,2.447a1.251,1.251,0,0,0,.706-1.087c0-.432-.235-.547-.712-.273l-.642.369v1.366l.642-.369" transform="translate(-243.311 -185.778)" fill="#fff"/>
            <path id="Path_40184" data-name="Path 40184" d="M255.694,199.85l.013,3.616,1.939-1.119V203.4l-3.083,1.78-.013-4.665Z" transform="translate(-245.734 -184.813)" fill="#fff"/>
            <path id="Path_40185" data-name="Path 40185" d="M261.95,195.518c1.3-.75,2.256-.273,2.263,1.125a4.628,4.628,0,0,1-2.25,3.724c-1.3.75-2.263.28-2.263-1.119A4.648,4.648,0,0,1,261.95,195.518Zm.013,3.763a2.349,2.349,0,0,0,1.087-1.964c0-.807-.483-1.055-1.093-.7a2.361,2.361,0,0,0-1.093,1.964c0,.807.483,1.061,1.1.7" transform="translate(-247.611 -183.105)" fill="#fff"/>
            <path id="Path_40186" data-name="Path 40186" d="M269.825,191.11l1.811,3.629-1.195.693-.318-.725-1.716.992-.318,1.093-1.169.674,1.78-5.7,1.131-.655Zm-1.087,3.419,1.042-.6-.521-1.195-.521,1.8" transform="translate(-250.242 -181.628)" fill="#fff"/>
            <path id="Path_40187" data-name="Path 40187" d="M276.749,187.212c1.347-.775,2.269-.407,2.275,1.023a4.381,4.381,0,0,1-2.263,3.642l-1.919,1.106-.013-4.665Zm-.038,3.636a2.277,2.277,0,0,0,1.15-1.945c0-.807-.464-1.017-1.157-.617l-.725.419v2.561l.731-.419" transform="translate(-253.125 -180.062)" fill="#fff"/>
            <path id="Path_40188" data-name="Path 40188" d="M283.52,183.79l.013,4.665-1.15.661-.013-4.665Z" transform="translate(-255.873 -178.96)" fill="#fff"/>
            <path id="Path_40189" data-name="Path 40189" d="M289.324,179.53l.013,4.665-.947.547-1.792-1.455.006,2.491-1.131.648-.013-4.665.947-.547,1.8,1.455-.006-2.485Z" transform="translate(-256.999 -177.408)" fill="#fff"/>
            <path id="Path_40190" data-name="Path 40190" d="M294.766,176.565c.756-.439,1.373-.489,1.773-.165l-.731,1.182a.845.845,0,0,0-.985.051,2.341,2.341,0,0,0-1.157,2c0,.788.47,1.068,1.15.674a2.677,2.677,0,0,0,.623-.515v-1.278l1.011-.585v1.939a5.732,5.732,0,0,1-1.7,1.576c-1.29.744-2.237.286-2.244-1.131a4.6,4.6,0,0,1,2.256-3.731Z" transform="translate(-259.568 -176.191)" fill="#fff"/>
          </g>
        </g>
        <g id="Group_75601" data-name="Group 75601" transform="translate(16.894 16.296)">
          <path id="Path_40191" data-name="Path 40191" d="M260.67,213.43l.013,4.665-1.144.661-.013-3.642-.75.432-.006-1.017Z" transform="translate(-258.77 -206.057)" fill="#fff"/>
          <path id="Path_40192" data-name="Path 40192" d="M264.516,210.954c1.03-.6,1.786-.146,1.792,1.4a3.967,3.967,0,0,1-1.78,3.458c-1.036.6-1.8.153-1.8-1.392a3.991,3.991,0,0,1,1.786-3.464Zm.013,3.769c.369-.21.629-.731.629-1.71s-.267-1.195-.636-.979-.636.731-.629,1.71.267,1.195.642.979" transform="translate(-260.213 -205.062)" fill="#fff"/>
          <path id="Path_40193" data-name="Path 40193" d="M270.78,207.344c1.036-.6,1.792-.146,1.8,1.392a3.967,3.967,0,0,1-1.78,3.458c-1.036.6-1.792.146-1.8-1.392A3.967,3.967,0,0,1,270.78,207.344Zm.013,3.769c.369-.21.636-.731.629-1.71s-.273-1.189-.642-.979-.636.731-.629,1.71.267,1.195.642.979" transform="translate(-262.498 -203.747)" fill="#fff"/>
          <path id="Path_40194" data-name="Path 40194" d="M277.2,205.283a2.216,2.216,0,0,1-1.042,1.894c-.6.343-1.036.121-1.042-.693a2.226,2.226,0,0,1,1.03-1.894c.6-.35,1.049-.114,1.049.693Zm-1.386.8c0,.47.159.572.343.464a.928.928,0,0,0,.343-.858c0-.477-.146-.578-.343-.464a.941.941,0,0,0-.337.858" transform="translate(-264.728 -202.779)" fill="#fff"/>
          <path id="Path_40195" data-name="Path 40195" d="M278.948,202.313l.839-.483-2.758,6.267-.839.483Z" transform="translate(-265.118 -201.83)" fill="#fff"/>
          <path id="Path_40196" data-name="Path 40196" d="M280.686,205.449c.6-.35,1.049-.121,1.049.693a2.216,2.216,0,0,1-1.042,1.894c-.6.35-1.042.121-1.042-.693a2.211,2.211,0,0,1,1.036-1.894Zm0,1.958c.191-.108.337-.388.337-.858s-.153-.572-.343-.464a.927.927,0,0,0-.343.858c0,.47.153.572.343.464" transform="translate(-266.379 -203.091)" fill="#fff"/>
        </g>
      </g>
      <g id="Group_75604" data-name="Group 75604" transform="translate(90.38 30.971)">
        <g id="Group_75603" data-name="Group 75603">
          <path id="Path_40197" data-name="Path 40197" d="M162.294,49.041,144,59.535a3.607,3.607,0,0,0-1.792,3.1V75.939a3.529,3.529,0,0,0,5.4,2.9l3.178-1.818.286.464.044.044h0a.144.144,0,0,1,.032.032h.006c.521.35,1.443.839,1.653.947V78.5a.19.19,0,0,0,.235-.121l1.169-3.318h0l11.676-6.674a3.57,3.57,0,0,0,1.8-3.1V51.933c0-2.574-3.794-3.82-5.4-2.9Z" transform="translate(-142.204 -48.729)" fill="#ba68c8"/>
          <path id="Path_40198" data-name="Path 40198" d="M150.03,69.14Z" transform="translate(-145.053 -56.167)" fill="none"/>
          <path id="Path_40199" data-name="Path 40199" d="M155.982,93.4l.044.044h0a.144.144,0,0,1,.032.032h.006c.521.35,1.443.839,1.653.947v-.013a.2.2,0,0,1-.121-.083l-1.131-1.837.222-.127h0l-1,.572.286.464Z" transform="translate(-147.116 -64.629)" fill="#fff" opacity="0.2"/>
          <path id="Path_40200" data-name="Path 40200" d="M146.479,62.91a3.624,3.624,0,0,1,.953-1.195h0a3.472,3.472,0,0,1,.432-.3l18.292-10.493a1.188,1.188,0,0,1,1.78,1.03c0-2.574-3.794-3.82-5.4-2.9L144.248,59.542a3.557,3.557,0,0,0-1.328,1.347l3.553,2.015Z" transform="translate(-142.462 -48.737)" fill="#fff" opacity="0.4"/>
          <path id="Path_40201" data-name="Path 40201" d="M145.816,84.786V71.476c0-.14.013-.286.025-.419a3.834,3.834,0,0,1,.375-1.182l-3.553-2.015a3.539,3.539,0,0,0-.464,1.748V82.917a3.529,3.529,0,0,0,5.4,2.9A1.191,1.191,0,0,1,145.816,84.786Z" transform="translate(-142.2 -55.701)" fill="#fff" opacity="0.2"/>
        </g>
        <path id="Path_40202" data-name="Path 40202" d="M168.1,59.658a.75.75,0,0,1,.737-.076c.413.235.413,1,0,1.7L160.865,75.1a2.123,2.123,0,0,1-.737.775.75.75,0,0,1-.737.076l-3.508-2c-.413-.235-.413-.992,0-1.7a2.123,2.123,0,0,1,.737-.775.761.761,0,0,1,.744-.076l2.765,1.576,7.239-12.546a2.123,2.123,0,0,1,.737-.775Z" transform="translate(-147.073 -52.66)" fill="#fff"/>
      </g>
      <g id="Group_75612" data-name="Group 75612" transform="translate(129.926 19.322)">
        <g id="Group_75610" data-name="Group 75610" transform="translate(32.001)">
          <path id="Path_40203" data-name="Path 40203" d="M260.344,30.425a93.206,93.206,0,0,0,13.716,9.565q1.4.81,2.854,1.589c.1.057.21.114.311.172,2.727,1.576,4.01,3.833,3.191,6.013a5.064,5.064,0,0,0-.292,2.523c.292,2.015,1.8,3.871,4.277,5.3l-3.648,2.142a9.356,9.356,0,0,1-8.383.025A26.87,26.87,0,0,0,277.9,55.2c-.362.159-.737.311-1.112.458a10.908,10.908,0,0,1-8.695-.521c-.114-.064-.222-.133-.324-.2a48.115,48.115,0,0,0,7.411-2.358,14.722,14.722,0,0,1-11.644-.75,8.347,8.347,0,0,1-.858-.566c-.623-.47-1.157-.89-1.456-1.144a49.919,49.919,0,0,0,9.8-.261h-.127a23.77,23.77,0,0,1-11.351-2.841,10.083,10.083,0,0,1-4.678-4.989c-.032-.1-.064-.184-.1-.286a50.945,50.945,0,0,0,14.339,4.551,61.94,61.94,0,0,1-10.176-4.195l-.419-.229c-3.267-1.881-4.347-4.71-2.758-7.233a52.8,52.8,0,0,0,6.006,4.023,70.539,70.539,0,0,0,8.714,4.2c-.877-.445-1.722-.909-2.549-1.386a47.227,47.227,0,0,1-8.549-6.222c-1.678-1.557-1.271-3.572.979-4.849Z" transform="translate(-254.77 -30.4)" fill="#ba68c8"/>
          <g id="Group_75605" data-name="Group 75605" opacity="0.2">
            <path id="Path_40204" data-name="Path 40204" d="M260.344,30.425a93.206,93.206,0,0,0,13.716,9.565q1.4.81,2.854,1.589c.1.057.21.114.311.172,2.727,1.576,4.01,3.833,3.191,6.013a5.064,5.064,0,0,0-.292,2.523c.292,2.015,1.8,3.871,4.277,5.3l-3.648,2.142a9.356,9.356,0,0,1-8.383.025A26.87,26.87,0,0,0,277.9,55.2c-.362.159-.737.311-1.112.458a10.908,10.908,0,0,1-8.695-.521c-.114-.064-.222-.133-.324-.2a48.115,48.115,0,0,0,7.411-2.358,14.722,14.722,0,0,1-11.644-.75,8.347,8.347,0,0,1-.858-.566c-.623-.47-1.157-.89-1.456-1.144a49.919,49.919,0,0,0,9.8-.261h-.127a23.77,23.77,0,0,1-11.351-2.841,10.083,10.083,0,0,1-4.678-4.989c-.032-.1-.064-.184-.1-.286a50.945,50.945,0,0,0,14.339,4.551,61.94,61.94,0,0,1-10.176-4.195l-.419-.229c-3.267-1.881-4.347-4.71-2.758-7.233a52.8,52.8,0,0,0,6.006,4.023,70.539,70.539,0,0,0,8.714,4.2c-.877-.445-1.722-.909-2.549-1.386a47.227,47.227,0,0,1-8.549-6.222c-1.678-1.557-1.271-3.572.979-4.849Z" transform="translate(-254.77 -30.4)"/>
          </g>
          <g id="Group_75606" data-name="Group 75606" opacity="0.4">
            <path id="Path_40205" data-name="Path 40205" d="M260.344,30.425a93.206,93.206,0,0,0,13.716,9.565q1.4.81,2.854,1.589c.1.057.21.114.311.172,2.727,1.576,4.01,3.833,3.191,6.013a5.064,5.064,0,0,0-.292,2.523c.292,2.015,1.8,3.871,4.277,5.3l-3.648,2.142a9.356,9.356,0,0,1-8.383.025A26.87,26.87,0,0,0,277.9,55.2c-.362.159-.737.311-1.112.458a10.908,10.908,0,0,1-8.695-.521c-.114-.064-.222-.133-.324-.2a48.115,48.115,0,0,0,7.411-2.358,14.722,14.722,0,0,1-11.644-.75,8.347,8.347,0,0,1-.858-.566c-.623-.47-1.157-.89-1.456-1.144a49.919,49.919,0,0,0,9.8-.261h-.127a23.77,23.77,0,0,1-11.351-2.841,10.083,10.083,0,0,1-4.678-4.989c-.032-.1-.064-.184-.1-.286a50.945,50.945,0,0,0,14.339,4.551,61.94,61.94,0,0,1-10.176-4.195l-.419-.229c-3.267-1.881-4.347-4.71-2.758-7.233a52.8,52.8,0,0,0,6.006,4.023,70.539,70.539,0,0,0,8.714,4.2c-.877-.445-1.722-.909-2.549-1.386a47.227,47.227,0,0,1-8.549-6.222c-1.678-1.557-1.271-3.572.979-4.849Z" transform="translate(-254.77 -30.4)" fill="#fff"/>
          </g>
          <g id="Group_75607" data-name="Group 75607" transform="translate(19.913 12.048)">
            <path id="Path_40206" data-name="Path 40206" d="M299.174,57.138V56.083a1.335,1.335,0,0,1,.674-1.163l9.451-5.472a.673.673,0,0,1,1.011.585V72.449L286.1,86.425V65.464L298.5,58.3a1.356,1.356,0,0,0,.674-1.163Z" transform="translate(-286.1 -49.355)" fill="#455a64"/>
            <path id="Path_40207" data-name="Path 40207" d="M299.174,57.138V56.083a1.335,1.335,0,0,1,.674-1.163l9.451-5.472a.673.673,0,0,1,1.011.585V72.449L286.1,86.425V65.464L298.5,58.3a1.356,1.356,0,0,0,.674-1.163Z" transform="translate(-286.1 -49.355)" opacity="0.2"/>
            <path id="Path_40208" data-name="Path 40208" d="M299.174,57.138V56.083a1.335,1.335,0,0,1,.674-1.163l9.451-5.472a.673.673,0,0,1,1.011.585V72.449L286.1,86.425V65.464L298.5,58.3a1.356,1.356,0,0,0,.674-1.163Z" transform="translate(-286.1 -49.355)" fill="#fff" opacity="0.1"/>
            <path id="Path_40209" data-name="Path 40209" d="M286.1,88.659l1.8-19.786L312.1,54.56l-1.792,19.786Z" transform="translate(-286.1 -51.252)" fill="#455a64"/>
            <path id="Path_40210" data-name="Path 40210" d="M286.1,88.659l1.8-19.786L312.1,54.56l-1.792,19.786Z" transform="translate(-286.1 -51.252)" fill="#fff" opacity="0.6"/>
            <path id="Path_40211" data-name="Path 40211" d="M310.309,74.907,313.894,56.1l-24.2,13.741L286.1,88.883Z" transform="translate(-286.1 -51.813)" fill="#455a64"/>
            <path id="Path_40212" data-name="Path 40212" d="M310.309,74.907,313.894,56.1l-24.2,13.741L286.1,88.883Z" transform="translate(-286.1 -51.813)" opacity="0.2"/>
            <path id="Path_40213" data-name="Path 40213" d="M310.309,74.907,313.894,56.1l-24.2,13.741L286.1,88.883Z" transform="translate(-286.1 -51.813)" fill="#fff" opacity="0.2"/>
          </g>
          <path id="Path_40214" data-name="Path 40214" d="M354.675,91.267a10.639,10.639,0,0,1-8.409.6,66.63,66.63,0,0,1-10.773-4.932q-1.239-.715-2.4-1.475a53.856,53.856,0,0,0,7.284,5.034,57.162,57.162,0,0,0,7.049,3.445c-4.43.947-9.311.33-12.578-1.557-.133-.076-.267-.159-.4-.242a38.221,38.221,0,0,1-7.271-5.879,22.7,22.7,0,0,0,7.907,8.288c-.172-.013-.331-.032-.5-.051a22.968,22.968,0,0,1-8.625-2.695c-2.962-1.71-4.818-4.03-4.932-6.566v-.07a9.939,9.939,0,0,0-.419,5.682c-.445-.172-1.163-.483-1.977-.839a8.793,8.793,0,0,1-.979-.5c-3.051-1.761-3.75-4.557-1.386-6.7a19.294,19.294,0,0,0-3.953,4.277c-.159-.083-.273-.146-.388-.21-2.314-1.335-2.752-3.451-.928-5.034.254-.222.515-.439.788-.648a18.6,18.6,0,0,0-4.385,3.216c-2.282-1.347-2.275-3.534.006-4.862l3.667-2.129a20.436,20.436,0,0,0,9.178,2.472,25.006,25.006,0,0,0,4.366-.178,17.218,17.218,0,0,1,10.4,1.83c.1.057.2.121.3.178.9.559,1.818,1.106,2.752,1.646a118.4,118.4,0,0,0,16.6,7.888Z" transform="translate(-273.327 -47.539)" fill="#ba68c8"/>
          <g id="Group_75608" data-name="Group 75608" transform="translate(32.365 29.891)" opacity="0.2">
            <path id="Path_40215" data-name="Path 40215" d="M354.675,91.267a10.639,10.639,0,0,1-8.409.6,66.63,66.63,0,0,1-10.773-4.932q-1.239-.715-2.4-1.475a53.856,53.856,0,0,0,7.284,5.034,57.162,57.162,0,0,0,7.049,3.445c-4.43.947-9.311.33-12.578-1.557-.133-.076-.267-.159-.4-.242a38.221,38.221,0,0,1-7.271-5.879,22.7,22.7,0,0,0,7.907,8.288c-.172-.013-.331-.032-.5-.051a22.968,22.968,0,0,1-8.625-2.695c-2.962-1.71-4.818-4.03-4.932-6.566v-.07a9.939,9.939,0,0,0-.419,5.682c-.445-.172-1.163-.483-1.977-.839a8.793,8.793,0,0,1-.979-.5c-3.051-1.761-3.75-4.557-1.386-6.7a19.294,19.294,0,0,0-3.953,4.277c-.159-.083-.273-.146-.388-.21-2.314-1.335-2.752-3.451-.928-5.034.254-.222.515-.439.788-.648a18.6,18.6,0,0,0-4.385,3.216c-2.282-1.347-2.275-3.534.006-4.862l3.667-2.129a20.436,20.436,0,0,0,9.178,2.472,25.006,25.006,0,0,0,4.366-.178,17.218,17.218,0,0,1,10.4,1.83c.1.057.2.121.3.178.9.559,1.818,1.106,2.752,1.646a118.4,118.4,0,0,0,16.6,7.888Z" transform="translate(-305.692 -77.43)"/>
          </g>
          <g id="Group_75609" data-name="Group 75609" transform="translate(32.365 29.891)" opacity="0.4">
            <path id="Path_40216" data-name="Path 40216" d="M354.675,91.267a10.639,10.639,0,0,1-8.409.6,66.63,66.63,0,0,1-10.773-4.932q-1.239-.715-2.4-1.475a53.856,53.856,0,0,0,7.284,5.034,57.162,57.162,0,0,0,7.049,3.445c-4.43.947-9.311.33-12.578-1.557-.133-.076-.267-.159-.4-.242a38.221,38.221,0,0,1-7.271-5.879,22.7,22.7,0,0,0,7.907,8.288c-.172-.013-.331-.032-.5-.051a22.968,22.968,0,0,1-8.625-2.695c-2.962-1.71-4.818-4.03-4.932-6.566v-.07a9.939,9.939,0,0,0-.419,5.682c-.445-.172-1.163-.483-1.977-.839a8.793,8.793,0,0,1-.979-.5c-3.051-1.761-3.75-4.557-1.386-6.7a19.294,19.294,0,0,0-3.953,4.277c-.159-.083-.273-.146-.388-.21-2.314-1.335-2.752-3.451-.928-5.034.254-.222.515-.439.788-.648a18.6,18.6,0,0,0-4.385,3.216c-2.282-1.347-2.275-3.534.006-4.862l3.667-2.129a20.436,20.436,0,0,0,9.178,2.472,25.006,25.006,0,0,0,4.366-.178,17.218,17.218,0,0,1,10.4,1.83c.1.057.2.121.3.178.9.559,1.818,1.106,2.752,1.646a118.4,118.4,0,0,0,16.6,7.888Z" transform="translate(-305.692 -77.43)" fill="#fff"/>
          </g>
        </g>
        <g id="Group_75611" data-name="Group 75611" transform="translate(0 39.776)">
          <path id="Path_40217" data-name="Path 40217" d="M280.626,94.894a.634.634,0,0,1-.318-1.182l1.093-.642a.635.635,0,0,1,.648,1.093l-1.093.642a.65.65,0,0,1-.318.089Z" transform="translate(-231.96 -92.982)" fill="#e0e0e0"/>
          <path id="Path_40218" data-name="Path 40218" d="M205.126,174.444h-.013a.638.638,0,0,1-.623-.648c.019-.871.038-1.742.076-2.606a.636.636,0,0,1,1.271.051c-.032.858-.057,1.722-.076,2.58a.635.635,0,0,1-.636.623Zm.318-6.477h-.057a.634.634,0,0,1-.578-.686c.076-.9.172-1.773.286-2.606a.635.635,0,1,1,1.258.165c-.108.82-.2,1.678-.28,2.555a.636.636,0,0,1-.636.578Zm.934-6.413a.476.476,0,0,1-.133-.013.642.642,0,0,1-.489-.756c.184-.864.4-1.729.636-2.561a.634.634,0,1,1,1.22.343c-.229.807-.432,1.64-.617,2.479a.638.638,0,0,1-.623.5Zm1.881-6.2a.617.617,0,0,1-.235-.044.634.634,0,0,1-.35-.826c.337-.826.705-1.64,1.093-2.409a.634.634,0,0,1,1.131.572c-.375.744-.731,1.519-1.049,2.314a.633.633,0,0,1-.591.394Zm3.064-5.7a.628.628,0,0,1-.362-.114.64.64,0,0,1-.159-.883,24.64,24.64,0,0,1,1.64-2.1.635.635,0,0,1,.96.833,24.459,24.459,0,0,0-1.557,1.989A.626.626,0,0,1,211.322,149.656Zm4.379-4.76a.657.657,0,0,1-.483-.216.634.634,0,0,1,.064-.9c.655-.566,1.328-1.125,2-1.678a.637.637,0,1,1,.807.985c-.667.547-1.328,1.093-1.977,1.652A.64.64,0,0,1,215.7,144.9Zm4.951-4.188a.651.651,0,0,1-.47-.2.633.633,0,0,1,.038-.9,23.145,23.145,0,0,0,1.767-1.8.635.635,0,1,1,.96.833,23.446,23.446,0,0,1-1.862,1.9.626.626,0,0,1-.432.165Zm3.941-5.091a.622.622,0,0,1-.261-.057.635.635,0,0,1-.318-.839c.1-.2.178-.413.261-.623a11.73,11.73,0,0,0,.5-1.71.633.633,0,1,1,1.239.261,12.755,12.755,0,0,1-.547,1.9c-.089.235-.184.47-.292.693A.637.637,0,0,1,224.593,135.616Zm1.208-6.33h-.025a.638.638,0,0,1-.61-.661c.019-.413.025-.833.038-1.246.013-.451.025-.9.044-1.347a.636.636,0,0,1,1.271.051c-.019.445-.032.89-.044,1.335-.013.419-.025.839-.044,1.258a.632.632,0,0,1-.636.61Zm.5-6.457a.391.391,0,0,1-.121-.013.639.639,0,0,1-.5-.744,22.019,22.019,0,0,1,.674-2.58.635.635,0,0,1,1.208.394,20.786,20.786,0,0,0-.636,2.434.632.632,0,0,1-.623.515Zm2.167-6.089a.681.681,0,0,1-.292-.07.633.633,0,0,1-.267-.858,25.61,25.61,0,0,1,1.347-2.288.634.634,0,1,1,1.061.693c-.47.718-.9,1.449-1.284,2.18A.643.643,0,0,1,228.47,116.739Zm3.655-5.345a.636.636,0,0,1-.483-1.049c.559-.655,1.163-1.309,1.786-1.945a.631.631,0,1,1,.9.89c-.6.617-1.189,1.246-1.722,1.881a.641.641,0,0,1-.483.222Zm4.614-4.551a.638.638,0,0,1-.413-1.125c.655-.553,1.347-1.106,2.053-1.64a.635.635,0,0,1,.769,1.011c-.693.521-1.366,1.061-2,1.6a.636.636,0,0,1-.407.153Zm5.212-3.864a.633.633,0,0,1-.35-1.163c.718-.47,1.468-.941,2.218-1.392a.634.634,0,0,1,.655,1.087c-.737.445-1.468.9-2.174,1.367a.638.638,0,0,1-.35.1Zm5.561-3.337a.638.638,0,0,1-.324-1.189l2.244-1.3a.637.637,0,1,1,.642,1.1l-2.244,1.3a.642.642,0,0,1-.318.083Z" transform="translate(-204.445 -94.47)" fill="#e0e0e0"/>
          <path id="Path_40219" data-name="Path 40219" d="M205.056,225.522h0a.637.637,0,0,1-.636-.636v-1.271a.639.639,0,0,1,1.278,0v1.271A.639.639,0,0,1,205.056,225.522Z" transform="translate(-204.42 -140.356)" fill="#e0e0e0"/>
        </g>
      </g>
    </g>
  </g>
</svg>
